M48
;GenerationSoftware,Autodesk,EAGLE,9.6.1*%
;CreationDate,2020-05-15T02:04:17Z*%
FMAT,2
ICI,OFF
METRIC,TZ,000.000
T4C0.350
T3C1.020
T2C1.300
T1C3.500
%
G90
M71
T1
X3810Y3810
X49530Y3810
X49530Y49530
X3810Y49530
T2
X49530Y17470
X49530Y39370
X49530Y35870
X49530Y42870
X25400Y49530
X28900Y49530
X21900Y49530
X41120Y6350
X5080Y19050
X5080Y22550
X5080Y15550
X49530Y26670
X49530Y23170
X49530Y30170
X38100Y49530
X41600Y49530
X34600Y49530
X12700Y49530
X16200Y49530
X5080Y31750
X5080Y35250
X5080Y28250
X15720Y6350
X12220Y6350
X28420Y6350
X24920Y6350
X9200Y49530
X37620Y6350
X49530Y13970
X49530Y10470
T3
X21590Y35560
X21590Y38100
X24130Y35560
X24130Y38100
X26670Y35560
X26670Y38100
T4
X29000Y20400
X15400Y24400
X42600Y21900
X26900Y24200
X26900Y25800
X21300Y25000
X24530Y22590
X18200Y29100
X27000Y12900
X27700Y15100
X27000Y14100
X27700Y16300
X24629Y28210
X23720Y28210
X22700Y27600
X21700Y27600
X20200Y29500
X28800Y41600
X12300Y26000
X18200Y25800
M30