G04 EAGLE Gerber RS-274X export*
G75*
%MOMM*%
%FSLAX34Y34*%
%LPD*%
%INTop Copper*%
%IPPOS*%
%AMOC8*
5,1,8,0,0,1.08239X$1,22.5*%
G01*
%ADD10R,1.500000X1.300000*%
%ADD11R,1.530000X1.530000*%
%ADD12C,1.530000*%
%ADD13C,1.950000*%
%ADD14R,1.300000X1.600000*%
%ADD15R,1.200000X1.200000*%
%ADD16R,1.500000X0.550000*%
%ADD17R,0.550000X1.500000*%
%ADD18R,1.250000X1.600000*%
%ADD19C,0.756400*%
%ADD20C,0.200000*%
%ADD21C,0.300000*%

G36*
X486940Y10165D02*
X486940Y10165D01*
X486963Y10162D01*
X487060Y10184D01*
X487158Y10200D01*
X487180Y10212D01*
X487203Y10217D01*
X487288Y10269D01*
X487376Y10316D01*
X487392Y10333D01*
X487413Y10346D01*
X487477Y10422D01*
X487545Y10494D01*
X487555Y10516D01*
X487571Y10534D01*
X487607Y10627D01*
X487649Y10717D01*
X487652Y10741D01*
X487660Y10763D01*
X487665Y10863D01*
X487676Y10961D01*
X487671Y10985D01*
X487672Y11009D01*
X487645Y11105D01*
X487624Y11202D01*
X487611Y11222D01*
X487605Y11246D01*
X487548Y11328D01*
X487498Y11413D01*
X487479Y11429D01*
X487466Y11448D01*
X487386Y11508D01*
X487311Y11573D01*
X487288Y11582D01*
X487269Y11596D01*
X487113Y11657D01*
X484623Y12324D01*
X478316Y15966D01*
X473166Y21116D01*
X469524Y27423D01*
X467639Y34458D01*
X467639Y41742D01*
X469524Y48777D01*
X473166Y55084D01*
X478316Y60234D01*
X484623Y63876D01*
X491658Y65761D01*
X498942Y65761D01*
X505977Y63876D01*
X512284Y60234D01*
X517434Y55084D01*
X521076Y48777D01*
X522961Y41742D01*
X522961Y34458D01*
X521076Y27423D01*
X517434Y21116D01*
X512284Y15966D01*
X505977Y12324D01*
X503487Y11657D01*
X503465Y11647D01*
X503442Y11643D01*
X503354Y11597D01*
X503263Y11556D01*
X503245Y11540D01*
X503224Y11528D01*
X503156Y11456D01*
X503083Y11389D01*
X503071Y11368D01*
X503055Y11350D01*
X503013Y11260D01*
X502965Y11173D01*
X502961Y11149D01*
X502951Y11127D01*
X502940Y11028D01*
X502923Y10930D01*
X502927Y10906D01*
X502924Y10883D01*
X502945Y10786D01*
X502960Y10687D01*
X502971Y10666D01*
X502976Y10642D01*
X503027Y10557D01*
X503073Y10468D01*
X503090Y10452D01*
X503102Y10431D01*
X503178Y10366D01*
X503249Y10297D01*
X503271Y10287D01*
X503289Y10271D01*
X503382Y10234D01*
X503471Y10191D01*
X503495Y10188D01*
X503518Y10179D01*
X503684Y10161D01*
X534978Y10161D01*
X534998Y10164D01*
X535017Y10162D01*
X535119Y10184D01*
X535221Y10200D01*
X535238Y10210D01*
X535258Y10214D01*
X535347Y10267D01*
X535438Y10316D01*
X535452Y10330D01*
X535469Y10340D01*
X535536Y10419D01*
X535608Y10494D01*
X535616Y10512D01*
X535629Y10527D01*
X535668Y10623D01*
X535711Y10717D01*
X535713Y10737D01*
X535721Y10755D01*
X535739Y10922D01*
X535739Y544578D01*
X535737Y544590D01*
X535738Y544598D01*
X535737Y544604D01*
X535738Y544617D01*
X535716Y544719D01*
X535700Y544821D01*
X535690Y544838D01*
X535686Y544858D01*
X535633Y544947D01*
X535584Y545038D01*
X535570Y545052D01*
X535560Y545069D01*
X535481Y545136D01*
X535406Y545208D01*
X535388Y545216D01*
X535373Y545229D01*
X535277Y545268D01*
X535183Y545311D01*
X535163Y545313D01*
X535145Y545321D01*
X534978Y545339D01*
X10922Y545339D01*
X10902Y545336D01*
X10883Y545338D01*
X10781Y545316D01*
X10679Y545300D01*
X10662Y545290D01*
X10642Y545286D01*
X10553Y545233D01*
X10462Y545184D01*
X10448Y545170D01*
X10431Y545160D01*
X10364Y545081D01*
X10292Y545006D01*
X10284Y544988D01*
X10271Y544973D01*
X10232Y544877D01*
X10189Y544783D01*
X10187Y544763D01*
X10179Y544745D01*
X10161Y544578D01*
X10161Y503684D01*
X10165Y503660D01*
X10162Y503637D01*
X10184Y503540D01*
X10200Y503442D01*
X10212Y503420D01*
X10217Y503397D01*
X10269Y503312D01*
X10316Y503224D01*
X10333Y503208D01*
X10346Y503187D01*
X10422Y503123D01*
X10494Y503055D01*
X10516Y503045D01*
X10534Y503029D01*
X10627Y502993D01*
X10717Y502951D01*
X10741Y502948D01*
X10763Y502940D01*
X10863Y502935D01*
X10961Y502924D01*
X10985Y502929D01*
X11009Y502928D01*
X11105Y502955D01*
X11202Y502976D01*
X11222Y502989D01*
X11246Y502995D01*
X11328Y503052D01*
X11413Y503102D01*
X11429Y503121D01*
X11448Y503134D01*
X11508Y503214D01*
X11573Y503289D01*
X11582Y503312D01*
X11596Y503331D01*
X11657Y503487D01*
X12324Y505977D01*
X15966Y512284D01*
X21116Y517434D01*
X27423Y521076D01*
X34458Y522961D01*
X41742Y522961D01*
X48777Y521076D01*
X55084Y517434D01*
X60234Y512284D01*
X63876Y505977D01*
X65761Y498942D01*
X65761Y491658D01*
X63876Y484623D01*
X60234Y478316D01*
X55084Y473166D01*
X48777Y469524D01*
X41742Y467639D01*
X34458Y467639D01*
X27423Y469524D01*
X21116Y473166D01*
X15966Y478316D01*
X12324Y484623D01*
X11657Y487113D01*
X11647Y487135D01*
X11643Y487158D01*
X11597Y487246D01*
X11556Y487337D01*
X11540Y487355D01*
X11528Y487376D01*
X11456Y487444D01*
X11389Y487517D01*
X11368Y487529D01*
X11350Y487545D01*
X11260Y487587D01*
X11173Y487635D01*
X11149Y487639D01*
X11127Y487649D01*
X11028Y487660D01*
X10930Y487677D01*
X10906Y487673D01*
X10883Y487676D01*
X10786Y487655D01*
X10687Y487640D01*
X10666Y487629D01*
X10642Y487624D01*
X10557Y487573D01*
X10468Y487527D01*
X10452Y487510D01*
X10431Y487498D01*
X10366Y487422D01*
X10297Y487351D01*
X10287Y487329D01*
X10271Y487311D01*
X10234Y487218D01*
X10191Y487129D01*
X10188Y487105D01*
X10179Y487082D01*
X10161Y486916D01*
X10161Y46484D01*
X10165Y46460D01*
X10162Y46437D01*
X10184Y46340D01*
X10200Y46242D01*
X10212Y46220D01*
X10217Y46197D01*
X10269Y46112D01*
X10316Y46024D01*
X10333Y46008D01*
X10346Y45987D01*
X10422Y45923D01*
X10494Y45855D01*
X10516Y45845D01*
X10534Y45829D01*
X10627Y45793D01*
X10717Y45751D01*
X10741Y45748D01*
X10763Y45740D01*
X10863Y45735D01*
X10961Y45724D01*
X10985Y45729D01*
X11009Y45728D01*
X11105Y45755D01*
X11202Y45776D01*
X11222Y45789D01*
X11246Y45795D01*
X11328Y45852D01*
X11413Y45902D01*
X11429Y45921D01*
X11448Y45934D01*
X11508Y46014D01*
X11573Y46089D01*
X11582Y46112D01*
X11596Y46131D01*
X11657Y46287D01*
X12324Y48777D01*
X15966Y55084D01*
X21116Y60234D01*
X27423Y63876D01*
X34458Y65761D01*
X41742Y65761D01*
X48777Y63876D01*
X55084Y60234D01*
X60234Y55084D01*
X63876Y48777D01*
X65761Y41742D01*
X65761Y34458D01*
X63876Y27423D01*
X60234Y21116D01*
X55084Y15966D01*
X48777Y12324D01*
X46287Y11657D01*
X46265Y11647D01*
X46242Y11643D01*
X46154Y11597D01*
X46063Y11556D01*
X46045Y11540D01*
X46024Y11528D01*
X45956Y11456D01*
X45883Y11389D01*
X45871Y11368D01*
X45855Y11350D01*
X45813Y11260D01*
X45765Y11173D01*
X45761Y11149D01*
X45751Y11127D01*
X45740Y11028D01*
X45723Y10930D01*
X45727Y10906D01*
X45724Y10883D01*
X45745Y10786D01*
X45760Y10687D01*
X45771Y10666D01*
X45776Y10642D01*
X45827Y10557D01*
X45873Y10468D01*
X45890Y10452D01*
X45902Y10431D01*
X45978Y10366D01*
X46049Y10297D01*
X46071Y10287D01*
X46089Y10271D01*
X46182Y10234D01*
X46271Y10191D01*
X46295Y10188D01*
X46318Y10179D01*
X46484Y10161D01*
X486916Y10161D01*
X486940Y10165D01*
G37*
%LPC*%
G36*
X267802Y123693D02*
X267802Y123693D01*
X265243Y126252D01*
X265169Y126305D01*
X265099Y126365D01*
X265069Y126377D01*
X265043Y126396D01*
X264956Y126423D01*
X264871Y126457D01*
X264830Y126461D01*
X264808Y126468D01*
X264776Y126467D01*
X264705Y126475D01*
X200954Y126475D01*
X170475Y156954D01*
X170475Y225046D01*
X181954Y236525D01*
X188514Y236525D01*
X188534Y236528D01*
X188553Y236526D01*
X188655Y236548D01*
X188757Y236564D01*
X188774Y236574D01*
X188794Y236578D01*
X188883Y236631D01*
X188974Y236680D01*
X188988Y236694D01*
X189005Y236704D01*
X189072Y236783D01*
X189144Y236858D01*
X189152Y236876D01*
X189165Y236891D01*
X189204Y236987D01*
X189247Y237081D01*
X189249Y237101D01*
X189257Y237119D01*
X189275Y237286D01*
X189275Y237382D01*
X189355Y237462D01*
X189367Y237478D01*
X189383Y237490D01*
X189439Y237578D01*
X189499Y237661D01*
X189505Y237680D01*
X189516Y237697D01*
X189541Y237798D01*
X189571Y237897D01*
X189571Y237917D01*
X189576Y237936D01*
X189568Y238039D01*
X189565Y238142D01*
X189558Y238161D01*
X189557Y238181D01*
X189516Y238276D01*
X189481Y238373D01*
X189468Y238389D01*
X189460Y238407D01*
X189355Y238538D01*
X189275Y238618D01*
X189275Y245382D01*
X189355Y245462D01*
X189367Y245478D01*
X189383Y245490D01*
X189439Y245578D01*
X189499Y245661D01*
X189505Y245680D01*
X189516Y245697D01*
X189541Y245798D01*
X189571Y245897D01*
X189571Y245917D01*
X189576Y245936D01*
X189568Y246039D01*
X189565Y246142D01*
X189558Y246161D01*
X189557Y246181D01*
X189516Y246276D01*
X189481Y246373D01*
X189468Y246389D01*
X189460Y246407D01*
X189355Y246538D01*
X189275Y246618D01*
X189275Y253382D01*
X189355Y253462D01*
X189367Y253478D01*
X189383Y253490D01*
X189439Y253578D01*
X189499Y253661D01*
X189505Y253680D01*
X189516Y253697D01*
X189541Y253798D01*
X189571Y253897D01*
X189571Y253917D01*
X189576Y253936D01*
X189568Y254039D01*
X189565Y254142D01*
X189558Y254161D01*
X189557Y254181D01*
X189516Y254276D01*
X189481Y254373D01*
X189468Y254389D01*
X189460Y254407D01*
X189355Y254538D01*
X189275Y254618D01*
X189275Y254714D01*
X189272Y254734D01*
X189274Y254753D01*
X189252Y254855D01*
X189236Y254957D01*
X189226Y254974D01*
X189222Y254994D01*
X189169Y255083D01*
X189120Y255174D01*
X189106Y255188D01*
X189096Y255205D01*
X189017Y255272D01*
X188942Y255344D01*
X188924Y255352D01*
X188909Y255365D01*
X188813Y255404D01*
X188719Y255447D01*
X188699Y255449D01*
X188681Y255457D01*
X188514Y255475D01*
X187295Y255475D01*
X187205Y255461D01*
X187114Y255453D01*
X187085Y255441D01*
X187053Y255436D01*
X186972Y255393D01*
X186888Y255357D01*
X186856Y255331D01*
X186835Y255320D01*
X186813Y255297D01*
X186757Y255252D01*
X184198Y252693D01*
X179802Y252693D01*
X176693Y255802D01*
X176693Y260198D01*
X179802Y263307D01*
X184198Y263307D01*
X186757Y260748D01*
X186831Y260695D01*
X186901Y260635D01*
X186931Y260623D01*
X186957Y260604D01*
X187044Y260577D01*
X187129Y260543D01*
X187170Y260539D01*
X187192Y260532D01*
X187224Y260533D01*
X187295Y260525D01*
X188514Y260525D01*
X188534Y260528D01*
X188553Y260526D01*
X188655Y260548D01*
X188757Y260564D01*
X188774Y260574D01*
X188794Y260578D01*
X188883Y260631D01*
X188974Y260680D01*
X188988Y260694D01*
X189005Y260704D01*
X189072Y260783D01*
X189144Y260858D01*
X189152Y260876D01*
X189165Y260891D01*
X189204Y260987D01*
X189247Y261081D01*
X189249Y261101D01*
X189257Y261119D01*
X189275Y261286D01*
X189275Y261382D01*
X189355Y261462D01*
X189367Y261478D01*
X189383Y261490D01*
X189439Y261578D01*
X189499Y261661D01*
X189505Y261680D01*
X189516Y261697D01*
X189541Y261798D01*
X189571Y261897D01*
X189571Y261917D01*
X189576Y261936D01*
X189568Y262039D01*
X189565Y262142D01*
X189558Y262161D01*
X189557Y262181D01*
X189516Y262276D01*
X189481Y262373D01*
X189468Y262389D01*
X189460Y262407D01*
X189355Y262538D01*
X189275Y262618D01*
X189275Y268866D01*
X189261Y268956D01*
X189253Y269047D01*
X189241Y269077D01*
X189236Y269109D01*
X189193Y269190D01*
X189157Y269274D01*
X189131Y269306D01*
X189120Y269326D01*
X189097Y269349D01*
X189052Y269405D01*
X188767Y269690D01*
X188432Y270269D01*
X188259Y270916D01*
X188259Y272626D01*
X197687Y272626D01*
X197706Y272629D01*
X197726Y272627D01*
X197828Y272649D01*
X197930Y272665D01*
X197947Y272675D01*
X197967Y272679D01*
X198056Y272732D01*
X198147Y272781D01*
X198161Y272795D01*
X198178Y272805D01*
X198245Y272884D01*
X198299Y272941D01*
X198307Y272927D01*
X198321Y272913D01*
X198331Y272896D01*
X198410Y272829D01*
X198485Y272757D01*
X198503Y272749D01*
X198518Y272736D01*
X198615Y272697D01*
X198708Y272654D01*
X198728Y272652D01*
X198746Y272644D01*
X198913Y272626D01*
X208341Y272626D01*
X208341Y270915D01*
X208168Y270269D01*
X207833Y269690D01*
X207548Y269405D01*
X207495Y269331D01*
X207435Y269261D01*
X207423Y269231D01*
X207404Y269205D01*
X207377Y269118D01*
X207343Y269033D01*
X207339Y268992D01*
X207332Y268970D01*
X207333Y268938D01*
X207325Y268866D01*
X207325Y262618D01*
X207245Y262538D01*
X207233Y262522D01*
X207217Y262510D01*
X207161Y262423D01*
X207101Y262339D01*
X207095Y262320D01*
X207084Y262303D01*
X207059Y262202D01*
X207029Y262104D01*
X207029Y262084D01*
X207024Y262064D01*
X207032Y261961D01*
X207035Y261858D01*
X207042Y261839D01*
X207043Y261819D01*
X207084Y261724D01*
X207119Y261627D01*
X207132Y261611D01*
X207140Y261593D01*
X207245Y261462D01*
X207325Y261382D01*
X207325Y254618D01*
X207245Y254538D01*
X207233Y254522D01*
X207217Y254510D01*
X207161Y254423D01*
X207101Y254339D01*
X207095Y254320D01*
X207084Y254303D01*
X207059Y254202D01*
X207029Y254104D01*
X207029Y254084D01*
X207024Y254064D01*
X207032Y253961D01*
X207035Y253858D01*
X207042Y253839D01*
X207043Y253819D01*
X207084Y253724D01*
X207119Y253627D01*
X207132Y253611D01*
X207140Y253593D01*
X207245Y253462D01*
X207458Y253249D01*
X207480Y253207D01*
X207532Y253158D01*
X207576Y253102D01*
X207620Y253074D01*
X207658Y253038D01*
X207723Y253008D01*
X207783Y252969D01*
X207834Y252956D01*
X207881Y252934D01*
X207952Y252926D01*
X208022Y252909D01*
X208074Y252913D01*
X208125Y252907D01*
X208196Y252922D01*
X208267Y252928D01*
X208315Y252948D01*
X208366Y252959D01*
X208427Y252996D01*
X208493Y253024D01*
X208549Y253069D01*
X208577Y253086D01*
X208592Y253103D01*
X208624Y253129D01*
X210802Y255307D01*
X215198Y255307D01*
X218307Y252198D01*
X218307Y247802D01*
X215198Y244693D01*
X210802Y244693D01*
X208624Y246871D01*
X208566Y246913D01*
X208514Y246962D01*
X208467Y246984D01*
X208425Y247014D01*
X208356Y247036D01*
X208291Y247066D01*
X208239Y247071D01*
X208189Y247087D01*
X208118Y247085D01*
X208047Y247093D01*
X207996Y247082D01*
X207944Y247080D01*
X207876Y247056D01*
X207806Y247041D01*
X207761Y247014D01*
X207713Y246996D01*
X207657Y246951D01*
X207595Y246914D01*
X207561Y246875D01*
X207521Y246842D01*
X207482Y246782D01*
X207443Y246737D01*
X207245Y246538D01*
X207233Y246522D01*
X207217Y246510D01*
X207161Y246423D01*
X207101Y246339D01*
X207095Y246320D01*
X207084Y246303D01*
X207059Y246202D01*
X207029Y246104D01*
X207029Y246084D01*
X207024Y246064D01*
X207032Y245961D01*
X207035Y245858D01*
X207042Y245839D01*
X207043Y245819D01*
X207084Y245724D01*
X207119Y245627D01*
X207132Y245611D01*
X207140Y245593D01*
X207245Y245462D01*
X207325Y245382D01*
X207325Y238618D01*
X207245Y238538D01*
X207233Y238522D01*
X207217Y238510D01*
X207161Y238423D01*
X207101Y238339D01*
X207095Y238320D01*
X207084Y238303D01*
X207059Y238202D01*
X207029Y238104D01*
X207029Y238084D01*
X207024Y238064D01*
X207032Y237961D01*
X207035Y237858D01*
X207042Y237839D01*
X207043Y237819D01*
X207084Y237724D01*
X207119Y237627D01*
X207132Y237611D01*
X207140Y237593D01*
X207245Y237462D01*
X207325Y237382D01*
X207325Y230618D01*
X207245Y230538D01*
X207233Y230522D01*
X207217Y230510D01*
X207161Y230423D01*
X207101Y230339D01*
X207095Y230320D01*
X207084Y230303D01*
X207059Y230202D01*
X207029Y230104D01*
X207029Y230084D01*
X207024Y230064D01*
X207032Y229961D01*
X207035Y229858D01*
X207042Y229839D01*
X207043Y229819D01*
X207084Y229724D01*
X207119Y229627D01*
X207132Y229611D01*
X207140Y229593D01*
X207245Y229462D01*
X207325Y229382D01*
X207325Y222618D01*
X206432Y221725D01*
X190168Y221725D01*
X189275Y222618D01*
X189275Y222714D01*
X189272Y222734D01*
X189274Y222753D01*
X189252Y222855D01*
X189236Y222957D01*
X189226Y222974D01*
X189222Y222994D01*
X189169Y223083D01*
X189120Y223174D01*
X189106Y223188D01*
X189096Y223205D01*
X189017Y223272D01*
X188942Y223344D01*
X188924Y223352D01*
X188909Y223365D01*
X188813Y223404D01*
X188719Y223447D01*
X188699Y223449D01*
X188681Y223457D01*
X188514Y223475D01*
X184361Y223475D01*
X184271Y223461D01*
X184180Y223453D01*
X184150Y223441D01*
X184118Y223436D01*
X184038Y223393D01*
X183954Y223357D01*
X183922Y223331D01*
X183901Y223320D01*
X183879Y223297D01*
X183823Y223252D01*
X179272Y218701D01*
X179219Y218627D01*
X179159Y218558D01*
X179147Y218528D01*
X179128Y218501D01*
X179101Y218414D01*
X179067Y218330D01*
X179063Y218289D01*
X179056Y218266D01*
X179057Y218234D01*
X179049Y218163D01*
X179049Y160821D01*
X179063Y160731D01*
X179071Y160640D01*
X179083Y160610D01*
X179088Y160578D01*
X179131Y160497D01*
X179167Y160414D01*
X179193Y160381D01*
X179204Y160361D01*
X179227Y160339D01*
X179272Y160283D01*
X204283Y135272D01*
X204357Y135219D01*
X204426Y135159D01*
X204456Y135147D01*
X204482Y135128D01*
X204569Y135101D01*
X204654Y135067D01*
X204695Y135063D01*
X204717Y135056D01*
X204750Y135057D01*
X204821Y135049D01*
X260163Y135049D01*
X260253Y135063D01*
X260344Y135071D01*
X260374Y135083D01*
X260406Y135088D01*
X260486Y135131D01*
X260570Y135167D01*
X260602Y135193D01*
X260623Y135204D01*
X260645Y135227D01*
X260701Y135272D01*
X264470Y139041D01*
X264513Y139100D01*
X264556Y139145D01*
X264563Y139161D01*
X264583Y139184D01*
X264595Y139214D01*
X264614Y139241D01*
X264641Y139328D01*
X264642Y139332D01*
X264659Y139368D01*
X264660Y139376D01*
X264675Y139412D01*
X264679Y139453D01*
X264686Y139476D01*
X264685Y139508D01*
X264693Y139579D01*
X264693Y142180D01*
X264682Y142251D01*
X264680Y142322D01*
X264662Y142371D01*
X264654Y142423D01*
X264620Y142486D01*
X264595Y142553D01*
X264563Y142594D01*
X264538Y142640D01*
X264486Y142689D01*
X264442Y142745D01*
X264398Y142774D01*
X264360Y142809D01*
X264295Y142840D01*
X264235Y142878D01*
X264184Y142891D01*
X264137Y142913D01*
X264066Y142921D01*
X263996Y142938D01*
X263944Y142934D01*
X263893Y142940D01*
X263822Y142925D01*
X263751Y142919D01*
X263703Y142899D01*
X263652Y142888D01*
X263591Y142851D01*
X263525Y142823D01*
X263469Y142778D01*
X263441Y142762D01*
X263426Y142744D01*
X263394Y142718D01*
X262127Y141451D01*
X217873Y141451D01*
X215878Y143446D01*
X211446Y147878D01*
X209451Y149873D01*
X209451Y196429D01*
X210052Y197030D01*
X210105Y197104D01*
X210165Y197173D01*
X210177Y197203D01*
X210196Y197230D01*
X210223Y197317D01*
X210257Y197401D01*
X210261Y197442D01*
X210268Y197465D01*
X210267Y197497D01*
X210275Y197568D01*
X210275Y201303D01*
X210261Y201393D01*
X210253Y201484D01*
X210241Y201514D01*
X210236Y201546D01*
X210193Y201627D01*
X210157Y201710D01*
X210131Y201743D01*
X210120Y201763D01*
X210097Y201785D01*
X210052Y201841D01*
X209025Y202868D01*
X209025Y219132D01*
X209918Y220025D01*
X216682Y220025D01*
X216762Y219945D01*
X216778Y219933D01*
X216790Y219917D01*
X216877Y219861D01*
X216961Y219801D01*
X216980Y219795D01*
X216997Y219784D01*
X217098Y219759D01*
X217196Y219729D01*
X217216Y219729D01*
X217236Y219724D01*
X217339Y219732D01*
X217442Y219735D01*
X217461Y219742D01*
X217481Y219743D01*
X217576Y219784D01*
X217673Y219819D01*
X217689Y219832D01*
X217707Y219840D01*
X217838Y219945D01*
X217918Y220025D01*
X224682Y220025D01*
X224762Y219945D01*
X224778Y219933D01*
X224790Y219917D01*
X224877Y219861D01*
X224961Y219801D01*
X224980Y219795D01*
X224997Y219784D01*
X225098Y219759D01*
X225196Y219729D01*
X225216Y219729D01*
X225236Y219724D01*
X225339Y219732D01*
X225442Y219735D01*
X225461Y219742D01*
X225481Y219743D01*
X225576Y219784D01*
X225673Y219819D01*
X225689Y219832D01*
X225707Y219840D01*
X225838Y219945D01*
X226052Y220159D01*
X226105Y220233D01*
X226165Y220302D01*
X226177Y220332D01*
X226196Y220358D01*
X226223Y220445D01*
X226257Y220530D01*
X226261Y220571D01*
X226268Y220593D01*
X226267Y220626D01*
X226275Y220697D01*
X226275Y247132D01*
X226261Y247222D01*
X226253Y247313D01*
X226241Y247343D01*
X226236Y247375D01*
X226193Y247455D01*
X226157Y247539D01*
X226131Y247571D01*
X226120Y247592D01*
X226097Y247614D01*
X226052Y247670D01*
X213975Y259747D01*
X213975Y271205D01*
X213961Y271295D01*
X213953Y271386D01*
X213941Y271415D01*
X213936Y271447D01*
X213893Y271528D01*
X213857Y271612D01*
X213831Y271644D01*
X213820Y271665D01*
X213797Y271687D01*
X213752Y271743D01*
X211693Y273802D01*
X211693Y278198D01*
X214802Y281307D01*
X219198Y281307D01*
X221462Y279043D01*
X221478Y279032D01*
X221490Y279016D01*
X221578Y278960D01*
X221661Y278900D01*
X221680Y278894D01*
X221697Y278883D01*
X221798Y278858D01*
X221897Y278827D01*
X221916Y278828D01*
X221936Y278823D01*
X222039Y278831D01*
X222142Y278834D01*
X222161Y278840D01*
X222181Y278842D01*
X222276Y278882D01*
X222373Y278918D01*
X222389Y278931D01*
X222407Y278938D01*
X222538Y279043D01*
X224802Y281307D01*
X229198Y281307D01*
X230594Y279911D01*
X230652Y279869D01*
X230704Y279820D01*
X230751Y279798D01*
X230793Y279768D01*
X230862Y279746D01*
X230927Y279716D01*
X230979Y279711D01*
X231029Y279695D01*
X231100Y279697D01*
X231171Y279689D01*
X231222Y279700D01*
X231274Y279702D01*
X231342Y279726D01*
X231412Y279741D01*
X231457Y279768D01*
X231505Y279786D01*
X231561Y279831D01*
X231623Y279868D01*
X231657Y279907D01*
X231697Y279940D01*
X231736Y280000D01*
X231783Y280055D01*
X231802Y280103D01*
X231830Y280147D01*
X231848Y280216D01*
X231875Y280283D01*
X231883Y280354D01*
X231891Y280385D01*
X231889Y280408D01*
X231893Y280449D01*
X231893Y284298D01*
X234052Y286457D01*
X234105Y286531D01*
X234165Y286601D01*
X234177Y286631D01*
X234196Y286657D01*
X234223Y286744D01*
X234257Y286829D01*
X234261Y286870D01*
X234268Y286892D01*
X234267Y286924D01*
X234275Y286995D01*
X234275Y287303D01*
X234261Y287393D01*
X234253Y287484D01*
X234241Y287514D01*
X234236Y287546D01*
X234193Y287627D01*
X234157Y287710D01*
X234131Y287743D01*
X234120Y287763D01*
X234097Y287785D01*
X234052Y287841D01*
X233838Y288055D01*
X233822Y288067D01*
X233810Y288083D01*
X233722Y288139D01*
X233639Y288199D01*
X233620Y288205D01*
X233603Y288216D01*
X233502Y288241D01*
X233403Y288271D01*
X233384Y288271D01*
X233364Y288276D01*
X233261Y288268D01*
X233158Y288265D01*
X233139Y288258D01*
X233119Y288257D01*
X233024Y288216D01*
X232927Y288181D01*
X232911Y288168D01*
X232893Y288160D01*
X232762Y288055D01*
X232682Y287975D01*
X225918Y287975D01*
X225838Y288055D01*
X225822Y288067D01*
X225810Y288083D01*
X225723Y288139D01*
X225639Y288199D01*
X225620Y288205D01*
X225603Y288216D01*
X225502Y288241D01*
X225404Y288271D01*
X225384Y288271D01*
X225364Y288276D01*
X225261Y288268D01*
X225158Y288265D01*
X225139Y288258D01*
X225119Y288257D01*
X225024Y288216D01*
X224927Y288181D01*
X224911Y288168D01*
X224893Y288160D01*
X224762Y288055D01*
X224682Y287975D01*
X217918Y287975D01*
X217838Y288055D01*
X217822Y288067D01*
X217810Y288083D01*
X217723Y288139D01*
X217639Y288199D01*
X217620Y288205D01*
X217603Y288216D01*
X217502Y288241D01*
X217404Y288271D01*
X217384Y288271D01*
X217364Y288276D01*
X217261Y288268D01*
X217158Y288265D01*
X217139Y288258D01*
X217119Y288257D01*
X217024Y288216D01*
X216927Y288181D01*
X216911Y288168D01*
X216893Y288160D01*
X216762Y288055D01*
X216682Y287975D01*
X209918Y287975D01*
X209025Y288868D01*
X209025Y305132D01*
X209918Y306025D01*
X210014Y306025D01*
X210034Y306028D01*
X210053Y306026D01*
X210155Y306048D01*
X210257Y306064D01*
X210274Y306074D01*
X210294Y306078D01*
X210383Y306131D01*
X210474Y306180D01*
X210488Y306194D01*
X210505Y306204D01*
X210572Y306283D01*
X210644Y306358D01*
X210652Y306376D01*
X210665Y306391D01*
X210704Y306487D01*
X210747Y306581D01*
X210749Y306601D01*
X210757Y306619D01*
X210775Y306786D01*
X210775Y345664D01*
X210772Y345684D01*
X210774Y345703D01*
X210752Y345805D01*
X210736Y345907D01*
X210726Y345924D01*
X210722Y345944D01*
X210669Y346033D01*
X210620Y346124D01*
X210606Y346138D01*
X210596Y346155D01*
X210517Y346222D01*
X210442Y346294D01*
X210424Y346302D01*
X210409Y346315D01*
X210313Y346354D01*
X210219Y346397D01*
X210199Y346399D01*
X210181Y346407D01*
X210014Y346425D01*
X207618Y346425D01*
X206725Y347318D01*
X206725Y363882D01*
X207618Y364775D01*
X224182Y364775D01*
X224776Y364181D01*
X224834Y364139D01*
X224886Y364089D01*
X224933Y364067D01*
X224975Y364037D01*
X225044Y364016D01*
X225109Y363986D01*
X225161Y363980D01*
X225211Y363965D01*
X225282Y363967D01*
X225353Y363959D01*
X225404Y363970D01*
X225456Y363971D01*
X225524Y363996D01*
X225594Y364011D01*
X225639Y364038D01*
X225687Y364055D01*
X225743Y364100D01*
X225805Y364137D01*
X225839Y364177D01*
X225879Y364209D01*
X225918Y364269D01*
X225965Y364324D01*
X225984Y364372D01*
X226012Y364416D01*
X226030Y364486D01*
X226057Y364552D01*
X226065Y364623D01*
X226073Y364655D01*
X226071Y364678D01*
X226075Y364719D01*
X226075Y369346D01*
X232873Y376143D01*
X232940Y376237D01*
X233010Y376332D01*
X233012Y376338D01*
X233016Y376343D01*
X233050Y376454D01*
X233087Y376566D01*
X233087Y376572D01*
X233088Y376578D01*
X233085Y376695D01*
X233084Y376812D01*
X233082Y376819D01*
X233082Y376824D01*
X233076Y376841D01*
X233038Y376973D01*
X232125Y379175D01*
X232125Y382825D01*
X233522Y386197D01*
X236103Y388778D01*
X239475Y390175D01*
X243125Y390175D01*
X246497Y388778D01*
X249078Y386197D01*
X250475Y382825D01*
X250475Y379175D01*
X249078Y375803D01*
X246497Y373222D01*
X243125Y371825D01*
X239475Y371825D01*
X237273Y372738D01*
X237159Y372764D01*
X237046Y372793D01*
X237039Y372792D01*
X237033Y372794D01*
X236917Y372783D01*
X236800Y372774D01*
X236795Y372771D01*
X236788Y372771D01*
X236681Y372723D01*
X236574Y372677D01*
X236568Y372673D01*
X236564Y372671D01*
X236550Y372658D01*
X236443Y372573D01*
X231348Y367477D01*
X231295Y367403D01*
X231235Y367334D01*
X231223Y367304D01*
X231204Y367277D01*
X231177Y367190D01*
X231143Y367106D01*
X231139Y367065D01*
X231132Y367042D01*
X231133Y367010D01*
X231125Y366939D01*
X231125Y358836D01*
X231140Y358740D01*
X231150Y358643D01*
X231160Y358620D01*
X231164Y358594D01*
X231210Y358508D01*
X231250Y358419D01*
X231267Y358399D01*
X231280Y358376D01*
X231350Y358309D01*
X231416Y358238D01*
X231439Y358225D01*
X231458Y358207D01*
X231546Y358166D01*
X231632Y358119D01*
X231657Y358114D01*
X231681Y358103D01*
X231778Y358093D01*
X231874Y358075D01*
X231900Y358079D01*
X231925Y358076D01*
X232021Y358097D01*
X232117Y358111D01*
X232140Y358123D01*
X232166Y358129D01*
X232249Y358178D01*
X232336Y358223D01*
X232355Y358241D01*
X232377Y358255D01*
X232440Y358329D01*
X232508Y358398D01*
X232524Y358427D01*
X232537Y358442D01*
X232549Y358472D01*
X232589Y358545D01*
X233522Y360797D01*
X236103Y363378D01*
X239475Y364775D01*
X243125Y364775D01*
X246497Y363378D01*
X249078Y360797D01*
X250475Y357425D01*
X250475Y353775D01*
X249078Y350403D01*
X246497Y347822D01*
X243125Y346425D01*
X239475Y346425D01*
X236103Y347822D01*
X233522Y350403D01*
X232589Y352655D01*
X232538Y352738D01*
X232492Y352824D01*
X232474Y352842D01*
X232460Y352864D01*
X232384Y352926D01*
X232314Y352993D01*
X232290Y353004D01*
X232270Y353021D01*
X232179Y353056D01*
X232091Y353097D01*
X232065Y353100D01*
X232041Y353109D01*
X231943Y353113D01*
X231847Y353124D01*
X231821Y353118D01*
X231795Y353119D01*
X231701Y353092D01*
X231606Y353071D01*
X231584Y353058D01*
X231559Y353051D01*
X231479Y352995D01*
X231395Y352945D01*
X231378Y352925D01*
X231357Y352911D01*
X231298Y352832D01*
X231235Y352758D01*
X231225Y352734D01*
X231210Y352713D01*
X231180Y352621D01*
X231143Y352530D01*
X231140Y352498D01*
X231134Y352479D01*
X231134Y352446D01*
X231125Y352364D01*
X231125Y341554D01*
X224048Y334477D01*
X223995Y334403D01*
X223935Y334334D01*
X223923Y334304D01*
X223904Y334277D01*
X223877Y334190D01*
X223843Y334106D01*
X223839Y334065D01*
X223832Y334042D01*
X223833Y334010D01*
X223825Y333939D01*
X223825Y306786D01*
X223828Y306766D01*
X223826Y306747D01*
X223848Y306645D01*
X223864Y306543D01*
X223874Y306526D01*
X223878Y306506D01*
X223931Y306417D01*
X223980Y306326D01*
X223994Y306312D01*
X224004Y306295D01*
X224083Y306228D01*
X224158Y306156D01*
X224176Y306148D01*
X224191Y306135D01*
X224287Y306096D01*
X224381Y306053D01*
X224401Y306051D01*
X224419Y306043D01*
X224586Y306025D01*
X224682Y306025D01*
X224762Y305945D01*
X224778Y305933D01*
X224790Y305917D01*
X224878Y305861D01*
X224961Y305801D01*
X224980Y305795D01*
X224997Y305784D01*
X225098Y305759D01*
X225197Y305729D01*
X225217Y305729D01*
X225236Y305724D01*
X225339Y305732D01*
X225442Y305735D01*
X225461Y305742D01*
X225481Y305743D01*
X225576Y305784D01*
X225673Y305819D01*
X225689Y305832D01*
X225707Y305840D01*
X225838Y305945D01*
X225918Y306025D01*
X232682Y306025D01*
X232762Y305945D01*
X232778Y305933D01*
X232790Y305917D01*
X232878Y305861D01*
X232961Y305801D01*
X232980Y305795D01*
X232997Y305784D01*
X233098Y305759D01*
X233197Y305729D01*
X233217Y305729D01*
X233236Y305724D01*
X233339Y305732D01*
X233442Y305735D01*
X233461Y305742D01*
X233481Y305743D01*
X233576Y305784D01*
X233673Y305819D01*
X233689Y305832D01*
X233707Y305840D01*
X233838Y305945D01*
X233918Y306025D01*
X240682Y306025D01*
X240762Y305945D01*
X240778Y305933D01*
X240790Y305917D01*
X240878Y305861D01*
X240961Y305801D01*
X240980Y305795D01*
X240997Y305784D01*
X241098Y305759D01*
X241197Y305729D01*
X241217Y305729D01*
X241236Y305724D01*
X241339Y305732D01*
X241442Y305735D01*
X241461Y305742D01*
X241481Y305743D01*
X241576Y305784D01*
X241673Y305819D01*
X241689Y305832D01*
X241707Y305840D01*
X241838Y305945D01*
X241918Y306025D01*
X248682Y306025D01*
X248762Y305945D01*
X248778Y305933D01*
X248790Y305917D01*
X248878Y305861D01*
X248961Y305801D01*
X248980Y305795D01*
X248997Y305784D01*
X249098Y305759D01*
X249197Y305729D01*
X249217Y305729D01*
X249236Y305724D01*
X249339Y305732D01*
X249442Y305735D01*
X249461Y305742D01*
X249481Y305743D01*
X249576Y305784D01*
X249673Y305819D01*
X249689Y305832D01*
X249707Y305840D01*
X249838Y305945D01*
X249918Y306025D01*
X256682Y306025D01*
X256762Y305945D01*
X256778Y305933D01*
X256790Y305917D01*
X256878Y305861D01*
X256961Y305801D01*
X256980Y305795D01*
X256997Y305784D01*
X257098Y305759D01*
X257197Y305729D01*
X257216Y305729D01*
X257236Y305724D01*
X257339Y305732D01*
X257442Y305735D01*
X257461Y305742D01*
X257481Y305743D01*
X257576Y305784D01*
X257673Y305819D01*
X257689Y305832D01*
X257707Y305840D01*
X257838Y305945D01*
X258052Y306159D01*
X258105Y306233D01*
X258165Y306302D01*
X258177Y306332D01*
X258196Y306358D01*
X258223Y306445D01*
X258257Y306530D01*
X258261Y306571D01*
X258268Y306593D01*
X258267Y306626D01*
X258275Y306697D01*
X258275Y319132D01*
X258261Y319222D01*
X258253Y319313D01*
X258241Y319343D01*
X258236Y319375D01*
X258193Y319455D01*
X258157Y319539D01*
X258131Y319571D01*
X258120Y319592D01*
X258097Y319614D01*
X258052Y319670D01*
X257975Y319747D01*
X257975Y322253D01*
X298752Y363030D01*
X298805Y363104D01*
X298865Y363173D01*
X298877Y363203D01*
X298896Y363230D01*
X298923Y363317D01*
X298957Y363401D01*
X298961Y363442D01*
X298968Y363465D01*
X298967Y363497D01*
X298975Y363568D01*
X298975Y428432D01*
X298961Y428522D01*
X298953Y428613D01*
X298941Y428643D01*
X298936Y428675D01*
X298893Y428755D01*
X298857Y428839D01*
X298831Y428871D01*
X298820Y428892D01*
X298797Y428914D01*
X298752Y428970D01*
X290970Y436752D01*
X290896Y436805D01*
X290827Y436865D01*
X290797Y436877D01*
X290770Y436896D01*
X290683Y436923D01*
X290599Y436957D01*
X290558Y436961D01*
X290535Y436968D01*
X290503Y436967D01*
X290432Y436975D01*
X139868Y436975D01*
X139778Y436961D01*
X139687Y436953D01*
X139657Y436941D01*
X139625Y436936D01*
X139545Y436893D01*
X139461Y436857D01*
X139429Y436831D01*
X139408Y436820D01*
X139386Y436797D01*
X139330Y436752D01*
X61042Y358464D01*
X60974Y358370D01*
X60904Y358276D01*
X60902Y358270D01*
X60898Y358264D01*
X60864Y358154D01*
X60828Y358042D01*
X60828Y358035D01*
X60826Y358029D01*
X60829Y357913D01*
X60830Y357796D01*
X60832Y357789D01*
X60832Y357784D01*
X60839Y357766D01*
X60877Y357635D01*
X62075Y354743D01*
X62075Y350257D01*
X60358Y346113D01*
X57187Y342942D01*
X53043Y341225D01*
X48557Y341225D01*
X44413Y342942D01*
X41242Y346113D01*
X39525Y350257D01*
X39525Y354743D01*
X41242Y358887D01*
X44413Y362058D01*
X48557Y363775D01*
X53043Y363775D01*
X55935Y362577D01*
X56048Y362550D01*
X56162Y362522D01*
X56168Y362522D01*
X56174Y362521D01*
X56291Y362532D01*
X56407Y362541D01*
X56413Y362543D01*
X56419Y362544D01*
X56527Y362592D01*
X56633Y362637D01*
X56639Y362642D01*
X56644Y362644D01*
X56657Y362656D01*
X56764Y362742D01*
X137047Y443025D01*
X177860Y443025D01*
X177931Y443036D01*
X178002Y443038D01*
X178051Y443056D01*
X178103Y443064D01*
X178166Y443098D01*
X178233Y443123D01*
X178274Y443155D01*
X178320Y443180D01*
X178369Y443232D01*
X178425Y443276D01*
X178454Y443320D01*
X178489Y443358D01*
X178520Y443423D01*
X178558Y443483D01*
X178571Y443534D01*
X178593Y443581D01*
X178601Y443652D01*
X178618Y443722D01*
X178614Y443774D01*
X178620Y443825D01*
X178605Y443896D01*
X178599Y443967D01*
X178579Y444015D01*
X178568Y444066D01*
X178531Y444127D01*
X178503Y444193D01*
X178458Y444249D01*
X178442Y444277D01*
X178424Y444292D01*
X178398Y444324D01*
X160970Y461752D01*
X158975Y463747D01*
X158975Y483841D01*
X158956Y483955D01*
X158939Y484071D01*
X158937Y484077D01*
X158936Y484083D01*
X158881Y484186D01*
X158828Y484291D01*
X158823Y484295D01*
X158820Y484301D01*
X158737Y484380D01*
X158652Y484463D01*
X158646Y484467D01*
X158642Y484470D01*
X158625Y484478D01*
X158505Y484544D01*
X155613Y485742D01*
X152442Y488913D01*
X150725Y493057D01*
X150725Y497543D01*
X152442Y501687D01*
X155613Y504858D01*
X159757Y506575D01*
X164243Y506575D01*
X168387Y504858D01*
X171558Y501687D01*
X173275Y497543D01*
X173275Y493057D01*
X171558Y488913D01*
X168387Y485742D01*
X165495Y484544D01*
X165395Y484482D01*
X165295Y484422D01*
X165291Y484418D01*
X165286Y484414D01*
X165211Y484325D01*
X165135Y484235D01*
X165133Y484230D01*
X165129Y484225D01*
X165087Y484117D01*
X165043Y484007D01*
X165042Y484000D01*
X165041Y483995D01*
X165040Y483977D01*
X165025Y483841D01*
X165025Y466568D01*
X165039Y466478D01*
X165047Y466387D01*
X165059Y466357D01*
X165064Y466325D01*
X165107Y466245D01*
X165143Y466161D01*
X165169Y466129D01*
X165180Y466108D01*
X165203Y466086D01*
X165248Y466030D01*
X188030Y443248D01*
X188104Y443195D01*
X188173Y443135D01*
X188203Y443123D01*
X188230Y443104D01*
X188317Y443077D01*
X188401Y443043D01*
X188442Y443039D01*
X188465Y443032D01*
X188497Y443033D01*
X188568Y443025D01*
X293253Y443025D01*
X305025Y431253D01*
X305025Y360747D01*
X264548Y320270D01*
X264495Y320196D01*
X264435Y320127D01*
X264423Y320097D01*
X264404Y320070D01*
X264377Y319983D01*
X264343Y319899D01*
X264339Y319858D01*
X264332Y319835D01*
X264333Y319803D01*
X264325Y319732D01*
X264325Y306697D01*
X264339Y306607D01*
X264347Y306516D01*
X264359Y306486D01*
X264364Y306454D01*
X264407Y306373D01*
X264443Y306290D01*
X264469Y306257D01*
X264480Y306237D01*
X264503Y306215D01*
X264548Y306159D01*
X264762Y305945D01*
X264778Y305933D01*
X264790Y305917D01*
X264878Y305861D01*
X264961Y305801D01*
X264980Y305795D01*
X264997Y305784D01*
X265098Y305759D01*
X265197Y305729D01*
X265216Y305729D01*
X265236Y305724D01*
X265339Y305732D01*
X265442Y305735D01*
X265461Y305742D01*
X265481Y305743D01*
X265576Y305784D01*
X265673Y305819D01*
X265689Y305832D01*
X265707Y305840D01*
X265838Y305945D01*
X266052Y306159D01*
X266105Y306233D01*
X266165Y306302D01*
X266177Y306332D01*
X266196Y306358D01*
X266223Y306445D01*
X266257Y306530D01*
X266261Y306571D01*
X266268Y306593D01*
X266267Y306626D01*
X266275Y306697D01*
X266275Y316553D01*
X286747Y337025D01*
X331432Y337025D01*
X331522Y337039D01*
X331613Y337047D01*
X331643Y337059D01*
X331675Y337064D01*
X331755Y337107D01*
X331839Y337143D01*
X331871Y337169D01*
X331892Y337180D01*
X331914Y337203D01*
X331970Y337248D01*
X412752Y418030D01*
X412805Y418104D01*
X412865Y418173D01*
X412877Y418203D01*
X412896Y418230D01*
X412923Y418317D01*
X412957Y418401D01*
X412961Y418442D01*
X412968Y418465D01*
X412967Y418497D01*
X412975Y418568D01*
X412975Y483841D01*
X412956Y483955D01*
X412939Y484071D01*
X412937Y484077D01*
X412936Y484083D01*
X412881Y484186D01*
X412828Y484291D01*
X412823Y484295D01*
X412820Y484301D01*
X412737Y484380D01*
X412652Y484463D01*
X412646Y484467D01*
X412642Y484470D01*
X412625Y484478D01*
X412505Y484544D01*
X409613Y485742D01*
X406442Y488913D01*
X404725Y493057D01*
X404725Y497543D01*
X406442Y501687D01*
X409613Y504858D01*
X413757Y506575D01*
X418243Y506575D01*
X422387Y504858D01*
X425558Y501687D01*
X427275Y497543D01*
X427275Y493057D01*
X425558Y488913D01*
X422387Y485742D01*
X419495Y484544D01*
X419395Y484482D01*
X419295Y484422D01*
X419291Y484418D01*
X419286Y484414D01*
X419211Y484325D01*
X419135Y484235D01*
X419133Y484230D01*
X419129Y484225D01*
X419087Y484117D01*
X419043Y484007D01*
X419042Y484000D01*
X419041Y483995D01*
X419040Y483977D01*
X419025Y483841D01*
X419025Y415747D01*
X417030Y413752D01*
X341602Y338324D01*
X341560Y338266D01*
X341511Y338214D01*
X341489Y338167D01*
X341458Y338125D01*
X341437Y338056D01*
X341407Y337991D01*
X341401Y337939D01*
X341386Y337889D01*
X341388Y337818D01*
X341380Y337747D01*
X341391Y337696D01*
X341392Y337644D01*
X341417Y337576D01*
X341432Y337506D01*
X341459Y337462D01*
X341477Y337413D01*
X341522Y337357D01*
X341558Y337295D01*
X341598Y337261D01*
X341630Y337221D01*
X341691Y337182D01*
X341745Y337135D01*
X341794Y337116D01*
X341837Y337088D01*
X341907Y337070D01*
X341973Y337043D01*
X342045Y337035D01*
X342076Y337027D01*
X342099Y337029D01*
X342140Y337025D01*
X408253Y337025D01*
X445025Y300253D01*
X445025Y257568D01*
X445029Y257544D01*
X445027Y257528D01*
X445040Y257465D01*
X445047Y257387D01*
X445059Y257357D01*
X445064Y257325D01*
X445075Y257305D01*
X445079Y257287D01*
X445114Y257230D01*
X445143Y257161D01*
X445169Y257129D01*
X445180Y257108D01*
X445195Y257093D01*
X445205Y257076D01*
X445222Y257061D01*
X445248Y257030D01*
X467330Y234948D01*
X467404Y234895D01*
X467473Y234835D01*
X467503Y234823D01*
X467530Y234804D01*
X467617Y234777D01*
X467701Y234743D01*
X467742Y234739D01*
X467765Y234732D01*
X467797Y234733D01*
X467868Y234725D01*
X483841Y234725D01*
X483955Y234744D01*
X484071Y234761D01*
X484077Y234763D01*
X484083Y234764D01*
X484186Y234819D01*
X484291Y234872D01*
X484295Y234877D01*
X484301Y234880D01*
X484381Y234964D01*
X484463Y235048D01*
X484467Y235054D01*
X484470Y235058D01*
X484478Y235075D01*
X484544Y235195D01*
X485742Y238087D01*
X488913Y241258D01*
X493057Y242975D01*
X497543Y242975D01*
X501687Y241258D01*
X504858Y238087D01*
X506575Y233943D01*
X506575Y229457D01*
X504858Y225313D01*
X501687Y222142D01*
X497543Y220425D01*
X493057Y220425D01*
X488913Y222142D01*
X485742Y225313D01*
X484544Y228205D01*
X484482Y228305D01*
X484422Y228405D01*
X484418Y228409D01*
X484414Y228414D01*
X484325Y228489D01*
X484235Y228565D01*
X484230Y228567D01*
X484225Y228571D01*
X484117Y228613D01*
X484007Y228657D01*
X484000Y228658D01*
X483995Y228659D01*
X483977Y228660D01*
X483841Y228675D01*
X465047Y228675D01*
X438975Y254747D01*
X438975Y297432D01*
X438961Y297522D01*
X438953Y297613D01*
X438941Y297643D01*
X438936Y297675D01*
X438893Y297755D01*
X438857Y297839D01*
X438831Y297871D01*
X438820Y297892D01*
X438797Y297914D01*
X438752Y297970D01*
X405970Y330752D01*
X405896Y330805D01*
X405827Y330865D01*
X405797Y330877D01*
X405770Y330896D01*
X405683Y330923D01*
X405599Y330957D01*
X405558Y330961D01*
X405535Y330968D01*
X405503Y330967D01*
X405432Y330975D01*
X289568Y330975D01*
X289478Y330961D01*
X289387Y330953D01*
X289357Y330941D01*
X289325Y330936D01*
X289245Y330893D01*
X289161Y330857D01*
X289129Y330831D01*
X289108Y330820D01*
X289086Y330797D01*
X289030Y330752D01*
X272548Y314270D01*
X272495Y314196D01*
X272435Y314127D01*
X272423Y314097D01*
X272404Y314070D01*
X272377Y313983D01*
X272343Y313899D01*
X272339Y313858D01*
X272332Y313835D01*
X272333Y313803D01*
X272325Y313732D01*
X272325Y306697D01*
X272339Y306607D01*
X272347Y306516D01*
X272359Y306486D01*
X272364Y306454D01*
X272407Y306373D01*
X272443Y306290D01*
X272469Y306257D01*
X272480Y306237D01*
X272503Y306215D01*
X272548Y306159D01*
X273575Y305132D01*
X273575Y288868D01*
X272682Y287975D01*
X265918Y287975D01*
X265838Y288055D01*
X265822Y288067D01*
X265810Y288083D01*
X265722Y288139D01*
X265639Y288199D01*
X265620Y288205D01*
X265603Y288216D01*
X265502Y288241D01*
X265403Y288271D01*
X265383Y288271D01*
X265364Y288276D01*
X265261Y288268D01*
X265158Y288265D01*
X265139Y288258D01*
X265119Y288257D01*
X265024Y288216D01*
X264927Y288181D01*
X264911Y288168D01*
X264893Y288160D01*
X264762Y288055D01*
X264682Y287975D01*
X257918Y287975D01*
X257838Y288055D01*
X257822Y288067D01*
X257810Y288083D01*
X257723Y288139D01*
X257639Y288199D01*
X257620Y288205D01*
X257603Y288216D01*
X257502Y288241D01*
X257404Y288271D01*
X257384Y288271D01*
X257364Y288276D01*
X257261Y288268D01*
X257158Y288265D01*
X257139Y288258D01*
X257119Y288257D01*
X257024Y288216D01*
X256927Y288181D01*
X256911Y288168D01*
X256893Y288160D01*
X256762Y288055D01*
X256682Y287975D01*
X250074Y287975D01*
X250054Y287972D01*
X250035Y287974D01*
X249933Y287952D01*
X249831Y287936D01*
X249814Y287926D01*
X249794Y287922D01*
X249705Y287869D01*
X249614Y287820D01*
X249600Y287806D01*
X249583Y287796D01*
X249516Y287717D01*
X249444Y287642D01*
X249436Y287624D01*
X249423Y287609D01*
X249384Y287513D01*
X249341Y287419D01*
X249339Y287399D01*
X249331Y287381D01*
X249313Y287214D01*
X249313Y286895D01*
X249327Y286805D01*
X249335Y286714D01*
X249347Y286685D01*
X249352Y286653D01*
X249395Y286572D01*
X249431Y286488D01*
X249457Y286456D01*
X249468Y286435D01*
X249491Y286413D01*
X249536Y286357D01*
X251595Y284298D01*
X251595Y279902D01*
X248486Y276793D01*
X244090Y276793D01*
X242282Y278601D01*
X242266Y278612D01*
X242254Y278628D01*
X242166Y278684D01*
X242083Y278744D01*
X242064Y278750D01*
X242047Y278761D01*
X241946Y278786D01*
X241847Y278817D01*
X241828Y278816D01*
X241808Y278821D01*
X241705Y278813D01*
X241602Y278810D01*
X241583Y278804D01*
X241563Y278802D01*
X241468Y278762D01*
X241371Y278726D01*
X241355Y278713D01*
X241337Y278706D01*
X241206Y278601D01*
X239398Y276793D01*
X235002Y276793D01*
X233606Y278189D01*
X233548Y278231D01*
X233496Y278280D01*
X233449Y278302D01*
X233407Y278332D01*
X233338Y278354D01*
X233273Y278384D01*
X233221Y278389D01*
X233171Y278405D01*
X233100Y278403D01*
X233029Y278411D01*
X232978Y278400D01*
X232926Y278398D01*
X232858Y278374D01*
X232788Y278359D01*
X232743Y278332D01*
X232695Y278314D01*
X232639Y278269D01*
X232577Y278232D01*
X232543Y278193D01*
X232503Y278160D01*
X232464Y278100D01*
X232417Y278045D01*
X232398Y277997D01*
X232370Y277953D01*
X232352Y277884D01*
X232325Y277817D01*
X232317Y277746D01*
X232309Y277715D01*
X232311Y277692D01*
X232307Y277651D01*
X232307Y273802D01*
X230248Y271743D01*
X230195Y271669D01*
X230135Y271599D01*
X230123Y271569D01*
X230104Y271543D01*
X230077Y271456D01*
X230043Y271371D01*
X230039Y271330D01*
X230032Y271308D01*
X230033Y271276D01*
X230025Y271205D01*
X230025Y263568D01*
X230039Y263478D01*
X230047Y263387D01*
X230059Y263357D01*
X230064Y263325D01*
X230107Y263245D01*
X230143Y263161D01*
X230169Y263129D01*
X230180Y263108D01*
X230203Y263086D01*
X230248Y263030D01*
X238330Y254948D01*
X240325Y252953D01*
X240325Y230267D01*
X240336Y230197D01*
X240338Y230125D01*
X240356Y230076D01*
X240364Y230025D01*
X240398Y229961D01*
X240423Y229894D01*
X240455Y229853D01*
X240480Y229807D01*
X240532Y229758D01*
X240576Y229702D01*
X240620Y229674D01*
X240658Y229638D01*
X240723Y229608D01*
X240783Y229569D01*
X240834Y229556D01*
X240881Y229534D01*
X240952Y229526D01*
X241022Y229509D01*
X241074Y229513D01*
X241125Y229507D01*
X241196Y229522D01*
X241267Y229528D01*
X241315Y229548D01*
X241366Y229559D01*
X241427Y229596D01*
X241493Y229624D01*
X241549Y229669D01*
X241577Y229686D01*
X241592Y229703D01*
X241624Y229729D01*
X243102Y231207D01*
X247498Y231207D01*
X250607Y228098D01*
X250607Y223702D01*
X248229Y221324D01*
X248187Y221266D01*
X248138Y221214D01*
X248116Y221167D01*
X248086Y221125D01*
X248064Y221056D01*
X248034Y220991D01*
X248029Y220939D01*
X248013Y220889D01*
X248015Y220818D01*
X248007Y220747D01*
X248018Y220696D01*
X248020Y220644D01*
X248044Y220576D01*
X248059Y220506D01*
X248086Y220461D01*
X248104Y220413D01*
X248149Y220357D01*
X248186Y220295D01*
X248225Y220261D01*
X248258Y220221D01*
X248318Y220182D01*
X248373Y220135D01*
X248421Y220116D01*
X248465Y220088D01*
X248534Y220070D01*
X248601Y220043D01*
X248671Y220035D01*
X248762Y219945D01*
X248778Y219933D01*
X248790Y219917D01*
X248877Y219861D01*
X248961Y219801D01*
X248980Y219795D01*
X248997Y219784D01*
X249098Y219759D01*
X249196Y219729D01*
X249216Y219729D01*
X249236Y219724D01*
X249339Y219732D01*
X249442Y219735D01*
X249461Y219742D01*
X249481Y219743D01*
X249576Y219784D01*
X249673Y219819D01*
X249689Y219832D01*
X249707Y219840D01*
X249838Y219945D01*
X249918Y220025D01*
X256682Y220025D01*
X256762Y219945D01*
X256778Y219933D01*
X256790Y219917D01*
X256877Y219861D01*
X256961Y219801D01*
X256980Y219795D01*
X256997Y219784D01*
X257098Y219759D01*
X257196Y219729D01*
X257216Y219729D01*
X257236Y219724D01*
X257339Y219732D01*
X257442Y219735D01*
X257461Y219742D01*
X257481Y219743D01*
X257576Y219784D01*
X257673Y219819D01*
X257689Y219832D01*
X257707Y219840D01*
X257838Y219945D01*
X257918Y220025D01*
X264682Y220025D01*
X264762Y219945D01*
X264778Y219933D01*
X264790Y219917D01*
X264877Y219861D01*
X264961Y219801D01*
X264980Y219795D01*
X264997Y219784D01*
X265098Y219759D01*
X265196Y219729D01*
X265216Y219729D01*
X265236Y219724D01*
X265339Y219732D01*
X265442Y219735D01*
X265461Y219742D01*
X265481Y219743D01*
X265576Y219784D01*
X265673Y219819D01*
X265689Y219832D01*
X265707Y219840D01*
X265838Y219945D01*
X265918Y220025D01*
X272682Y220025D01*
X273575Y219132D01*
X273575Y202868D01*
X272682Y201975D01*
X265918Y201975D01*
X265838Y202055D01*
X265822Y202067D01*
X265810Y202083D01*
X265722Y202139D01*
X265639Y202199D01*
X265620Y202205D01*
X265603Y202216D01*
X265502Y202241D01*
X265403Y202271D01*
X265383Y202271D01*
X265364Y202276D01*
X265261Y202268D01*
X265158Y202265D01*
X265139Y202258D01*
X265119Y202257D01*
X265024Y202216D01*
X264927Y202181D01*
X264911Y202168D01*
X264893Y202160D01*
X264762Y202055D01*
X264682Y201975D01*
X257918Y201975D01*
X257838Y202055D01*
X257822Y202067D01*
X257810Y202083D01*
X257722Y202139D01*
X257639Y202199D01*
X257620Y202205D01*
X257603Y202216D01*
X257502Y202241D01*
X257403Y202271D01*
X257383Y202271D01*
X257364Y202276D01*
X257261Y202268D01*
X257158Y202265D01*
X257139Y202258D01*
X257119Y202257D01*
X257024Y202216D01*
X256927Y202181D01*
X256911Y202168D01*
X256893Y202160D01*
X256762Y202055D01*
X256682Y201975D01*
X249918Y201975D01*
X249838Y202055D01*
X249822Y202067D01*
X249810Y202083D01*
X249722Y202139D01*
X249639Y202199D01*
X249620Y202205D01*
X249603Y202216D01*
X249502Y202241D01*
X249403Y202271D01*
X249383Y202271D01*
X249364Y202276D01*
X249261Y202268D01*
X249158Y202265D01*
X249139Y202258D01*
X249119Y202257D01*
X249024Y202216D01*
X248927Y202181D01*
X248911Y202168D01*
X248893Y202160D01*
X248762Y202055D01*
X248682Y201975D01*
X248586Y201975D01*
X248566Y201972D01*
X248547Y201974D01*
X248445Y201952D01*
X248343Y201936D01*
X248326Y201926D01*
X248306Y201922D01*
X248217Y201869D01*
X248126Y201820D01*
X248112Y201806D01*
X248095Y201796D01*
X248028Y201717D01*
X247956Y201642D01*
X247948Y201624D01*
X247935Y201609D01*
X247896Y201513D01*
X247853Y201419D01*
X247851Y201399D01*
X247843Y201381D01*
X247825Y201214D01*
X247825Y181961D01*
X247839Y181871D01*
X247847Y181780D01*
X247859Y181750D01*
X247864Y181718D01*
X247907Y181638D01*
X247943Y181554D01*
X247969Y181522D01*
X247980Y181501D01*
X248003Y181479D01*
X248048Y181423D01*
X253325Y176146D01*
X253325Y175386D01*
X253328Y175366D01*
X253326Y175347D01*
X253348Y175245D01*
X253364Y175143D01*
X253374Y175126D01*
X253378Y175106D01*
X253431Y175017D01*
X253480Y174926D01*
X253494Y174912D01*
X253504Y174895D01*
X253583Y174828D01*
X253658Y174756D01*
X253676Y174748D01*
X253691Y174735D01*
X253787Y174696D01*
X253881Y174653D01*
X253901Y174651D01*
X253919Y174643D01*
X254086Y174625D01*
X257932Y174625D01*
X258825Y173732D01*
X258825Y156468D01*
X257932Y155575D01*
X243668Y155575D01*
X242775Y156468D01*
X242775Y173732D01*
X243668Y174625D01*
X245867Y174625D01*
X245938Y174636D01*
X246009Y174638D01*
X246058Y174656D01*
X246110Y174664D01*
X246173Y174698D01*
X246240Y174723D01*
X246281Y174755D01*
X246327Y174780D01*
X246376Y174832D01*
X246432Y174876D01*
X246461Y174920D01*
X246496Y174958D01*
X246527Y175023D01*
X246565Y175083D01*
X246578Y175134D01*
X246600Y175181D01*
X246608Y175252D01*
X246625Y175322D01*
X246621Y175374D01*
X246627Y175425D01*
X246612Y175496D01*
X246606Y175567D01*
X246586Y175615D01*
X246575Y175666D01*
X246538Y175727D01*
X246510Y175793D01*
X246465Y175849D01*
X246449Y175877D01*
X246431Y175892D01*
X246405Y175924D01*
X242775Y179554D01*
X242775Y201214D01*
X242772Y201234D01*
X242774Y201253D01*
X242752Y201355D01*
X242736Y201457D01*
X242726Y201474D01*
X242722Y201494D01*
X242669Y201583D01*
X242620Y201674D01*
X242606Y201688D01*
X242596Y201705D01*
X242517Y201772D01*
X242442Y201844D01*
X242424Y201852D01*
X242409Y201865D01*
X242313Y201904D01*
X242219Y201947D01*
X242199Y201949D01*
X242181Y201957D01*
X242014Y201975D01*
X241918Y201975D01*
X241838Y202055D01*
X241822Y202067D01*
X241810Y202083D01*
X241722Y202139D01*
X241639Y202199D01*
X241620Y202205D01*
X241603Y202216D01*
X241502Y202241D01*
X241403Y202271D01*
X241383Y202271D01*
X241364Y202276D01*
X241261Y202268D01*
X241158Y202265D01*
X241139Y202258D01*
X241119Y202257D01*
X241024Y202216D01*
X240927Y202181D01*
X240911Y202168D01*
X240893Y202160D01*
X240762Y202055D01*
X240682Y201975D01*
X233918Y201975D01*
X233838Y202055D01*
X233822Y202067D01*
X233810Y202083D01*
X233722Y202139D01*
X233639Y202199D01*
X233620Y202205D01*
X233603Y202216D01*
X233502Y202241D01*
X233403Y202271D01*
X233383Y202271D01*
X233364Y202276D01*
X233261Y202268D01*
X233158Y202265D01*
X233139Y202258D01*
X233119Y202257D01*
X233024Y202216D01*
X232927Y202181D01*
X232911Y202168D01*
X232893Y202160D01*
X232762Y202055D01*
X232682Y201975D01*
X225918Y201975D01*
X225838Y202055D01*
X225822Y202067D01*
X225810Y202083D01*
X225722Y202139D01*
X225639Y202199D01*
X225619Y202205D01*
X225603Y202216D01*
X225502Y202241D01*
X225403Y202271D01*
X225383Y202271D01*
X225364Y202276D01*
X225261Y202268D01*
X225158Y202265D01*
X225139Y202258D01*
X225119Y202257D01*
X225024Y202216D01*
X224927Y202181D01*
X224911Y202168D01*
X224893Y202160D01*
X224762Y202055D01*
X224548Y201841D01*
X224495Y201767D01*
X224435Y201698D01*
X224423Y201668D01*
X224404Y201642D01*
X224377Y201555D01*
X224343Y201470D01*
X224339Y201429D01*
X224332Y201407D01*
X224333Y201374D01*
X224325Y201303D01*
X224325Y180047D01*
X220248Y175970D01*
X220195Y175896D01*
X220135Y175827D01*
X220123Y175797D01*
X220104Y175770D01*
X220077Y175683D01*
X220043Y175599D01*
X220039Y175558D01*
X220032Y175535D01*
X220033Y175503D01*
X220025Y175432D01*
X220025Y154568D01*
X220039Y154478D01*
X220047Y154387D01*
X220059Y154357D01*
X220064Y154325D01*
X220107Y154245D01*
X220143Y154161D01*
X220169Y154129D01*
X220180Y154108D01*
X220203Y154086D01*
X220248Y154030D01*
X222030Y152248D01*
X222104Y152195D01*
X222173Y152135D01*
X222203Y152123D01*
X222230Y152104D01*
X222317Y152077D01*
X222401Y152043D01*
X222442Y152039D01*
X222465Y152032D01*
X222497Y152033D01*
X222568Y152025D01*
X257432Y152025D01*
X257522Y152039D01*
X257613Y152047D01*
X257643Y152059D01*
X257675Y152064D01*
X257755Y152107D01*
X257839Y152143D01*
X257871Y152169D01*
X257892Y152180D01*
X257914Y152203D01*
X257970Y152248D01*
X271747Y166025D01*
X272205Y166025D01*
X272295Y166039D01*
X272386Y166047D01*
X272415Y166059D01*
X272447Y166064D01*
X272528Y166107D01*
X272612Y166143D01*
X272644Y166169D01*
X272665Y166180D01*
X272687Y166203D01*
X272743Y166248D01*
X274802Y168307D01*
X279198Y168307D01*
X282307Y165198D01*
X282307Y160802D01*
X279043Y157538D01*
X279032Y157522D01*
X279016Y157510D01*
X278960Y157422D01*
X278900Y157339D01*
X278894Y157320D01*
X278883Y157303D01*
X278858Y157202D01*
X278827Y157103D01*
X278828Y157084D01*
X278823Y157064D01*
X278831Y156961D01*
X278834Y156858D01*
X278840Y156839D01*
X278842Y156819D01*
X278882Y156724D01*
X278918Y156627D01*
X278931Y156611D01*
X278938Y156593D01*
X279043Y156462D01*
X282307Y153198D01*
X282307Y148802D01*
X279198Y145693D01*
X274649Y145693D01*
X274579Y145682D01*
X274507Y145680D01*
X274458Y145662D01*
X274407Y145654D01*
X274343Y145620D01*
X274276Y145595D01*
X274235Y145563D01*
X274189Y145538D01*
X274140Y145486D01*
X274084Y145442D01*
X274056Y145398D01*
X274020Y145360D01*
X273990Y145295D01*
X273951Y145235D01*
X273938Y145184D01*
X273916Y145137D01*
X273908Y145066D01*
X273891Y144996D01*
X273895Y144944D01*
X273889Y144893D01*
X273904Y144822D01*
X273910Y144751D01*
X273930Y144703D01*
X273941Y144652D01*
X273978Y144591D01*
X274006Y144525D01*
X274051Y144469D01*
X274068Y144441D01*
X274085Y144426D01*
X274111Y144394D01*
X275307Y143198D01*
X275307Y138802D01*
X272043Y135538D01*
X272032Y135522D01*
X272016Y135510D01*
X271987Y135465D01*
X271958Y135434D01*
X271939Y135393D01*
X271900Y135339D01*
X271894Y135320D01*
X271883Y135303D01*
X271867Y135238D01*
X271854Y135211D01*
X271851Y135179D01*
X271827Y135103D01*
X271828Y135084D01*
X271823Y135064D01*
X271829Y134985D01*
X271827Y134966D01*
X271831Y134946D01*
X271834Y134858D01*
X271840Y134839D01*
X271842Y134819D01*
X271877Y134738D01*
X271879Y134726D01*
X271886Y134715D01*
X271918Y134627D01*
X271931Y134611D01*
X271938Y134593D01*
X272043Y134462D01*
X275307Y131198D01*
X275307Y126802D01*
X272198Y123693D01*
X267802Y123693D01*
G37*
%LPD*%
%LPC*%
G36*
X320553Y200913D02*
X320553Y200913D01*
X319213Y202253D01*
X319213Y254901D01*
X319199Y254991D01*
X319191Y255082D01*
X319179Y255112D01*
X319174Y255144D01*
X319131Y255224D01*
X319095Y255308D01*
X319069Y255340D01*
X319058Y255361D01*
X319035Y255383D01*
X318990Y255439D01*
X303177Y271252D01*
X303103Y271305D01*
X303034Y271365D01*
X303004Y271377D01*
X302977Y271396D01*
X302890Y271423D01*
X302806Y271457D01*
X302765Y271461D01*
X302742Y271468D01*
X302710Y271467D01*
X302639Y271475D01*
X294479Y271475D01*
X294385Y271460D01*
X294290Y271451D01*
X294264Y271440D01*
X294236Y271436D01*
X294152Y271391D01*
X294065Y271353D01*
X294044Y271334D01*
X294019Y271320D01*
X293953Y271251D01*
X293883Y271187D01*
X293869Y271163D01*
X293849Y271142D01*
X293809Y271056D01*
X293763Y270972D01*
X293758Y270945D01*
X293746Y270919D01*
X293735Y270824D01*
X293718Y270731D01*
X293722Y270703D01*
X293719Y270675D01*
X293739Y270581D01*
X293752Y270487D01*
X293766Y270455D01*
X293771Y270434D01*
X293788Y270406D01*
X293820Y270333D01*
X294168Y269731D01*
X294341Y269084D01*
X294341Y267374D01*
X284913Y267374D01*
X284894Y267371D01*
X284874Y267373D01*
X284772Y267351D01*
X284670Y267335D01*
X284653Y267325D01*
X284633Y267321D01*
X284544Y267268D01*
X284453Y267219D01*
X284439Y267205D01*
X284422Y267195D01*
X284355Y267116D01*
X284301Y267059D01*
X284293Y267073D01*
X284279Y267087D01*
X284269Y267104D01*
X284190Y267171D01*
X284115Y267243D01*
X284097Y267251D01*
X284082Y267264D01*
X283985Y267303D01*
X283892Y267346D01*
X283872Y267348D01*
X283854Y267356D01*
X283687Y267374D01*
X274259Y267374D01*
X274259Y269084D01*
X274432Y269731D01*
X274767Y270310D01*
X275052Y270595D01*
X275105Y270669D01*
X275165Y270739D01*
X275177Y270769D01*
X275196Y270795D01*
X275223Y270882D01*
X275257Y270967D01*
X275261Y271008D01*
X275268Y271030D01*
X275267Y271062D01*
X275275Y271134D01*
X275275Y277382D01*
X275355Y277462D01*
X275367Y277478D01*
X275383Y277490D01*
X275439Y277577D01*
X275499Y277661D01*
X275505Y277680D01*
X275516Y277697D01*
X275541Y277798D01*
X275571Y277896D01*
X275571Y277916D01*
X275576Y277936D01*
X275568Y278039D01*
X275565Y278142D01*
X275558Y278161D01*
X275557Y278181D01*
X275516Y278276D01*
X275481Y278373D01*
X275468Y278389D01*
X275460Y278407D01*
X275355Y278538D01*
X275275Y278618D01*
X275275Y285382D01*
X276168Y286275D01*
X292432Y286275D01*
X293325Y285382D01*
X293325Y285286D01*
X293328Y285266D01*
X293326Y285247D01*
X293348Y285145D01*
X293364Y285043D01*
X293374Y285026D01*
X293378Y285006D01*
X293431Y284917D01*
X293480Y284826D01*
X293494Y284812D01*
X293504Y284795D01*
X293583Y284728D01*
X293658Y284656D01*
X293676Y284648D01*
X293691Y284635D01*
X293787Y284596D01*
X293881Y284553D01*
X293901Y284551D01*
X293919Y284543D01*
X294086Y284525D01*
X313046Y284525D01*
X314748Y282823D01*
X317914Y279657D01*
X317972Y279615D01*
X318024Y279566D01*
X318071Y279544D01*
X318113Y279513D01*
X318182Y279492D01*
X318247Y279462D01*
X318299Y279456D01*
X318349Y279441D01*
X318420Y279443D01*
X318491Y279435D01*
X318542Y279446D01*
X318594Y279447D01*
X318662Y279472D01*
X318732Y279487D01*
X318777Y279514D01*
X318825Y279532D01*
X318881Y279577D01*
X318943Y279613D01*
X318977Y279653D01*
X319017Y279685D01*
X319056Y279746D01*
X319103Y279800D01*
X319122Y279849D01*
X319150Y279892D01*
X319168Y279962D01*
X319195Y280028D01*
X319203Y280100D01*
X319211Y280131D01*
X319209Y280154D01*
X319213Y280195D01*
X319213Y305747D01*
X320553Y307087D01*
X420047Y307087D01*
X421387Y305747D01*
X421387Y223729D01*
X421398Y223659D01*
X421400Y223587D01*
X421418Y223538D01*
X421426Y223487D01*
X421460Y223423D01*
X421485Y223356D01*
X421517Y223315D01*
X421542Y223269D01*
X421594Y223220D01*
X421638Y223164D01*
X421682Y223136D01*
X421720Y223100D01*
X421785Y223070D01*
X421845Y223031D01*
X421896Y223018D01*
X421943Y222996D01*
X422014Y222988D01*
X422084Y222971D01*
X422136Y222975D01*
X422187Y222969D01*
X422258Y222984D01*
X422329Y222990D01*
X422377Y223010D01*
X422428Y223021D01*
X422489Y223058D01*
X422555Y223086D01*
X422611Y223131D01*
X422639Y223148D01*
X422654Y223165D01*
X422686Y223191D01*
X423802Y224307D01*
X428198Y224307D01*
X431307Y221198D01*
X431307Y216802D01*
X428198Y213693D01*
X423802Y213693D01*
X422686Y214809D01*
X422628Y214851D01*
X422576Y214900D01*
X422529Y214922D01*
X422487Y214952D01*
X422418Y214974D01*
X422353Y215004D01*
X422301Y215009D01*
X422251Y215025D01*
X422180Y215023D01*
X422109Y215031D01*
X422058Y215020D01*
X422006Y215018D01*
X421938Y214994D01*
X421868Y214979D01*
X421823Y214952D01*
X421775Y214934D01*
X421719Y214889D01*
X421657Y214852D01*
X421623Y214813D01*
X421583Y214780D01*
X421544Y214720D01*
X421497Y214665D01*
X421478Y214617D01*
X421450Y214573D01*
X421432Y214504D01*
X421405Y214437D01*
X421397Y214366D01*
X421389Y214335D01*
X421391Y214312D01*
X421387Y214271D01*
X421387Y202253D01*
X420047Y200913D01*
X320553Y200913D01*
G37*
%LPD*%
G36*
X419120Y202442D02*
X419120Y202442D01*
X419139Y202440D01*
X419241Y202462D01*
X419343Y202479D01*
X419360Y202488D01*
X419380Y202492D01*
X419469Y202545D01*
X419560Y202594D01*
X419574Y202608D01*
X419591Y202618D01*
X419658Y202697D01*
X419730Y202772D01*
X419738Y202790D01*
X419751Y202805D01*
X419790Y202901D01*
X419833Y202995D01*
X419835Y203015D01*
X419843Y203033D01*
X419861Y203200D01*
X419861Y304800D01*
X419858Y304820D01*
X419860Y304839D01*
X419838Y304941D01*
X419822Y305043D01*
X419812Y305060D01*
X419808Y305080D01*
X419755Y305169D01*
X419706Y305260D01*
X419692Y305274D01*
X419682Y305291D01*
X419603Y305358D01*
X419528Y305430D01*
X419510Y305438D01*
X419495Y305451D01*
X419399Y305490D01*
X419305Y305533D01*
X419285Y305535D01*
X419267Y305543D01*
X419100Y305561D01*
X321500Y305561D01*
X321480Y305558D01*
X321461Y305560D01*
X321359Y305538D01*
X321257Y305522D01*
X321240Y305512D01*
X321220Y305508D01*
X321131Y305455D01*
X321040Y305406D01*
X321026Y305392D01*
X321009Y305382D01*
X320942Y305303D01*
X320871Y305228D01*
X320862Y305210D01*
X320849Y305195D01*
X320810Y305099D01*
X320767Y305005D01*
X320765Y304985D01*
X320757Y304967D01*
X320739Y304800D01*
X320739Y277147D01*
X320754Y277057D01*
X320761Y276966D01*
X320773Y276936D01*
X320779Y276904D01*
X320821Y276824D01*
X320857Y276740D01*
X320883Y276708D01*
X320894Y276687D01*
X320917Y276665D01*
X320962Y276609D01*
X322153Y275418D01*
X322227Y275365D01*
X322296Y275305D01*
X322326Y275293D01*
X322353Y275274D01*
X322440Y275247D01*
X322524Y275213D01*
X322565Y275209D01*
X322588Y275202D01*
X322620Y275203D01*
X322691Y275195D01*
X324404Y275195D01*
X324424Y275198D01*
X324443Y275196D01*
X324545Y275218D01*
X324647Y275234D01*
X324664Y275244D01*
X324684Y275248D01*
X324773Y275301D01*
X324864Y275350D01*
X324878Y275364D01*
X324895Y275374D01*
X324962Y275453D01*
X325034Y275528D01*
X325042Y275546D01*
X325055Y275561D01*
X325094Y275657D01*
X325137Y275751D01*
X325139Y275771D01*
X325147Y275789D01*
X325165Y275956D01*
X325165Y279802D01*
X325297Y279934D01*
X325366Y280029D01*
X325437Y280126D01*
X325439Y280130D01*
X325441Y280133D01*
X325476Y280246D01*
X325512Y280360D01*
X325512Y280365D01*
X325513Y280368D01*
X325510Y280487D01*
X325508Y280606D01*
X325507Y280610D01*
X325507Y280614D01*
X325466Y280725D01*
X325427Y280838D01*
X325424Y280841D01*
X325423Y280845D01*
X325348Y280938D01*
X325275Y281032D01*
X325271Y281035D01*
X325269Y281037D01*
X325257Y281045D01*
X325140Y281131D01*
X325130Y281137D01*
X324657Y281610D01*
X324322Y282189D01*
X324149Y282836D01*
X324149Y288147D01*
X333428Y288147D01*
X333448Y288150D01*
X333467Y288148D01*
X333569Y288170D01*
X333671Y288187D01*
X333688Y288196D01*
X333708Y288200D01*
X333797Y288253D01*
X333888Y288302D01*
X333902Y288316D01*
X333919Y288326D01*
X333986Y288405D01*
X334057Y288480D01*
X334066Y288498D01*
X334079Y288513D01*
X334118Y288609D01*
X334161Y288703D01*
X334163Y288723D01*
X334171Y288741D01*
X334189Y288908D01*
X334189Y289671D01*
X334191Y289671D01*
X334191Y288908D01*
X334194Y288888D01*
X334192Y288869D01*
X334214Y288767D01*
X334231Y288665D01*
X334240Y288648D01*
X334244Y288628D01*
X334297Y288539D01*
X334346Y288448D01*
X334360Y288434D01*
X334370Y288417D01*
X334449Y288350D01*
X334524Y288279D01*
X334542Y288270D01*
X334557Y288257D01*
X334653Y288218D01*
X334747Y288175D01*
X334767Y288173D01*
X334785Y288165D01*
X334952Y288147D01*
X344231Y288147D01*
X344231Y282836D01*
X344058Y282189D01*
X343723Y281610D01*
X343250Y281137D01*
X343240Y281131D01*
X343149Y281056D01*
X343055Y280982D01*
X343053Y280978D01*
X343050Y280975D01*
X342987Y280876D01*
X342922Y280775D01*
X342921Y280771D01*
X342919Y280767D01*
X342891Y280652D01*
X342862Y280536D01*
X342863Y280532D01*
X342862Y280528D01*
X342872Y280409D01*
X342881Y280291D01*
X342883Y280287D01*
X342883Y280283D01*
X342931Y280175D01*
X342978Y280065D01*
X342981Y280061D01*
X342982Y280058D01*
X342991Y280048D01*
X343083Y279934D01*
X343215Y279802D01*
X343215Y275786D01*
X343218Y275766D01*
X343216Y275747D01*
X343238Y275645D01*
X343254Y275543D01*
X343264Y275526D01*
X343268Y275506D01*
X343321Y275417D01*
X343370Y275326D01*
X343384Y275312D01*
X343394Y275295D01*
X343473Y275228D01*
X343548Y275156D01*
X343566Y275148D01*
X343581Y275135D01*
X343677Y275096D01*
X343771Y275053D01*
X343791Y275051D01*
X343809Y275043D01*
X343976Y275025D01*
X348764Y275025D01*
X348784Y275028D01*
X348803Y275026D01*
X348905Y275048D01*
X349007Y275064D01*
X349024Y275074D01*
X349044Y275078D01*
X349133Y275131D01*
X349224Y275180D01*
X349238Y275194D01*
X349255Y275204D01*
X349322Y275283D01*
X349394Y275358D01*
X349402Y275376D01*
X349415Y275391D01*
X349454Y275487D01*
X349497Y275581D01*
X349499Y275601D01*
X349507Y275619D01*
X349525Y275786D01*
X349525Y281132D01*
X350418Y282025D01*
X364182Y282025D01*
X365075Y281132D01*
X365075Y263868D01*
X364182Y262975D01*
X350418Y262975D01*
X349525Y263868D01*
X349525Y269214D01*
X349522Y269234D01*
X349524Y269253D01*
X349502Y269355D01*
X349486Y269457D01*
X349476Y269474D01*
X349472Y269494D01*
X349419Y269583D01*
X349370Y269674D01*
X349356Y269688D01*
X349346Y269705D01*
X349267Y269772D01*
X349192Y269844D01*
X349174Y269852D01*
X349159Y269865D01*
X349063Y269904D01*
X348969Y269947D01*
X348949Y269949D01*
X348931Y269957D01*
X348764Y269975D01*
X343976Y269975D01*
X343956Y269972D01*
X343937Y269974D01*
X343835Y269952D01*
X343733Y269936D01*
X343716Y269926D01*
X343696Y269922D01*
X343607Y269869D01*
X343516Y269820D01*
X343502Y269806D01*
X343485Y269796D01*
X343418Y269717D01*
X343346Y269642D01*
X343338Y269624D01*
X343325Y269609D01*
X343286Y269513D01*
X343243Y269419D01*
X343241Y269399D01*
X343233Y269381D01*
X343215Y269214D01*
X343215Y265538D01*
X342322Y264645D01*
X326058Y264645D01*
X325165Y265538D01*
X325165Y269384D01*
X325162Y269404D01*
X325164Y269423D01*
X325142Y269525D01*
X325126Y269627D01*
X325116Y269644D01*
X325112Y269664D01*
X325059Y269753D01*
X325010Y269844D01*
X324996Y269858D01*
X324986Y269875D01*
X324907Y269942D01*
X324832Y270014D01*
X324814Y270022D01*
X324799Y270035D01*
X324703Y270074D01*
X324609Y270117D01*
X324589Y270119D01*
X324571Y270127D01*
X324404Y270145D01*
X321500Y270145D01*
X321480Y270142D01*
X321461Y270144D01*
X321359Y270122D01*
X321257Y270106D01*
X321240Y270096D01*
X321220Y270092D01*
X321131Y270039D01*
X321040Y269990D01*
X321026Y269976D01*
X321009Y269966D01*
X320942Y269887D01*
X320871Y269812D01*
X320862Y269794D01*
X320849Y269779D01*
X320810Y269683D01*
X320767Y269589D01*
X320765Y269569D01*
X320757Y269551D01*
X320739Y269384D01*
X320739Y261147D01*
X320754Y261057D01*
X320761Y260966D01*
X320773Y260936D01*
X320779Y260904D01*
X320821Y260824D01*
X320857Y260740D01*
X320883Y260708D01*
X320894Y260687D01*
X320917Y260665D01*
X320962Y260609D01*
X321823Y259748D01*
X321897Y259695D01*
X321966Y259635D01*
X321996Y259623D01*
X322023Y259604D01*
X322110Y259577D01*
X322194Y259543D01*
X322235Y259539D01*
X322258Y259532D01*
X322290Y259533D01*
X322361Y259525D01*
X361846Y259525D01*
X376123Y245248D01*
X376197Y245195D01*
X376266Y245135D01*
X376296Y245123D01*
X376323Y245104D01*
X376410Y245077D01*
X376494Y245043D01*
X376535Y245039D01*
X376558Y245032D01*
X376590Y245033D01*
X376661Y245025D01*
X386182Y245025D01*
X387075Y244132D01*
X387075Y239116D01*
X387078Y239096D01*
X387076Y239077D01*
X387098Y238975D01*
X387114Y238873D01*
X387124Y238856D01*
X387128Y238836D01*
X387181Y238747D01*
X387230Y238656D01*
X387244Y238642D01*
X387254Y238625D01*
X387333Y238558D01*
X387408Y238486D01*
X387426Y238478D01*
X387441Y238465D01*
X387537Y238426D01*
X387631Y238383D01*
X387651Y238381D01*
X387669Y238373D01*
X387836Y238355D01*
X392804Y238355D01*
X392824Y238358D01*
X392843Y238356D01*
X392945Y238378D01*
X393047Y238394D01*
X393064Y238404D01*
X393084Y238408D01*
X393173Y238461D01*
X393264Y238510D01*
X393278Y238524D01*
X393295Y238534D01*
X393362Y238613D01*
X393434Y238688D01*
X393442Y238706D01*
X393455Y238721D01*
X393494Y238817D01*
X393537Y238911D01*
X393539Y238931D01*
X393547Y238949D01*
X393565Y239116D01*
X393565Y242962D01*
X394458Y243855D01*
X410722Y243855D01*
X411615Y242962D01*
X411615Y228698D01*
X411483Y228566D01*
X411414Y228471D01*
X411343Y228374D01*
X411341Y228370D01*
X411339Y228367D01*
X411304Y228253D01*
X411268Y228140D01*
X411268Y228135D01*
X411267Y228132D01*
X411270Y228013D01*
X411272Y227894D01*
X411273Y227890D01*
X411273Y227886D01*
X411314Y227775D01*
X411353Y227662D01*
X411356Y227659D01*
X411357Y227655D01*
X411432Y227562D01*
X411505Y227468D01*
X411509Y227465D01*
X411511Y227463D01*
X411523Y227455D01*
X411640Y227369D01*
X411650Y227363D01*
X412123Y226890D01*
X412458Y226311D01*
X412631Y225664D01*
X412631Y220353D01*
X403352Y220353D01*
X403332Y220350D01*
X403313Y220352D01*
X403211Y220330D01*
X403109Y220313D01*
X403092Y220304D01*
X403072Y220300D01*
X402983Y220247D01*
X402892Y220198D01*
X402878Y220184D01*
X402861Y220174D01*
X402794Y220095D01*
X402723Y220020D01*
X402714Y220002D01*
X402701Y219987D01*
X402662Y219891D01*
X402619Y219797D01*
X402617Y219777D01*
X402609Y219759D01*
X402591Y219592D01*
X402591Y218829D01*
X402589Y218829D01*
X402589Y219592D01*
X402586Y219612D01*
X402588Y219631D01*
X402566Y219733D01*
X402549Y219835D01*
X402540Y219852D01*
X402536Y219872D01*
X402483Y219961D01*
X402434Y220052D01*
X402420Y220066D01*
X402410Y220083D01*
X402331Y220150D01*
X402256Y220221D01*
X402238Y220230D01*
X402223Y220243D01*
X402127Y220282D01*
X402033Y220325D01*
X402013Y220327D01*
X401995Y220335D01*
X401828Y220353D01*
X392549Y220353D01*
X392549Y225664D01*
X392722Y226311D01*
X393057Y226890D01*
X393530Y227363D01*
X393540Y227369D01*
X393631Y227444D01*
X393725Y227518D01*
X393727Y227522D01*
X393730Y227525D01*
X393793Y227624D01*
X393858Y227725D01*
X393859Y227729D01*
X393861Y227733D01*
X393889Y227848D01*
X393918Y227964D01*
X393917Y227968D01*
X393918Y227972D01*
X393908Y228091D01*
X393899Y228209D01*
X393897Y228213D01*
X393897Y228217D01*
X393849Y228325D01*
X393802Y228435D01*
X393799Y228439D01*
X393798Y228442D01*
X393789Y228452D01*
X393697Y228566D01*
X393565Y228698D01*
X393565Y232544D01*
X393562Y232564D01*
X393564Y232583D01*
X393542Y232685D01*
X393526Y232787D01*
X393516Y232804D01*
X393512Y232824D01*
X393459Y232913D01*
X393410Y233004D01*
X393396Y233018D01*
X393386Y233035D01*
X393307Y233102D01*
X393232Y233174D01*
X393214Y233182D01*
X393199Y233195D01*
X393103Y233234D01*
X393009Y233277D01*
X392989Y233279D01*
X392971Y233287D01*
X392804Y233305D01*
X387836Y233305D01*
X387816Y233302D01*
X387797Y233304D01*
X387695Y233282D01*
X387593Y233266D01*
X387576Y233256D01*
X387556Y233252D01*
X387467Y233199D01*
X387376Y233150D01*
X387362Y233136D01*
X387345Y233126D01*
X387278Y233047D01*
X387206Y232972D01*
X387198Y232954D01*
X387185Y232939D01*
X387146Y232843D01*
X387103Y232749D01*
X387101Y232729D01*
X387093Y232711D01*
X387075Y232544D01*
X387075Y226868D01*
X386182Y225975D01*
X372418Y225975D01*
X371525Y226868D01*
X371525Y242389D01*
X371511Y242479D01*
X371503Y242570D01*
X371491Y242600D01*
X371486Y242632D01*
X371443Y242712D01*
X371407Y242796D01*
X371381Y242828D01*
X371370Y242849D01*
X371347Y242871D01*
X371302Y242927D01*
X359977Y254252D01*
X359903Y254305D01*
X359834Y254365D01*
X359804Y254377D01*
X359777Y254396D01*
X359690Y254423D01*
X359606Y254457D01*
X359565Y254461D01*
X359542Y254468D01*
X359510Y254467D01*
X359439Y254475D01*
X321500Y254475D01*
X321480Y254472D01*
X321461Y254474D01*
X321359Y254452D01*
X321257Y254436D01*
X321240Y254426D01*
X321220Y254422D01*
X321131Y254369D01*
X321040Y254320D01*
X321026Y254306D01*
X321009Y254296D01*
X320942Y254217D01*
X320871Y254142D01*
X320862Y254124D01*
X320849Y254109D01*
X320810Y254013D01*
X320767Y253919D01*
X320765Y253899D01*
X320757Y253881D01*
X320739Y253714D01*
X320739Y203200D01*
X320742Y203180D01*
X320740Y203161D01*
X320762Y203059D01*
X320779Y202957D01*
X320788Y202940D01*
X320792Y202920D01*
X320845Y202831D01*
X320894Y202740D01*
X320908Y202726D01*
X320918Y202709D01*
X320997Y202642D01*
X321072Y202571D01*
X321090Y202562D01*
X321105Y202549D01*
X321201Y202510D01*
X321295Y202467D01*
X321315Y202465D01*
X321333Y202457D01*
X321500Y202439D01*
X419100Y202439D01*
X419120Y202442D01*
G37*
%LPC*%
G36*
X119957Y52225D02*
X119957Y52225D01*
X115813Y53942D01*
X112642Y57113D01*
X110925Y61257D01*
X110925Y65743D01*
X112642Y69887D01*
X115813Y73058D01*
X119957Y74775D01*
X124443Y74775D01*
X127835Y73370D01*
X127948Y73343D01*
X128062Y73314D01*
X128068Y73315D01*
X128074Y73314D01*
X128191Y73325D01*
X128307Y73334D01*
X128313Y73336D01*
X128319Y73337D01*
X128426Y73384D01*
X128533Y73430D01*
X128539Y73435D01*
X128544Y73437D01*
X128557Y73449D01*
X128664Y73535D01*
X162952Y107823D01*
X164654Y109525D01*
X264655Y109525D01*
X264745Y109539D01*
X264836Y109547D01*
X264866Y109559D01*
X264898Y109564D01*
X264979Y109607D01*
X265062Y109643D01*
X265095Y109669D01*
X265115Y109680D01*
X265137Y109703D01*
X265193Y109748D01*
X303728Y148283D01*
X303781Y148357D01*
X303841Y148426D01*
X303853Y148456D01*
X303872Y148482D01*
X303899Y148569D01*
X303933Y148654D01*
X303937Y148695D01*
X303944Y148717D01*
X303943Y148750D01*
X303951Y148821D01*
X303951Y215163D01*
X303937Y215253D01*
X303929Y215344D01*
X303917Y215374D01*
X303912Y215406D01*
X303869Y215486D01*
X303833Y215570D01*
X303807Y215602D01*
X303796Y215623D01*
X303773Y215645D01*
X303728Y215701D01*
X296177Y223252D01*
X296103Y223305D01*
X296034Y223365D01*
X296004Y223377D01*
X295977Y223396D01*
X295890Y223423D01*
X295806Y223457D01*
X295765Y223461D01*
X295742Y223468D01*
X295710Y223467D01*
X295639Y223475D01*
X294086Y223475D01*
X294066Y223472D01*
X294047Y223474D01*
X293945Y223452D01*
X293843Y223436D01*
X293826Y223426D01*
X293806Y223422D01*
X293717Y223369D01*
X293626Y223320D01*
X293612Y223306D01*
X293595Y223296D01*
X293528Y223217D01*
X293456Y223142D01*
X293448Y223124D01*
X293435Y223109D01*
X293396Y223013D01*
X293353Y222919D01*
X293351Y222899D01*
X293343Y222881D01*
X293325Y222714D01*
X293325Y222618D01*
X292432Y221725D01*
X276168Y221725D01*
X275275Y222618D01*
X275275Y229382D01*
X275355Y229462D01*
X275367Y229478D01*
X275383Y229490D01*
X275439Y229577D01*
X275499Y229661D01*
X275505Y229680D01*
X275516Y229697D01*
X275541Y229798D01*
X275571Y229896D01*
X275571Y229916D01*
X275576Y229936D01*
X275568Y230039D01*
X275565Y230142D01*
X275558Y230161D01*
X275557Y230181D01*
X275516Y230276D01*
X275481Y230373D01*
X275468Y230389D01*
X275460Y230407D01*
X275355Y230538D01*
X275275Y230618D01*
X275275Y237382D01*
X275355Y237462D01*
X275367Y237478D01*
X275383Y237490D01*
X275439Y237577D01*
X275499Y237661D01*
X275505Y237680D01*
X275516Y237697D01*
X275541Y237798D01*
X275571Y237896D01*
X275571Y237916D01*
X275576Y237936D01*
X275568Y238039D01*
X275565Y238142D01*
X275558Y238161D01*
X275557Y238181D01*
X275516Y238276D01*
X275481Y238373D01*
X275468Y238389D01*
X275460Y238407D01*
X275355Y238538D01*
X275275Y238618D01*
X275275Y238714D01*
X275272Y238734D01*
X275274Y238753D01*
X275252Y238855D01*
X275236Y238957D01*
X275226Y238974D01*
X275222Y238994D01*
X275169Y239083D01*
X275120Y239174D01*
X275106Y239188D01*
X275096Y239205D01*
X275017Y239272D01*
X274942Y239344D01*
X274924Y239352D01*
X274909Y239365D01*
X274813Y239404D01*
X274719Y239447D01*
X274699Y239449D01*
X274681Y239457D01*
X274514Y239475D01*
X274295Y239475D01*
X274205Y239461D01*
X274114Y239453D01*
X274085Y239441D01*
X274053Y239436D01*
X273972Y239393D01*
X273888Y239357D01*
X273856Y239331D01*
X273835Y239320D01*
X273813Y239297D01*
X273757Y239252D01*
X271198Y236693D01*
X266802Y236693D01*
X263693Y239802D01*
X263693Y244198D01*
X266802Y247307D01*
X271198Y247307D01*
X273345Y245160D01*
X273364Y245146D01*
X273380Y245127D01*
X273464Y245074D01*
X273545Y245017D01*
X273568Y245009D01*
X273588Y244997D01*
X273685Y244973D01*
X273780Y244944D01*
X273804Y244945D01*
X273827Y244939D01*
X273926Y244948D01*
X274025Y244951D01*
X274048Y244959D01*
X274072Y244961D01*
X274163Y245001D01*
X274257Y245035D01*
X274275Y245050D01*
X274297Y245060D01*
X274371Y245126D01*
X274449Y245189D01*
X274462Y245209D01*
X274479Y245225D01*
X274528Y245312D01*
X274582Y245396D01*
X274587Y245419D01*
X274599Y245440D01*
X274617Y245538D01*
X274642Y245634D01*
X274640Y245658D01*
X274644Y245682D01*
X274630Y245780D01*
X274622Y245879D01*
X274613Y245902D01*
X274610Y245925D01*
X274542Y246079D01*
X274432Y246269D01*
X274259Y246916D01*
X274259Y248626D01*
X283687Y248626D01*
X283706Y248629D01*
X283726Y248627D01*
X283828Y248649D01*
X283930Y248665D01*
X283947Y248675D01*
X283967Y248679D01*
X284056Y248732D01*
X284147Y248781D01*
X284161Y248795D01*
X284178Y248805D01*
X284245Y248884D01*
X284299Y248941D01*
X284307Y248927D01*
X284321Y248913D01*
X284331Y248896D01*
X284410Y248829D01*
X284485Y248757D01*
X284503Y248749D01*
X284518Y248736D01*
X284615Y248697D01*
X284708Y248654D01*
X284728Y248652D01*
X284746Y248644D01*
X284913Y248626D01*
X294341Y248626D01*
X294341Y246915D01*
X294168Y246269D01*
X293833Y245690D01*
X293548Y245405D01*
X293495Y245331D01*
X293435Y245261D01*
X293423Y245231D01*
X293404Y245205D01*
X293377Y245118D01*
X293343Y245033D01*
X293339Y244992D01*
X293332Y244970D01*
X293333Y244938D01*
X293325Y244866D01*
X293325Y238618D01*
X293245Y238538D01*
X293233Y238522D01*
X293217Y238510D01*
X293161Y238422D01*
X293101Y238339D01*
X293095Y238320D01*
X293084Y238303D01*
X293059Y238202D01*
X293029Y238103D01*
X293029Y238083D01*
X293024Y238064D01*
X293032Y237961D01*
X293035Y237858D01*
X293042Y237839D01*
X293043Y237819D01*
X293084Y237724D01*
X293119Y237627D01*
X293132Y237611D01*
X293140Y237593D01*
X293245Y237462D01*
X293325Y237382D01*
X293325Y237286D01*
X293328Y237266D01*
X293326Y237247D01*
X293348Y237145D01*
X293364Y237043D01*
X293374Y237026D01*
X293378Y237006D01*
X293431Y236917D01*
X293480Y236826D01*
X293494Y236812D01*
X293504Y236795D01*
X293583Y236728D01*
X293658Y236656D01*
X293676Y236648D01*
X293691Y236635D01*
X293787Y236596D01*
X293881Y236553D01*
X293901Y236551D01*
X293919Y236543D01*
X294086Y236525D01*
X301046Y236525D01*
X312525Y225046D01*
X312525Y144954D01*
X251948Y84377D01*
X251895Y84303D01*
X251835Y84234D01*
X251823Y84204D01*
X251804Y84177D01*
X251777Y84090D01*
X251743Y84006D01*
X251739Y83965D01*
X251732Y83942D01*
X251733Y83910D01*
X251725Y83839D01*
X251725Y75167D01*
X251744Y75052D01*
X251761Y74936D01*
X251763Y74930D01*
X251764Y74924D01*
X251819Y74821D01*
X251872Y74716D01*
X251877Y74712D01*
X251880Y74706D01*
X251964Y74627D01*
X252048Y74544D01*
X252054Y74540D01*
X252058Y74537D01*
X252075Y74529D01*
X252195Y74463D01*
X255587Y73058D01*
X258758Y69887D01*
X260475Y65743D01*
X260475Y61257D01*
X258758Y57113D01*
X255587Y53942D01*
X251443Y52225D01*
X246957Y52225D01*
X242813Y53942D01*
X239642Y57113D01*
X237925Y61257D01*
X237925Y65743D01*
X239642Y69887D01*
X242813Y73058D01*
X246205Y74463D01*
X246305Y74525D01*
X246405Y74585D01*
X246409Y74590D01*
X246414Y74593D01*
X246489Y74683D01*
X246565Y74772D01*
X246567Y74778D01*
X246571Y74782D01*
X246613Y74891D01*
X246657Y75000D01*
X246658Y75007D01*
X246659Y75012D01*
X246660Y75030D01*
X246675Y75167D01*
X246675Y86246D01*
X263605Y103176D01*
X263647Y103234D01*
X263696Y103286D01*
X263718Y103333D01*
X263749Y103375D01*
X263770Y103444D01*
X263800Y103509D01*
X263806Y103561D01*
X263821Y103611D01*
X263819Y103682D01*
X263827Y103753D01*
X263816Y103804D01*
X263815Y103856D01*
X263790Y103924D01*
X263775Y103994D01*
X263748Y104039D01*
X263730Y104087D01*
X263685Y104143D01*
X263649Y104205D01*
X263609Y104239D01*
X263577Y104279D01*
X263516Y104318D01*
X263462Y104365D01*
X263413Y104384D01*
X263370Y104412D01*
X263300Y104430D01*
X263234Y104457D01*
X263162Y104465D01*
X263131Y104473D01*
X263108Y104471D01*
X263067Y104475D01*
X167061Y104475D01*
X166971Y104461D01*
X166880Y104453D01*
X166850Y104441D01*
X166818Y104436D01*
X166738Y104393D01*
X166654Y104357D01*
X166622Y104331D01*
X166601Y104320D01*
X166579Y104297D01*
X166523Y104252D01*
X132235Y69964D01*
X132167Y69870D01*
X132097Y69776D01*
X132095Y69770D01*
X132091Y69764D01*
X132057Y69654D01*
X132021Y69542D01*
X132021Y69535D01*
X132019Y69529D01*
X132022Y69413D01*
X132023Y69296D01*
X132025Y69289D01*
X132025Y69284D01*
X132032Y69266D01*
X132070Y69135D01*
X133475Y65743D01*
X133475Y61257D01*
X131758Y57113D01*
X128587Y53942D01*
X124443Y52225D01*
X119957Y52225D01*
G37*
%LPD*%
%LPC*%
G36*
X491658Y467639D02*
X491658Y467639D01*
X484623Y469524D01*
X478316Y473166D01*
X473166Y478316D01*
X469524Y484623D01*
X467639Y491658D01*
X467639Y498942D01*
X469524Y505977D01*
X473166Y512284D01*
X478316Y517434D01*
X484623Y521076D01*
X491658Y522961D01*
X498942Y522961D01*
X505977Y521076D01*
X512284Y517434D01*
X517434Y512284D01*
X521076Y505977D01*
X522961Y498942D01*
X522961Y491658D01*
X521076Y484623D01*
X517434Y478316D01*
X512284Y473166D01*
X505977Y469524D01*
X498942Y467639D01*
X491658Y467639D01*
G37*
%LPD*%
%LPC*%
G36*
X199802Y289693D02*
X199802Y289693D01*
X196693Y292802D01*
X196693Y295714D01*
X196679Y295804D01*
X196671Y295895D01*
X196659Y295925D01*
X196654Y295957D01*
X196611Y296037D01*
X196575Y296121D01*
X196549Y296153D01*
X196538Y296174D01*
X196515Y296196D01*
X196470Y296252D01*
X194975Y297747D01*
X194975Y395253D01*
X218747Y419025D01*
X283205Y419025D01*
X283295Y419039D01*
X283386Y419047D01*
X283415Y419059D01*
X283447Y419064D01*
X283528Y419107D01*
X283612Y419143D01*
X283644Y419169D01*
X283665Y419180D01*
X283687Y419203D01*
X283743Y419248D01*
X285802Y421307D01*
X290198Y421307D01*
X293307Y418198D01*
X293307Y413802D01*
X290198Y410693D01*
X285802Y410693D01*
X283743Y412752D01*
X283669Y412805D01*
X283599Y412865D01*
X283569Y412877D01*
X283543Y412896D01*
X283456Y412923D01*
X283371Y412957D01*
X283330Y412961D01*
X283308Y412968D01*
X283276Y412967D01*
X283205Y412975D01*
X221568Y412975D01*
X221478Y412961D01*
X221387Y412953D01*
X221357Y412941D01*
X221325Y412936D01*
X221245Y412893D01*
X221161Y412857D01*
X221129Y412831D01*
X221108Y412820D01*
X221086Y412797D01*
X221030Y412752D01*
X201248Y392970D01*
X201195Y392896D01*
X201135Y392827D01*
X201123Y392797D01*
X201104Y392770D01*
X201077Y392683D01*
X201043Y392599D01*
X201039Y392558D01*
X201032Y392535D01*
X201033Y392503D01*
X201025Y392432D01*
X201025Y301068D01*
X201028Y301048D01*
X201026Y301029D01*
X201048Y300927D01*
X201064Y300825D01*
X201074Y300808D01*
X201078Y300788D01*
X201131Y300699D01*
X201180Y300608D01*
X201194Y300594D01*
X201204Y300577D01*
X201283Y300510D01*
X201358Y300438D01*
X201376Y300430D01*
X201391Y300417D01*
X201487Y300378D01*
X201581Y300335D01*
X201601Y300333D01*
X201619Y300325D01*
X201786Y300307D01*
X204198Y300307D01*
X207307Y297198D01*
X207307Y292802D01*
X204198Y289693D01*
X199802Y289693D01*
G37*
%LPD*%
%LPC*%
G36*
X133068Y235975D02*
X133068Y235975D01*
X132175Y236868D01*
X132175Y240214D01*
X132172Y240234D01*
X132174Y240253D01*
X132152Y240355D01*
X132136Y240457D01*
X132126Y240474D01*
X132122Y240494D01*
X132069Y240583D01*
X132020Y240674D01*
X132006Y240688D01*
X131996Y240705D01*
X131917Y240772D01*
X131842Y240844D01*
X131824Y240852D01*
X131809Y240865D01*
X131713Y240904D01*
X131619Y240947D01*
X131599Y240949D01*
X131581Y240957D01*
X131414Y240975D01*
X127454Y240975D01*
X120475Y247954D01*
X120475Y254705D01*
X120461Y254795D01*
X120453Y254886D01*
X120441Y254915D01*
X120436Y254947D01*
X120393Y255028D01*
X120357Y255112D01*
X120331Y255144D01*
X120320Y255165D01*
X120297Y255187D01*
X120252Y255243D01*
X117693Y257802D01*
X117693Y262198D01*
X120802Y265307D01*
X125198Y265307D01*
X128307Y262198D01*
X128307Y257802D01*
X125748Y255243D01*
X125695Y255169D01*
X125635Y255099D01*
X125623Y255069D01*
X125604Y255043D01*
X125577Y254956D01*
X125543Y254871D01*
X125539Y254830D01*
X125532Y254808D01*
X125533Y254776D01*
X125525Y254705D01*
X125525Y250361D01*
X125539Y250271D01*
X125547Y250180D01*
X125559Y250150D01*
X125564Y250118D01*
X125607Y250038D01*
X125643Y249954D01*
X125669Y249922D01*
X125680Y249901D01*
X125703Y249879D01*
X125748Y249823D01*
X129323Y246248D01*
X129397Y246195D01*
X129466Y246135D01*
X129496Y246123D01*
X129523Y246104D01*
X129610Y246077D01*
X129694Y246043D01*
X129735Y246039D01*
X129758Y246032D01*
X129790Y246033D01*
X129861Y246025D01*
X131414Y246025D01*
X131434Y246028D01*
X131453Y246026D01*
X131555Y246048D01*
X131657Y246064D01*
X131674Y246074D01*
X131694Y246078D01*
X131783Y246131D01*
X131874Y246180D01*
X131888Y246194D01*
X131905Y246204D01*
X131972Y246283D01*
X132044Y246358D01*
X132052Y246376D01*
X132065Y246391D01*
X132104Y246487D01*
X132147Y246581D01*
X132149Y246601D01*
X132157Y246619D01*
X132175Y246786D01*
X132175Y250132D01*
X133068Y251025D01*
X146332Y251025D01*
X147225Y250132D01*
X147225Y236868D01*
X146332Y235975D01*
X133068Y235975D01*
G37*
%LPD*%
%LPC*%
G36*
X48557Y179225D02*
X48557Y179225D01*
X44413Y180942D01*
X41242Y184113D01*
X39525Y188257D01*
X39525Y192743D01*
X41242Y196887D01*
X44413Y200058D01*
X48557Y201775D01*
X53043Y201775D01*
X57187Y200058D01*
X60358Y196887D01*
X62075Y192743D01*
X62075Y188257D01*
X60358Y184113D01*
X57187Y180942D01*
X53043Y179225D01*
X48557Y179225D01*
G37*
%LPD*%
%LPC*%
G36*
X493057Y163425D02*
X493057Y163425D01*
X488913Y165142D01*
X485742Y168313D01*
X484025Y172457D01*
X484025Y176943D01*
X485742Y181087D01*
X488913Y184258D01*
X493057Y185975D01*
X497543Y185975D01*
X501687Y184258D01*
X504858Y181087D01*
X506575Y176943D01*
X506575Y172457D01*
X504858Y168313D01*
X501687Y165142D01*
X497543Y163425D01*
X493057Y163425D01*
G37*
%LPD*%
%LPC*%
G36*
X493057Y347425D02*
X493057Y347425D01*
X488913Y349142D01*
X485742Y352313D01*
X484025Y356457D01*
X484025Y360943D01*
X485742Y365087D01*
X488913Y368258D01*
X493057Y369975D01*
X497543Y369975D01*
X501687Y368258D01*
X504858Y365087D01*
X506575Y360943D01*
X506575Y356457D01*
X504858Y352313D01*
X501687Y349142D01*
X497543Y347425D01*
X493057Y347425D01*
G37*
%LPD*%
%LPC*%
G36*
X493057Y290425D02*
X493057Y290425D01*
X488913Y292142D01*
X485742Y295313D01*
X484025Y299457D01*
X484025Y303943D01*
X485742Y308087D01*
X488913Y311258D01*
X493057Y312975D01*
X497543Y312975D01*
X501687Y311258D01*
X504858Y308087D01*
X506575Y303943D01*
X506575Y299457D01*
X504858Y295313D01*
X501687Y292142D01*
X497543Y290425D01*
X493057Y290425D01*
G37*
%LPD*%
%LPC*%
G36*
X251757Y484025D02*
X251757Y484025D01*
X247613Y485742D01*
X244442Y488913D01*
X242725Y493057D01*
X242725Y497543D01*
X244442Y501687D01*
X247613Y504858D01*
X251757Y506575D01*
X256243Y506575D01*
X260387Y504858D01*
X263558Y501687D01*
X265275Y497543D01*
X265275Y493057D01*
X263558Y488913D01*
X260387Y485742D01*
X256243Y484025D01*
X251757Y484025D01*
G37*
%LPD*%
%LPC*%
G36*
X286757Y484025D02*
X286757Y484025D01*
X282613Y485742D01*
X279442Y488913D01*
X277725Y493057D01*
X277725Y497543D01*
X279442Y501687D01*
X282613Y504858D01*
X286757Y506575D01*
X291243Y506575D01*
X295387Y504858D01*
X298558Y501687D01*
X300275Y497543D01*
X300275Y493057D01*
X298558Y488913D01*
X295387Y485742D01*
X291243Y484025D01*
X286757Y484025D01*
G37*
%LPD*%
%LPC*%
G36*
X343757Y484025D02*
X343757Y484025D01*
X339613Y485742D01*
X336442Y488913D01*
X334725Y493057D01*
X334725Y497543D01*
X336442Y501687D01*
X339613Y504858D01*
X343757Y506575D01*
X348243Y506575D01*
X352387Y504858D01*
X355558Y501687D01*
X357275Y497543D01*
X357275Y493057D01*
X355558Y488913D01*
X352387Y485742D01*
X348243Y484025D01*
X343757Y484025D01*
G37*
%LPD*%
%LPC*%
G36*
X216757Y484025D02*
X216757Y484025D01*
X212613Y485742D01*
X209442Y488913D01*
X207725Y493057D01*
X207725Y497543D01*
X209442Y501687D01*
X212613Y504858D01*
X216757Y506575D01*
X221243Y506575D01*
X225387Y504858D01*
X228558Y501687D01*
X230275Y497543D01*
X230275Y493057D01*
X228558Y488913D01*
X225387Y485742D01*
X221243Y484025D01*
X216757Y484025D01*
G37*
%LPD*%
%LPC*%
G36*
X89757Y484025D02*
X89757Y484025D01*
X85613Y485742D01*
X82442Y488913D01*
X80725Y493057D01*
X80725Y497543D01*
X82442Y501687D01*
X85613Y504858D01*
X89757Y506575D01*
X94243Y506575D01*
X98387Y504858D01*
X101558Y501687D01*
X103275Y497543D01*
X103275Y493057D01*
X101558Y488913D01*
X98387Y485742D01*
X94243Y484025D01*
X89757Y484025D01*
G37*
%LPD*%
%LPC*%
G36*
X48557Y214225D02*
X48557Y214225D01*
X44413Y215942D01*
X41242Y219113D01*
X39525Y223257D01*
X39525Y227743D01*
X41242Y231887D01*
X44413Y235058D01*
X48557Y236775D01*
X53043Y236775D01*
X57187Y235058D01*
X60358Y231887D01*
X62075Y227743D01*
X62075Y223257D01*
X60358Y219113D01*
X57187Y215942D01*
X53043Y214225D01*
X48557Y214225D01*
G37*
%LPD*%
%LPC*%
G36*
X48557Y271225D02*
X48557Y271225D01*
X44413Y272942D01*
X41242Y276113D01*
X39525Y280257D01*
X39525Y284743D01*
X41242Y288887D01*
X44413Y292058D01*
X48557Y293775D01*
X53043Y293775D01*
X57187Y292058D01*
X60358Y288887D01*
X62075Y284743D01*
X62075Y280257D01*
X60358Y276113D01*
X57187Y272942D01*
X53043Y271225D01*
X48557Y271225D01*
G37*
%LPD*%
%LPC*%
G36*
X408957Y52225D02*
X408957Y52225D01*
X404813Y53942D01*
X401642Y57113D01*
X399925Y61257D01*
X399925Y65743D01*
X401642Y69887D01*
X404813Y73058D01*
X408957Y74775D01*
X413443Y74775D01*
X417587Y73058D01*
X420758Y69887D01*
X422475Y65743D01*
X422475Y61257D01*
X420758Y57113D01*
X417587Y53942D01*
X413443Y52225D01*
X408957Y52225D01*
G37*
%LPD*%
%LPC*%
G36*
X493057Y417425D02*
X493057Y417425D01*
X488913Y419142D01*
X485742Y422313D01*
X484025Y426457D01*
X484025Y430943D01*
X485742Y435087D01*
X488913Y438258D01*
X493057Y439975D01*
X497543Y439975D01*
X501687Y438258D01*
X504858Y435087D01*
X506575Y430943D01*
X506575Y426457D01*
X504858Y422313D01*
X501687Y419142D01*
X497543Y417425D01*
X493057Y417425D01*
G37*
%LPD*%
%LPC*%
G36*
X493057Y382425D02*
X493057Y382425D01*
X488913Y384142D01*
X485742Y387313D01*
X484025Y391457D01*
X484025Y395943D01*
X485742Y400087D01*
X488913Y403258D01*
X493057Y404975D01*
X497543Y404975D01*
X501687Y403258D01*
X504858Y400087D01*
X506575Y395943D01*
X506575Y391457D01*
X504858Y387313D01*
X501687Y384142D01*
X497543Y382425D01*
X493057Y382425D01*
G37*
%LPD*%
%LPC*%
G36*
X493057Y93425D02*
X493057Y93425D01*
X488913Y95142D01*
X485742Y98313D01*
X484025Y102457D01*
X484025Y106943D01*
X485742Y111087D01*
X488913Y114258D01*
X493057Y115975D01*
X497543Y115975D01*
X501687Y114258D01*
X504858Y111087D01*
X506575Y106943D01*
X506575Y102457D01*
X504858Y98313D01*
X501687Y95142D01*
X497543Y93425D01*
X493057Y93425D01*
G37*
%LPD*%
%LPC*%
G36*
X493057Y128425D02*
X493057Y128425D01*
X488913Y130142D01*
X485742Y133313D01*
X484025Y137457D01*
X484025Y141943D01*
X485742Y146087D01*
X488913Y149258D01*
X493057Y150975D01*
X497543Y150975D01*
X501687Y149258D01*
X504858Y146087D01*
X506575Y141943D01*
X506575Y137457D01*
X504858Y133313D01*
X501687Y130142D01*
X497543Y128425D01*
X493057Y128425D01*
G37*
%LPD*%
%LPC*%
G36*
X48557Y144225D02*
X48557Y144225D01*
X44413Y145942D01*
X41242Y149113D01*
X39525Y153257D01*
X39525Y157743D01*
X41242Y161887D01*
X44413Y165058D01*
X48557Y166775D01*
X53043Y166775D01*
X57187Y165058D01*
X60358Y161887D01*
X62075Y157743D01*
X62075Y153257D01*
X60358Y149113D01*
X57187Y145942D01*
X53043Y144225D01*
X48557Y144225D01*
G37*
%LPD*%
%LPC*%
G36*
X284293Y251073D02*
X284293Y251073D01*
X284279Y251087D01*
X284269Y251104D01*
X284190Y251171D01*
X284115Y251243D01*
X284097Y251251D01*
X284082Y251264D01*
X283985Y251303D01*
X283892Y251346D01*
X283872Y251348D01*
X283854Y251356D01*
X283687Y251374D01*
X274259Y251374D01*
X274259Y253084D01*
X274432Y253731D01*
X274542Y253921D01*
X274551Y253944D01*
X274565Y253963D01*
X274594Y254058D01*
X274629Y254151D01*
X274630Y254175D01*
X274637Y254198D01*
X274635Y254297D01*
X274638Y254397D01*
X274632Y254420D01*
X274631Y254444D01*
X274597Y254537D01*
X274569Y254633D01*
X274555Y254652D01*
X274546Y254675D01*
X274484Y254753D01*
X274427Y254834D01*
X274408Y254848D01*
X274393Y254867D01*
X274309Y254921D01*
X274229Y254980D01*
X274206Y254987D01*
X274186Y255000D01*
X274089Y255024D01*
X273995Y255055D01*
X273971Y255054D01*
X273947Y255060D01*
X273848Y255052D01*
X273749Y255051D01*
X273726Y255043D01*
X273702Y255041D01*
X273611Y255002D01*
X273517Y254969D01*
X273498Y254954D01*
X273476Y254945D01*
X273345Y254840D01*
X271198Y252693D01*
X266802Y252693D01*
X263693Y255802D01*
X263693Y260198D01*
X266802Y263307D01*
X271198Y263307D01*
X273345Y261160D01*
X273364Y261146D01*
X273380Y261127D01*
X273464Y261075D01*
X273544Y261017D01*
X273567Y261009D01*
X273588Y260997D01*
X273685Y260973D01*
X273780Y260944D01*
X273804Y260945D01*
X273827Y260939D01*
X273926Y260948D01*
X274025Y260951D01*
X274048Y260959D01*
X274072Y260961D01*
X274163Y261001D01*
X274256Y261035D01*
X274275Y261050D01*
X274297Y261060D01*
X274371Y261127D01*
X274449Y261189D01*
X274462Y261209D01*
X274479Y261225D01*
X274528Y261312D01*
X274582Y261396D01*
X274587Y261419D01*
X274599Y261440D01*
X274617Y261538D01*
X274642Y261634D01*
X274640Y261658D01*
X274644Y261682D01*
X274630Y261780D01*
X274622Y261879D01*
X274613Y261901D01*
X274610Y261925D01*
X274542Y262079D01*
X274432Y262269D01*
X274259Y262916D01*
X274259Y264626D01*
X283687Y264626D01*
X283706Y264629D01*
X283726Y264627D01*
X283828Y264649D01*
X283930Y264665D01*
X283947Y264675D01*
X283967Y264679D01*
X284056Y264732D01*
X284147Y264781D01*
X284161Y264795D01*
X284178Y264805D01*
X284245Y264884D01*
X284299Y264941D01*
X284307Y264927D01*
X284321Y264913D01*
X284331Y264896D01*
X284410Y264829D01*
X284485Y264757D01*
X284503Y264749D01*
X284518Y264736D01*
X284615Y264697D01*
X284708Y264654D01*
X284728Y264652D01*
X284746Y264644D01*
X284913Y264626D01*
X294341Y264626D01*
X294341Y262915D01*
X294168Y262269D01*
X293833Y261690D01*
X293548Y261405D01*
X293495Y261331D01*
X293435Y261261D01*
X293423Y261231D01*
X293404Y261205D01*
X293377Y261118D01*
X293343Y261033D01*
X293339Y260992D01*
X293332Y260970D01*
X293333Y260938D01*
X293325Y260866D01*
X293325Y255134D01*
X293339Y255044D01*
X293347Y254953D01*
X293359Y254923D01*
X293364Y254891D01*
X293407Y254810D01*
X293443Y254726D01*
X293469Y254694D01*
X293480Y254674D01*
X293503Y254651D01*
X293548Y254595D01*
X293833Y254310D01*
X294168Y253731D01*
X294341Y253084D01*
X294341Y251374D01*
X284913Y251374D01*
X284894Y251371D01*
X284874Y251373D01*
X284772Y251351D01*
X284670Y251335D01*
X284653Y251325D01*
X284633Y251321D01*
X284544Y251268D01*
X284453Y251219D01*
X284439Y251205D01*
X284422Y251195D01*
X284355Y251116D01*
X284301Y251059D01*
X284293Y251073D01*
G37*
%LPD*%
%LPC*%
G36*
X198293Y275073D02*
X198293Y275073D01*
X198279Y275087D01*
X198269Y275104D01*
X198190Y275171D01*
X198115Y275243D01*
X198097Y275251D01*
X198082Y275264D01*
X197985Y275303D01*
X197892Y275346D01*
X197872Y275348D01*
X197854Y275356D01*
X197687Y275374D01*
X188259Y275374D01*
X188259Y277084D01*
X188432Y277731D01*
X188780Y278333D01*
X188814Y278423D01*
X188854Y278509D01*
X188857Y278537D01*
X188867Y278563D01*
X188871Y278659D01*
X188881Y278753D01*
X188875Y278781D01*
X188876Y278809D01*
X188849Y278900D01*
X188829Y278994D01*
X188815Y279018D01*
X188807Y279045D01*
X188752Y279123D01*
X188703Y279205D01*
X188681Y279223D01*
X188665Y279246D01*
X188589Y279303D01*
X188516Y279365D01*
X188490Y279375D01*
X188467Y279392D01*
X188376Y279421D01*
X188288Y279457D01*
X188253Y279461D01*
X188233Y279467D01*
X188200Y279467D01*
X188121Y279475D01*
X184954Y279475D01*
X179475Y284954D01*
X179475Y285705D01*
X179461Y285795D01*
X179453Y285886D01*
X179441Y285915D01*
X179436Y285947D01*
X179393Y286028D01*
X179357Y286112D01*
X179331Y286144D01*
X179320Y286165D01*
X179297Y286187D01*
X179252Y286243D01*
X176693Y288802D01*
X176693Y293198D01*
X179802Y296307D01*
X184198Y296307D01*
X187307Y293198D01*
X187307Y288802D01*
X185576Y287071D01*
X185564Y287055D01*
X185549Y287042D01*
X185493Y286955D01*
X185432Y286871D01*
X185427Y286852D01*
X185416Y286836D01*
X185390Y286735D01*
X185360Y286636D01*
X185361Y286616D01*
X185356Y286597D01*
X185364Y286494D01*
X185366Y286390D01*
X185373Y286372D01*
X185375Y286352D01*
X185415Y286257D01*
X185451Y286159D01*
X185463Y286144D01*
X185471Y286125D01*
X185576Y285995D01*
X186823Y284748D01*
X186897Y284695D01*
X186966Y284635D01*
X186996Y284623D01*
X187023Y284604D01*
X187110Y284577D01*
X187194Y284543D01*
X187235Y284539D01*
X187258Y284532D01*
X187290Y284533D01*
X187361Y284525D01*
X188514Y284525D01*
X188534Y284528D01*
X188553Y284526D01*
X188655Y284548D01*
X188757Y284564D01*
X188774Y284574D01*
X188794Y284578D01*
X188883Y284631D01*
X188974Y284680D01*
X188988Y284694D01*
X189005Y284704D01*
X189072Y284783D01*
X189144Y284858D01*
X189152Y284876D01*
X189165Y284891D01*
X189204Y284987D01*
X189247Y285081D01*
X189249Y285101D01*
X189257Y285119D01*
X189275Y285286D01*
X189275Y285382D01*
X190168Y286275D01*
X206432Y286275D01*
X207325Y285382D01*
X207325Y279134D01*
X207340Y279043D01*
X207347Y278953D01*
X207359Y278923D01*
X207364Y278891D01*
X207407Y278810D01*
X207443Y278726D01*
X207469Y278694D01*
X207480Y278674D01*
X207503Y278651D01*
X207548Y278595D01*
X207833Y278310D01*
X208168Y277731D01*
X208341Y277084D01*
X208341Y275374D01*
X198913Y275374D01*
X198894Y275371D01*
X198874Y275373D01*
X198772Y275351D01*
X198670Y275335D01*
X198653Y275325D01*
X198633Y275321D01*
X198544Y275268D01*
X198453Y275219D01*
X198439Y275205D01*
X198422Y275195D01*
X198355Y275116D01*
X198301Y275059D01*
X198293Y275073D01*
G37*
%LPD*%
%LPC*%
G36*
X264875Y371825D02*
X264875Y371825D01*
X261503Y373222D01*
X258922Y375803D01*
X257525Y379175D01*
X257525Y382825D01*
X258922Y386197D01*
X261503Y388778D01*
X264875Y390175D01*
X268525Y390175D01*
X271897Y388778D01*
X274478Y386197D01*
X275875Y382825D01*
X275875Y379175D01*
X274478Y375803D01*
X271897Y373222D01*
X268525Y371825D01*
X264875Y371825D01*
G37*
%LPD*%
%LPC*%
G36*
X264875Y346425D02*
X264875Y346425D01*
X261503Y347822D01*
X258922Y350403D01*
X257525Y353775D01*
X257525Y357425D01*
X258922Y360797D01*
X261503Y363378D01*
X264875Y364775D01*
X268525Y364775D01*
X271897Y363378D01*
X274478Y360797D01*
X275875Y357425D01*
X275875Y353775D01*
X274478Y350403D01*
X271897Y347822D01*
X268525Y346425D01*
X264875Y346425D01*
G37*
%LPD*%
%LPC*%
G36*
X382523Y496823D02*
X382523Y496823D01*
X382523Y507503D01*
X383878Y507288D01*
X385718Y506690D01*
X387442Y505812D01*
X389007Y504675D01*
X390375Y503307D01*
X391512Y501742D01*
X392390Y500018D01*
X392988Y498178D01*
X393203Y496823D01*
X382523Y496823D01*
G37*
%LPD*%
%LPC*%
G36*
X128523Y496823D02*
X128523Y496823D01*
X128523Y507503D01*
X129878Y507288D01*
X131718Y506690D01*
X133442Y505812D01*
X135007Y504675D01*
X136375Y503307D01*
X137512Y501742D01*
X138390Y500018D01*
X138988Y498178D01*
X139203Y496823D01*
X128523Y496823D01*
G37*
%LPD*%
%LPC*%
G36*
X158723Y65023D02*
X158723Y65023D01*
X158723Y75703D01*
X160078Y75488D01*
X161918Y74890D01*
X163642Y74012D01*
X165207Y72875D01*
X166575Y71507D01*
X167712Y69942D01*
X168590Y68218D01*
X169188Y66378D01*
X169403Y65023D01*
X158723Y65023D01*
G37*
%LPD*%
%LPC*%
G36*
X285723Y65023D02*
X285723Y65023D01*
X285723Y75703D01*
X287078Y75488D01*
X288918Y74890D01*
X290642Y74012D01*
X292207Y72875D01*
X293575Y71507D01*
X294712Y69942D01*
X295590Y68218D01*
X296188Y66378D01*
X296403Y65023D01*
X285723Y65023D01*
G37*
%LPD*%
%LPC*%
G36*
X496823Y268223D02*
X496823Y268223D01*
X496823Y278903D01*
X498178Y278688D01*
X500018Y278090D01*
X501742Y277212D01*
X503307Y276075D01*
X504675Y274707D01*
X505812Y273142D01*
X506690Y271418D01*
X507288Y269578D01*
X507503Y268223D01*
X496823Y268223D01*
G37*
%LPD*%
%LPC*%
G36*
X52323Y319023D02*
X52323Y319023D01*
X52323Y329703D01*
X53678Y329488D01*
X55518Y328890D01*
X57242Y328012D01*
X58807Y326875D01*
X60175Y325507D01*
X61312Y323942D01*
X62190Y322218D01*
X62788Y320378D01*
X63003Y319023D01*
X52323Y319023D01*
G37*
%LPD*%
%LPC*%
G36*
X377723Y65023D02*
X377723Y65023D01*
X377723Y75703D01*
X379078Y75488D01*
X380918Y74890D01*
X382642Y74012D01*
X384207Y72875D01*
X385575Y71507D01*
X386712Y69942D01*
X387590Y68218D01*
X388188Y66378D01*
X388403Y65023D01*
X377723Y65023D01*
G37*
%LPD*%
%LPC*%
G36*
X114797Y496823D02*
X114797Y496823D01*
X115012Y498178D01*
X115610Y500018D01*
X116488Y501742D01*
X117625Y503307D01*
X118993Y504675D01*
X120558Y505812D01*
X122282Y506690D01*
X124122Y507288D01*
X125477Y507503D01*
X125477Y496823D01*
X114797Y496823D01*
G37*
%LPD*%
%LPC*%
G36*
X368797Y496823D02*
X368797Y496823D01*
X369012Y498178D01*
X369610Y500018D01*
X370488Y501742D01*
X371625Y503307D01*
X372993Y504675D01*
X374558Y505812D01*
X376282Y506690D01*
X378122Y507288D01*
X379477Y507503D01*
X379477Y496823D01*
X368797Y496823D01*
G37*
%LPD*%
%LPC*%
G36*
X128523Y493777D02*
X128523Y493777D01*
X139203Y493777D01*
X138988Y492422D01*
X138390Y490582D01*
X137512Y488858D01*
X136375Y487293D01*
X135007Y485925D01*
X133442Y484788D01*
X131718Y483910D01*
X129878Y483312D01*
X128523Y483097D01*
X128523Y493777D01*
G37*
%LPD*%
%LPC*%
G36*
X52323Y315977D02*
X52323Y315977D01*
X63003Y315977D01*
X62788Y314622D01*
X62190Y312782D01*
X61312Y311058D01*
X60175Y309493D01*
X58807Y308125D01*
X57242Y306988D01*
X55518Y306110D01*
X53678Y305512D01*
X52323Y305297D01*
X52323Y315977D01*
G37*
%LPD*%
%LPC*%
G36*
X382523Y493777D02*
X382523Y493777D01*
X393203Y493777D01*
X392988Y492422D01*
X392390Y490582D01*
X391512Y488858D01*
X390375Y487293D01*
X389007Y485925D01*
X387442Y484788D01*
X385718Y483910D01*
X383878Y483312D01*
X382523Y483097D01*
X382523Y493777D01*
G37*
%LPD*%
%LPC*%
G36*
X483097Y268223D02*
X483097Y268223D01*
X483312Y269578D01*
X483910Y271418D01*
X484788Y273142D01*
X485925Y274707D01*
X487293Y276075D01*
X488858Y277212D01*
X490582Y278090D01*
X492422Y278688D01*
X493777Y278903D01*
X493777Y268223D01*
X483097Y268223D01*
G37*
%LPD*%
%LPC*%
G36*
X38597Y319023D02*
X38597Y319023D01*
X38812Y320378D01*
X39410Y322218D01*
X40288Y323942D01*
X41425Y325507D01*
X42793Y326875D01*
X44358Y328012D01*
X46082Y328890D01*
X47922Y329488D01*
X49277Y329703D01*
X49277Y319023D01*
X38597Y319023D01*
G37*
%LPD*%
%LPC*%
G36*
X496823Y265177D02*
X496823Y265177D01*
X507503Y265177D01*
X507288Y263822D01*
X506690Y261982D01*
X505812Y260258D01*
X504675Y258693D01*
X503307Y257325D01*
X501742Y256188D01*
X500018Y255310D01*
X498178Y254712D01*
X496823Y254497D01*
X496823Y265177D01*
G37*
%LPD*%
%LPC*%
G36*
X144997Y65023D02*
X144997Y65023D01*
X145212Y66378D01*
X145810Y68218D01*
X146688Y69942D01*
X147825Y71507D01*
X149193Y72875D01*
X150758Y74012D01*
X152482Y74890D01*
X154322Y75488D01*
X155677Y75703D01*
X155677Y65023D01*
X144997Y65023D01*
G37*
%LPD*%
%LPC*%
G36*
X363997Y65023D02*
X363997Y65023D01*
X364212Y66378D01*
X364810Y68218D01*
X365688Y69942D01*
X366825Y71507D01*
X368193Y72875D01*
X369758Y74012D01*
X371482Y74890D01*
X373322Y75488D01*
X374677Y75703D01*
X374677Y65023D01*
X363997Y65023D01*
G37*
%LPD*%
%LPC*%
G36*
X271997Y65023D02*
X271997Y65023D01*
X272212Y66378D01*
X272810Y68218D01*
X273688Y69942D01*
X274825Y71507D01*
X276193Y72875D01*
X277758Y74012D01*
X279482Y74890D01*
X281322Y75488D01*
X282677Y75703D01*
X282677Y65023D01*
X271997Y65023D01*
G37*
%LPD*%
%LPC*%
G36*
X377723Y61977D02*
X377723Y61977D01*
X388403Y61977D01*
X388188Y60622D01*
X387590Y58782D01*
X386712Y57058D01*
X385575Y55493D01*
X384207Y54125D01*
X382642Y52988D01*
X380918Y52110D01*
X379078Y51512D01*
X377723Y51297D01*
X377723Y61977D01*
G37*
%LPD*%
%LPC*%
G36*
X285723Y61977D02*
X285723Y61977D01*
X296403Y61977D01*
X296188Y60622D01*
X295590Y58782D01*
X294712Y57058D01*
X293575Y55493D01*
X292207Y54125D01*
X290642Y52988D01*
X288918Y52110D01*
X287078Y51512D01*
X285723Y51297D01*
X285723Y61977D01*
G37*
%LPD*%
%LPC*%
G36*
X158723Y61977D02*
X158723Y61977D01*
X169403Y61977D01*
X169188Y60622D01*
X168590Y58782D01*
X167712Y57058D01*
X166575Y55493D01*
X165207Y54125D01*
X163642Y52988D01*
X161918Y52110D01*
X160078Y51512D01*
X158723Y51297D01*
X158723Y61977D01*
G37*
%LPD*%
%LPC*%
G36*
X47922Y305512D02*
X47922Y305512D01*
X46082Y306110D01*
X44358Y306988D01*
X42793Y308125D01*
X41425Y309493D01*
X40288Y311058D01*
X39410Y312782D01*
X38812Y314622D01*
X38597Y315977D01*
X49277Y315977D01*
X49277Y305297D01*
X47922Y305512D01*
G37*
%LPD*%
%LPC*%
G36*
X154322Y51512D02*
X154322Y51512D01*
X152482Y52110D01*
X150758Y52988D01*
X149193Y54125D01*
X147825Y55493D01*
X146688Y57058D01*
X145810Y58782D01*
X145212Y60622D01*
X144997Y61977D01*
X155677Y61977D01*
X155677Y51297D01*
X154322Y51512D01*
G37*
%LPD*%
%LPC*%
G36*
X492422Y254712D02*
X492422Y254712D01*
X490582Y255310D01*
X488858Y256188D01*
X487293Y257325D01*
X485925Y258693D01*
X484788Y260258D01*
X483910Y261982D01*
X483312Y263822D01*
X483097Y265177D01*
X493777Y265177D01*
X493777Y254497D01*
X492422Y254712D01*
G37*
%LPD*%
%LPC*%
G36*
X373322Y51512D02*
X373322Y51512D01*
X371482Y52110D01*
X369758Y52988D01*
X368193Y54125D01*
X366825Y55493D01*
X365688Y57058D01*
X364810Y58782D01*
X364212Y60622D01*
X363997Y61977D01*
X374677Y61977D01*
X374677Y51297D01*
X373322Y51512D01*
G37*
%LPD*%
%LPC*%
G36*
X378122Y483312D02*
X378122Y483312D01*
X376282Y483910D01*
X374558Y484788D01*
X372993Y485925D01*
X371625Y487293D01*
X370488Y488858D01*
X369610Y490582D01*
X369012Y492422D01*
X368797Y493777D01*
X379477Y493777D01*
X379477Y483097D01*
X378122Y483312D01*
G37*
%LPD*%
%LPC*%
G36*
X281322Y51512D02*
X281322Y51512D01*
X279482Y52110D01*
X277758Y52988D01*
X276193Y54125D01*
X274825Y55493D01*
X273688Y57058D01*
X272810Y58782D01*
X272212Y60622D01*
X271997Y61977D01*
X282677Y61977D01*
X282677Y51297D01*
X281322Y51512D01*
G37*
%LPD*%
%LPC*%
G36*
X124122Y483312D02*
X124122Y483312D01*
X122282Y483910D01*
X120558Y484788D01*
X118993Y485925D01*
X117625Y487293D01*
X116488Y488858D01*
X115610Y490582D01*
X115012Y492422D01*
X114797Y493777D01*
X125477Y493777D01*
X125477Y483097D01*
X124122Y483312D01*
G37*
%LPD*%
%LPC*%
G36*
X233323Y166623D02*
X233323Y166623D01*
X233323Y175641D01*
X238634Y175641D01*
X239281Y175468D01*
X239860Y175133D01*
X240333Y174660D01*
X240668Y174081D01*
X240841Y173434D01*
X240841Y166623D01*
X233323Y166623D01*
G37*
%LPD*%
%LPC*%
G36*
X233323Y154559D02*
X233323Y154559D01*
X233323Y163577D01*
X240841Y163577D01*
X240841Y156766D01*
X240668Y156119D01*
X240333Y155540D01*
X239860Y155067D01*
X239281Y154732D01*
X238634Y154559D01*
X233323Y154559D01*
G37*
%LPD*%
%LPC*%
G36*
X222759Y166623D02*
X222759Y166623D01*
X222759Y173434D01*
X222932Y174081D01*
X223267Y174660D01*
X223740Y175133D01*
X224319Y175468D01*
X224966Y175641D01*
X230277Y175641D01*
X230277Y166623D01*
X222759Y166623D01*
G37*
%LPD*%
%LPC*%
G36*
X224966Y154559D02*
X224966Y154559D01*
X224319Y154732D01*
X223740Y155067D01*
X223267Y155540D01*
X222932Y156119D01*
X222759Y156766D01*
X222759Y163577D01*
X230277Y163577D01*
X230277Y154559D01*
X224966Y154559D01*
G37*
%LPD*%
%LPC*%
G36*
X358823Y237023D02*
X358823Y237023D01*
X358823Y246041D01*
X363884Y246041D01*
X364531Y245868D01*
X365110Y245533D01*
X365583Y245060D01*
X365918Y244481D01*
X366091Y243834D01*
X366091Y237023D01*
X358823Y237023D01*
G37*
%LPD*%
%LPC*%
G36*
X380823Y274023D02*
X380823Y274023D01*
X380823Y283041D01*
X385884Y283041D01*
X386531Y282868D01*
X387110Y282533D01*
X387583Y282060D01*
X387918Y281481D01*
X388091Y280834D01*
X388091Y274023D01*
X380823Y274023D01*
G37*
%LPD*%
%LPC*%
G36*
X358823Y224959D02*
X358823Y224959D01*
X358823Y233977D01*
X366091Y233977D01*
X366091Y227166D01*
X365918Y226519D01*
X365583Y225940D01*
X365110Y225467D01*
X364531Y225132D01*
X363884Y224959D01*
X358823Y224959D01*
G37*
%LPD*%
%LPC*%
G36*
X380823Y261959D02*
X380823Y261959D01*
X380823Y270977D01*
X388091Y270977D01*
X388091Y264166D01*
X387918Y263519D01*
X387583Y262940D01*
X387110Y262467D01*
X386531Y262132D01*
X385884Y261959D01*
X380823Y261959D01*
G37*
%LPD*%
%LPC*%
G36*
X348509Y237023D02*
X348509Y237023D01*
X348509Y243834D01*
X348682Y244481D01*
X349017Y245060D01*
X349490Y245533D01*
X350069Y245868D01*
X350716Y246041D01*
X355777Y246041D01*
X355777Y237023D01*
X348509Y237023D01*
G37*
%LPD*%
%LPC*%
G36*
X370509Y274023D02*
X370509Y274023D01*
X370509Y280834D01*
X370682Y281481D01*
X371017Y282060D01*
X371490Y282533D01*
X372069Y282868D01*
X372716Y283041D01*
X377777Y283041D01*
X377777Y274023D01*
X370509Y274023D01*
G37*
%LPD*%
%LPC*%
G36*
X350716Y224959D02*
X350716Y224959D01*
X350069Y225132D01*
X349490Y225467D01*
X349017Y225940D01*
X348682Y226519D01*
X348509Y227166D01*
X348509Y233977D01*
X355777Y233977D01*
X355777Y224959D01*
X350716Y224959D01*
G37*
%LPD*%
%LPC*%
G36*
X372716Y261959D02*
X372716Y261959D01*
X372069Y262132D01*
X371490Y262467D01*
X371017Y262940D01*
X370682Y263519D01*
X370509Y264166D01*
X370509Y270977D01*
X377777Y270977D01*
X377777Y261959D01*
X372716Y261959D01*
G37*
%LPD*%
%LPC*%
G36*
X335713Y291193D02*
X335713Y291193D01*
X335713Y298711D01*
X342024Y298711D01*
X342671Y298538D01*
X343250Y298203D01*
X343723Y297730D01*
X344058Y297151D01*
X344231Y296504D01*
X344231Y291193D01*
X335713Y291193D01*
G37*
%LPD*%
%LPC*%
G36*
X324149Y291193D02*
X324149Y291193D01*
X324149Y296504D01*
X324322Y297151D01*
X324657Y297730D01*
X325130Y298203D01*
X325709Y298538D01*
X326356Y298711D01*
X332667Y298711D01*
X332667Y291193D01*
X324149Y291193D01*
G37*
%LPD*%
%LPC*%
G36*
X404113Y209789D02*
X404113Y209789D01*
X404113Y217307D01*
X412631Y217307D01*
X412631Y211996D01*
X412458Y211349D01*
X412123Y210770D01*
X411650Y210297D01*
X411071Y209962D01*
X410424Y209789D01*
X404113Y209789D01*
G37*
%LPD*%
%LPC*%
G36*
X394756Y209789D02*
X394756Y209789D01*
X394109Y209962D01*
X393530Y210297D01*
X393057Y210770D01*
X392722Y211349D01*
X392549Y211996D01*
X392549Y217307D01*
X401067Y217307D01*
X401067Y209789D01*
X394756Y209789D01*
G37*
%LPD*%
%LPC*%
G36*
X217423Y382523D02*
X217423Y382523D01*
X217423Y391077D01*
X218286Y390940D01*
X219812Y390444D01*
X221241Y389716D01*
X222539Y388773D01*
X223673Y387639D01*
X224616Y386341D01*
X225344Y384912D01*
X225840Y383386D01*
X225977Y382523D01*
X217423Y382523D01*
G37*
%LPD*%
%LPC*%
G36*
X217423Y379477D02*
X217423Y379477D01*
X225977Y379477D01*
X225840Y378614D01*
X225344Y377088D01*
X224616Y375659D01*
X223673Y374361D01*
X222539Y373227D01*
X221241Y372284D01*
X219812Y371556D01*
X218286Y371060D01*
X217423Y370923D01*
X217423Y379477D01*
G37*
%LPD*%
%LPC*%
G36*
X205823Y382523D02*
X205823Y382523D01*
X205960Y383386D01*
X206456Y384912D01*
X207184Y386341D01*
X208127Y387639D01*
X209261Y388773D01*
X210559Y389716D01*
X211988Y390444D01*
X213514Y390940D01*
X214377Y391077D01*
X214377Y382523D01*
X205823Y382523D01*
G37*
%LPD*%
%LPC*%
G36*
X213514Y371060D02*
X213514Y371060D01*
X211988Y371556D01*
X210559Y372284D01*
X209261Y373227D01*
X208127Y374361D01*
X207184Y375659D01*
X206456Y377088D01*
X205960Y378614D01*
X205823Y379477D01*
X214377Y379477D01*
X214377Y370923D01*
X213514Y371060D01*
G37*
%LPD*%
%LPC*%
G36*
X141223Y266023D02*
X141223Y266023D01*
X141223Y273041D01*
X146034Y273041D01*
X146681Y272868D01*
X147260Y272533D01*
X147733Y272060D01*
X148068Y271481D01*
X148241Y270834D01*
X148241Y266023D01*
X141223Y266023D01*
G37*
%LPD*%
%LPC*%
G36*
X131159Y266023D02*
X131159Y266023D01*
X131159Y270834D01*
X131332Y271481D01*
X131667Y272060D01*
X132140Y272533D01*
X132719Y272868D01*
X133366Y273041D01*
X138177Y273041D01*
X138177Y266023D01*
X131159Y266023D01*
G37*
%LPD*%
%LPC*%
G36*
X141223Y255959D02*
X141223Y255959D01*
X141223Y262977D01*
X148241Y262977D01*
X148241Y258166D01*
X148068Y257519D01*
X147733Y256940D01*
X147260Y256467D01*
X146681Y256132D01*
X146034Y255959D01*
X141223Y255959D01*
G37*
%LPD*%
%LPC*%
G36*
X133366Y255959D02*
X133366Y255959D01*
X132719Y256132D01*
X132140Y256467D01*
X131667Y256940D01*
X131332Y257519D01*
X131159Y258166D01*
X131159Y262977D01*
X138177Y262977D01*
X138177Y255959D01*
X133366Y255959D01*
G37*
%LPD*%
%LPC*%
G36*
X126999Y495299D02*
X126999Y495299D01*
X126999Y495301D01*
X127001Y495301D01*
X127001Y495299D01*
X126999Y495299D01*
G37*
%LPD*%
%LPC*%
G36*
X380999Y495299D02*
X380999Y495299D01*
X380999Y495301D01*
X381001Y495301D01*
X381001Y495299D01*
X380999Y495299D01*
G37*
%LPD*%
%LPC*%
G36*
X215899Y380999D02*
X215899Y380999D01*
X215899Y381001D01*
X215901Y381001D01*
X215901Y380999D01*
X215899Y380999D01*
G37*
%LPD*%
%LPC*%
G36*
X495299Y266699D02*
X495299Y266699D01*
X495299Y266701D01*
X495301Y266701D01*
X495301Y266699D01*
X495299Y266699D01*
G37*
%LPD*%
%LPC*%
G36*
X376199Y63499D02*
X376199Y63499D01*
X376199Y63501D01*
X376201Y63501D01*
X376201Y63499D01*
X376199Y63499D01*
G37*
%LPD*%
%LPC*%
G36*
X284199Y63499D02*
X284199Y63499D01*
X284199Y63501D01*
X284201Y63501D01*
X284201Y63499D01*
X284199Y63499D01*
G37*
%LPD*%
%LPC*%
G36*
X157199Y63499D02*
X157199Y63499D01*
X157199Y63501D01*
X157201Y63501D01*
X157201Y63499D01*
X157199Y63499D01*
G37*
%LPD*%
%LPC*%
G36*
X50799Y317499D02*
X50799Y317499D01*
X50799Y317501D01*
X50801Y317501D01*
X50801Y317499D01*
X50799Y317499D01*
G37*
%LPD*%
%LPC*%
G36*
X231799Y165099D02*
X231799Y165099D01*
X231799Y165101D01*
X231801Y165101D01*
X231801Y165099D01*
X231799Y165099D01*
G37*
%LPD*%
%LPC*%
G36*
X379299Y272499D02*
X379299Y272499D01*
X379299Y272501D01*
X379301Y272501D01*
X379301Y272499D01*
X379299Y272499D01*
G37*
%LPD*%
%LPC*%
G36*
X357299Y235499D02*
X357299Y235499D01*
X357299Y235501D01*
X357301Y235501D01*
X357301Y235499D01*
X357299Y235499D01*
G37*
%LPD*%
%LPC*%
G36*
X139699Y264499D02*
X139699Y264499D01*
X139699Y264501D01*
X139701Y264501D01*
X139701Y264499D01*
X139699Y264499D01*
G37*
%LPD*%
D10*
X402590Y218830D03*
X402590Y235830D03*
X334190Y289670D03*
X334190Y272670D03*
D11*
X215900Y355600D03*
D12*
X215900Y381000D03*
X241300Y355600D03*
X241300Y381000D03*
X266700Y355600D03*
X266700Y381000D03*
D13*
X411200Y63500D03*
X376200Y63500D03*
X495300Y139700D03*
X495300Y104700D03*
X495300Y174700D03*
X495300Y393700D03*
X495300Y358700D03*
X495300Y428700D03*
X254000Y495300D03*
X289000Y495300D03*
X219000Y495300D03*
X50800Y190500D03*
X50800Y225500D03*
X50800Y155500D03*
D14*
X231800Y165100D03*
X250800Y165100D03*
D15*
X139700Y243500D03*
X139700Y264500D03*
D13*
X495300Y266700D03*
X495300Y231700D03*
X495300Y301700D03*
X381000Y495300D03*
X416000Y495300D03*
X346000Y495300D03*
X127000Y495300D03*
X162000Y495300D03*
X92000Y495300D03*
X50800Y317500D03*
X50800Y352500D03*
X50800Y282500D03*
X157200Y63500D03*
X122200Y63500D03*
X284200Y63500D03*
X249200Y63500D03*
D16*
X284300Y226000D03*
X284300Y234000D03*
X284300Y242000D03*
X284300Y250000D03*
X284300Y258000D03*
X284300Y266000D03*
X284300Y274000D03*
X284300Y282000D03*
D17*
X269300Y297000D03*
X261300Y297000D03*
X253300Y297000D03*
X245300Y297000D03*
X237300Y297000D03*
X229300Y297000D03*
X221300Y297000D03*
X213300Y297000D03*
D16*
X198300Y282000D03*
X198300Y274000D03*
X198300Y266000D03*
X198300Y258000D03*
X198300Y250000D03*
X198300Y242000D03*
X198300Y234000D03*
X198300Y226000D03*
D17*
X213300Y211000D03*
X221300Y211000D03*
X229300Y211000D03*
X237300Y211000D03*
X245300Y211000D03*
X253300Y211000D03*
X261300Y211000D03*
X269300Y211000D03*
D18*
X379300Y235500D03*
X379300Y272500D03*
X357300Y272500D03*
X357300Y235500D03*
D19*
X290000Y204000D03*
X154000Y244000D03*
D20*
X402590Y218830D02*
X425830Y218830D01*
X426000Y219000D01*
D19*
X426000Y219000D03*
D20*
X284300Y242000D02*
X269000Y242000D01*
D19*
X269000Y242000D03*
D20*
X269000Y258000D02*
X284300Y258000D01*
D19*
X269000Y258000D03*
D20*
X213000Y250000D02*
X198300Y250000D01*
D19*
X213000Y250000D03*
D20*
X245300Y211000D02*
X245300Y180600D01*
X250800Y175100D02*
X250800Y165100D01*
X250800Y175100D02*
X245300Y180600D01*
X245300Y211000D02*
X245300Y225900D01*
D19*
X245300Y225900D03*
D20*
X334360Y272500D02*
X357300Y272500D01*
X334360Y272500D02*
X334190Y272670D01*
X321330Y272670D01*
X312000Y282000D01*
X284300Y282000D01*
X379630Y235830D02*
X402590Y235830D01*
X379630Y235830D02*
X379300Y235500D01*
X379300Y238500D01*
X360800Y257000D01*
X321000Y257000D01*
X304000Y274000D01*
X284300Y274000D01*
D19*
X182000Y258000D03*
D20*
X198300Y258000D01*
X213300Y297000D02*
X213300Y353000D01*
X215900Y355600D01*
X198300Y282000D02*
X186000Y282000D01*
X182000Y286000D02*
X182000Y291000D01*
D19*
X182000Y291000D03*
D20*
X182000Y286000D02*
X186000Y282000D01*
X221300Y297000D02*
X221300Y335300D01*
X228600Y368300D02*
X241300Y381000D01*
X228600Y342600D02*
X221300Y335300D01*
X228600Y342600D02*
X228600Y368300D01*
D21*
X269300Y315300D02*
X269300Y297000D01*
X288000Y334000D02*
X331000Y334000D01*
X333000Y334000D01*
X416000Y417000D01*
X416000Y495300D01*
X288000Y334000D02*
X269300Y315300D01*
X333000Y334000D02*
X407000Y334000D01*
X442000Y299000D02*
X442000Y256000D01*
X466300Y231700D01*
X495300Y231700D01*
X442000Y299000D02*
X407000Y334000D01*
X261300Y320700D02*
X261300Y297000D01*
X261300Y320700D02*
X261000Y321000D01*
X292000Y440000D02*
X189000Y440000D01*
X187000Y440000D01*
X162000Y465000D01*
X162000Y495300D01*
X302000Y362000D02*
X261000Y321000D01*
X302000Y362000D02*
X302000Y430000D01*
X292000Y440000D01*
X187000Y440000D02*
X138300Y440000D01*
X50800Y352500D01*
D20*
X284300Y234000D02*
X300000Y234000D01*
X249200Y85200D02*
X249200Y63500D01*
X310000Y224000D02*
X300000Y234000D01*
X310000Y224000D02*
X310000Y146000D01*
X249200Y85200D01*
X284300Y226000D02*
X297000Y226000D01*
X306476Y216524D02*
X306476Y147460D01*
X266016Y107000D01*
X165700Y107000D02*
X122200Y63500D01*
X297000Y226000D02*
X306476Y216524D01*
X266016Y107000D02*
X165700Y107000D01*
X183000Y234000D02*
X198300Y234000D01*
X183000Y234000D02*
X173000Y224000D01*
X173000Y158000D01*
X202000Y129000D02*
X270000Y129000D01*
D19*
X270000Y129000D03*
D20*
X202000Y129000D02*
X173000Y158000D01*
D21*
X212476Y151126D02*
X219126Y144476D01*
X260874Y144476D01*
X213300Y196000D02*
X213300Y211000D01*
X213300Y196000D02*
X212476Y195176D01*
X212476Y151126D01*
X267398Y151000D02*
X277000Y151000D01*
D19*
X277000Y151000D03*
D21*
X267398Y151000D02*
X260874Y144476D01*
D20*
X198300Y226000D02*
X183000Y226000D01*
X176524Y219524D01*
X176524Y159460D01*
X203460Y132524D01*
X261524Y132524D02*
X270000Y141000D01*
D19*
X270000Y141000D03*
D20*
X261524Y132524D02*
X203460Y132524D01*
D21*
X221300Y181300D02*
X221300Y211000D01*
X217000Y177000D02*
X217000Y153000D01*
X221000Y149000D01*
X273000Y163000D02*
X277000Y163000D01*
D19*
X277000Y163000D03*
D21*
X221300Y181300D02*
X217000Y177000D01*
X221000Y149000D02*
X259000Y149000D01*
X273000Y163000D01*
X246288Y296012D02*
X245300Y297000D01*
X246288Y296012D02*
X246288Y282100D01*
D19*
X246288Y282100D03*
D21*
X237300Y282200D02*
X237300Y297000D01*
X237300Y282200D02*
X237200Y282100D01*
D19*
X237200Y282100D03*
D21*
X237300Y251700D02*
X237300Y211000D01*
X227000Y262000D02*
X227000Y276000D01*
D19*
X227000Y276000D03*
D21*
X227000Y262000D02*
X237300Y251700D01*
X229300Y248700D02*
X229300Y211000D01*
X217000Y261000D02*
X217000Y276000D01*
D19*
X217000Y276000D03*
X202000Y295000D03*
D21*
X198000Y299000D02*
X198000Y394000D01*
X198000Y299000D02*
X202000Y295000D01*
X198000Y394000D02*
X220000Y416000D01*
X288000Y416000D01*
D19*
X288000Y416000D03*
D21*
X217000Y261000D02*
X229300Y248700D01*
D20*
X139700Y243500D02*
X128500Y243500D01*
X123000Y249000D02*
X123000Y260000D01*
D19*
X123000Y260000D03*
D20*
X123000Y249000D02*
X128500Y243500D01*
M02*
