G04 EAGLE Gerber RS-274X export*
G75*
%MOMM*%
%FSLAX34Y34*%
%LPD*%
%INSilkscreen Top*%
%IPPOS*%
%AMOC8*
5,1,8,0,0,1.08239X$1,22.5*%
G01*
%ADD10C,0.101600*%
%ADD11C,0.127000*%
%ADD12C,0.400000*%
%ADD13C,0.025400*%
%ADD14C,0.152400*%
%ADD15C,0.508000*%
%ADD16C,0.200000*%


D10*
X428752Y224141D02*
X428752Y221544D01*
X428750Y221445D01*
X428744Y221345D01*
X428735Y221246D01*
X428722Y221148D01*
X428705Y221050D01*
X428684Y220952D01*
X428659Y220856D01*
X428631Y220761D01*
X428599Y220667D01*
X428564Y220574D01*
X428525Y220482D01*
X428482Y220392D01*
X428437Y220304D01*
X428387Y220217D01*
X428335Y220133D01*
X428279Y220050D01*
X428221Y219970D01*
X428159Y219892D01*
X428094Y219817D01*
X428026Y219744D01*
X427956Y219674D01*
X427883Y219606D01*
X427808Y219541D01*
X427730Y219479D01*
X427650Y219421D01*
X427567Y219365D01*
X427483Y219313D01*
X427396Y219263D01*
X427308Y219218D01*
X427218Y219175D01*
X427126Y219136D01*
X427033Y219101D01*
X426939Y219069D01*
X426844Y219041D01*
X426748Y219016D01*
X426650Y218995D01*
X426552Y218978D01*
X426454Y218965D01*
X426355Y218956D01*
X426255Y218950D01*
X426156Y218948D01*
X419664Y218948D01*
X419565Y218950D01*
X419465Y218956D01*
X419366Y218965D01*
X419268Y218978D01*
X419170Y218996D01*
X419072Y219016D01*
X418976Y219041D01*
X418880Y219069D01*
X418786Y219101D01*
X418693Y219136D01*
X418602Y219175D01*
X418512Y219218D01*
X418423Y219263D01*
X418337Y219313D01*
X418252Y219365D01*
X418170Y219421D01*
X418090Y219480D01*
X418012Y219541D01*
X417936Y219606D01*
X417863Y219674D01*
X417793Y219744D01*
X417725Y219817D01*
X417660Y219893D01*
X417599Y219971D01*
X417540Y220051D01*
X417484Y220133D01*
X417432Y220218D01*
X417383Y220304D01*
X417337Y220393D01*
X417294Y220483D01*
X417255Y220574D01*
X417220Y220667D01*
X417188Y220761D01*
X417160Y220857D01*
X417135Y220953D01*
X417115Y221051D01*
X417097Y221149D01*
X417084Y221247D01*
X417075Y221346D01*
X417069Y221445D01*
X417067Y221545D01*
X417068Y221544D02*
X417068Y224141D01*
X428752Y228506D02*
X428752Y231752D01*
X428750Y231865D01*
X428744Y231978D01*
X428734Y232091D01*
X428720Y232204D01*
X428703Y232316D01*
X428681Y232427D01*
X428656Y232537D01*
X428626Y232647D01*
X428593Y232755D01*
X428556Y232862D01*
X428516Y232968D01*
X428471Y233072D01*
X428423Y233175D01*
X428372Y233276D01*
X428317Y233375D01*
X428259Y233472D01*
X428197Y233567D01*
X428132Y233660D01*
X428064Y233750D01*
X427993Y233838D01*
X427918Y233924D01*
X427841Y234007D01*
X427761Y234087D01*
X427678Y234164D01*
X427592Y234239D01*
X427504Y234310D01*
X427414Y234378D01*
X427321Y234443D01*
X427226Y234505D01*
X427129Y234563D01*
X427030Y234618D01*
X426929Y234669D01*
X426826Y234717D01*
X426722Y234762D01*
X426616Y234802D01*
X426509Y234839D01*
X426401Y234872D01*
X426291Y234902D01*
X426181Y234927D01*
X426070Y234949D01*
X425958Y234966D01*
X425845Y234980D01*
X425732Y234990D01*
X425619Y234996D01*
X425506Y234998D01*
X425393Y234996D01*
X425280Y234990D01*
X425167Y234980D01*
X425054Y234966D01*
X424942Y234949D01*
X424831Y234927D01*
X424721Y234902D01*
X424611Y234872D01*
X424503Y234839D01*
X424396Y234802D01*
X424290Y234762D01*
X424186Y234717D01*
X424083Y234669D01*
X423982Y234618D01*
X423883Y234563D01*
X423786Y234505D01*
X423691Y234443D01*
X423598Y234378D01*
X423508Y234310D01*
X423420Y234239D01*
X423334Y234164D01*
X423251Y234087D01*
X423171Y234007D01*
X423094Y233924D01*
X423019Y233838D01*
X422948Y233750D01*
X422880Y233660D01*
X422815Y233567D01*
X422753Y233472D01*
X422695Y233375D01*
X422640Y233276D01*
X422589Y233175D01*
X422541Y233072D01*
X422496Y232968D01*
X422456Y232862D01*
X422419Y232755D01*
X422386Y232647D01*
X422356Y232537D01*
X422331Y232427D01*
X422309Y232316D01*
X422292Y232204D01*
X422278Y232091D01*
X422268Y231978D01*
X422262Y231865D01*
X422260Y231752D01*
X417068Y232401D02*
X417068Y228506D01*
X417068Y232401D02*
X417070Y232502D01*
X417076Y232602D01*
X417086Y232702D01*
X417099Y232802D01*
X417117Y232901D01*
X417138Y233000D01*
X417163Y233097D01*
X417192Y233194D01*
X417225Y233289D01*
X417261Y233383D01*
X417301Y233475D01*
X417344Y233566D01*
X417391Y233655D01*
X417441Y233742D01*
X417495Y233828D01*
X417552Y233911D01*
X417612Y233991D01*
X417675Y234070D01*
X417742Y234146D01*
X417811Y234219D01*
X417883Y234289D01*
X417957Y234357D01*
X418034Y234422D01*
X418114Y234483D01*
X418196Y234542D01*
X418280Y234597D01*
X418366Y234649D01*
X418454Y234698D01*
X418544Y234743D01*
X418636Y234785D01*
X418729Y234823D01*
X418824Y234857D01*
X418919Y234888D01*
X419016Y234915D01*
X419114Y234938D01*
X419213Y234958D01*
X419313Y234973D01*
X419413Y234985D01*
X419513Y234993D01*
X419614Y234997D01*
X419714Y234997D01*
X419815Y234993D01*
X419915Y234985D01*
X420015Y234973D01*
X420115Y234958D01*
X420214Y234938D01*
X420312Y234915D01*
X420409Y234888D01*
X420504Y234857D01*
X420599Y234823D01*
X420692Y234785D01*
X420784Y234743D01*
X420874Y234698D01*
X420962Y234649D01*
X421048Y234597D01*
X421132Y234542D01*
X421214Y234483D01*
X421294Y234422D01*
X421371Y234357D01*
X421445Y234289D01*
X421517Y234219D01*
X421586Y234146D01*
X421653Y234070D01*
X421716Y233991D01*
X421776Y233911D01*
X421833Y233828D01*
X421887Y233742D01*
X421937Y233655D01*
X421984Y233566D01*
X422027Y233475D01*
X422067Y233383D01*
X422103Y233289D01*
X422136Y233194D01*
X422165Y233097D01*
X422190Y233000D01*
X422211Y232901D01*
X422229Y232802D01*
X422242Y232702D01*
X422252Y232602D01*
X422258Y232502D01*
X422260Y232401D01*
X422261Y232401D02*
X422261Y229804D01*
X322252Y277369D02*
X322252Y279966D01*
X322252Y277369D02*
X322250Y277270D01*
X322244Y277170D01*
X322235Y277071D01*
X322222Y276973D01*
X322205Y276875D01*
X322184Y276777D01*
X322159Y276681D01*
X322131Y276586D01*
X322099Y276492D01*
X322064Y276399D01*
X322025Y276307D01*
X321982Y276217D01*
X321937Y276129D01*
X321887Y276042D01*
X321835Y275958D01*
X321779Y275875D01*
X321721Y275795D01*
X321659Y275717D01*
X321594Y275642D01*
X321526Y275569D01*
X321456Y275499D01*
X321383Y275431D01*
X321308Y275366D01*
X321230Y275304D01*
X321150Y275246D01*
X321067Y275190D01*
X320983Y275138D01*
X320896Y275088D01*
X320808Y275043D01*
X320718Y275000D01*
X320626Y274961D01*
X320533Y274926D01*
X320439Y274894D01*
X320344Y274866D01*
X320248Y274841D01*
X320150Y274820D01*
X320052Y274803D01*
X319954Y274790D01*
X319855Y274781D01*
X319755Y274775D01*
X319656Y274773D01*
X313164Y274773D01*
X313164Y274772D02*
X313065Y274774D01*
X312965Y274780D01*
X312866Y274789D01*
X312768Y274802D01*
X312670Y274820D01*
X312572Y274840D01*
X312476Y274865D01*
X312380Y274893D01*
X312286Y274925D01*
X312193Y274960D01*
X312102Y274999D01*
X312012Y275042D01*
X311923Y275087D01*
X311837Y275137D01*
X311752Y275189D01*
X311670Y275245D01*
X311590Y275304D01*
X311512Y275365D01*
X311436Y275430D01*
X311363Y275498D01*
X311293Y275568D01*
X311225Y275641D01*
X311160Y275717D01*
X311099Y275795D01*
X311040Y275875D01*
X310984Y275957D01*
X310932Y276042D01*
X310883Y276128D01*
X310837Y276217D01*
X310794Y276307D01*
X310755Y276398D01*
X310720Y276491D01*
X310688Y276585D01*
X310660Y276681D01*
X310635Y276777D01*
X310615Y276875D01*
X310597Y276973D01*
X310584Y277071D01*
X310575Y277170D01*
X310569Y277269D01*
X310567Y277369D01*
X310568Y277369D02*
X310568Y279966D01*
X310568Y286927D02*
X319656Y284331D01*
X319656Y290822D01*
X317059Y288875D02*
X322252Y288875D01*
D11*
X279400Y344150D02*
X203200Y344150D01*
X279400Y344150D02*
X279400Y392450D01*
X203200Y392450D01*
X203200Y344150D01*
D12*
X193900Y355600D02*
X193902Y355689D01*
X193908Y355778D01*
X193918Y355867D01*
X193932Y355955D01*
X193949Y356042D01*
X193971Y356128D01*
X193997Y356214D01*
X194026Y356298D01*
X194059Y356381D01*
X194095Y356462D01*
X194136Y356542D01*
X194179Y356619D01*
X194226Y356695D01*
X194277Y356768D01*
X194330Y356839D01*
X194387Y356908D01*
X194447Y356974D01*
X194510Y357038D01*
X194575Y357098D01*
X194643Y357156D01*
X194714Y357210D01*
X194787Y357261D01*
X194862Y357309D01*
X194939Y357354D01*
X195018Y357395D01*
X195099Y357432D01*
X195181Y357466D01*
X195265Y357497D01*
X195350Y357523D01*
X195436Y357546D01*
X195523Y357564D01*
X195611Y357579D01*
X195700Y357590D01*
X195789Y357597D01*
X195878Y357600D01*
X195967Y357599D01*
X196056Y357594D01*
X196144Y357585D01*
X196233Y357572D01*
X196320Y357555D01*
X196407Y357535D01*
X196493Y357510D01*
X196577Y357482D01*
X196660Y357450D01*
X196742Y357414D01*
X196822Y357375D01*
X196900Y357332D01*
X196976Y357286D01*
X197050Y357236D01*
X197122Y357183D01*
X197191Y357127D01*
X197258Y357068D01*
X197322Y357006D01*
X197383Y356942D01*
X197442Y356874D01*
X197497Y356804D01*
X197549Y356732D01*
X197598Y356657D01*
X197643Y356581D01*
X197685Y356502D01*
X197723Y356422D01*
X197758Y356340D01*
X197789Y356256D01*
X197817Y356171D01*
X197840Y356085D01*
X197860Y355998D01*
X197876Y355911D01*
X197888Y355822D01*
X197896Y355734D01*
X197900Y355645D01*
X197900Y355555D01*
X197896Y355466D01*
X197888Y355378D01*
X197876Y355289D01*
X197860Y355202D01*
X197840Y355115D01*
X197817Y355029D01*
X197789Y354944D01*
X197758Y354860D01*
X197723Y354778D01*
X197685Y354698D01*
X197643Y354619D01*
X197598Y354543D01*
X197549Y354468D01*
X197497Y354396D01*
X197442Y354326D01*
X197383Y354258D01*
X197322Y354194D01*
X197258Y354132D01*
X197191Y354073D01*
X197122Y354017D01*
X197050Y353964D01*
X196976Y353914D01*
X196900Y353868D01*
X196822Y353825D01*
X196742Y353786D01*
X196660Y353750D01*
X196577Y353718D01*
X196493Y353690D01*
X196407Y353665D01*
X196320Y353645D01*
X196233Y353628D01*
X196144Y353615D01*
X196056Y353606D01*
X195967Y353601D01*
X195878Y353600D01*
X195789Y353603D01*
X195700Y353610D01*
X195611Y353621D01*
X195523Y353636D01*
X195436Y353654D01*
X195350Y353677D01*
X195265Y353703D01*
X195181Y353734D01*
X195099Y353768D01*
X195018Y353805D01*
X194939Y353846D01*
X194862Y353891D01*
X194787Y353939D01*
X194714Y353990D01*
X194643Y354044D01*
X194575Y354102D01*
X194510Y354162D01*
X194447Y354226D01*
X194387Y354292D01*
X194330Y354361D01*
X194277Y354432D01*
X194226Y354505D01*
X194179Y354581D01*
X194136Y354658D01*
X194095Y354738D01*
X194059Y354819D01*
X194026Y354902D01*
X193997Y354986D01*
X193971Y355072D01*
X193949Y355158D01*
X193932Y355245D01*
X193918Y355333D01*
X193908Y355422D01*
X193902Y355511D01*
X193900Y355600D01*
D11*
X358700Y103500D02*
X428700Y103500D01*
X358700Y103500D02*
X354700Y103500D01*
X354700Y29500D01*
X358700Y29500D01*
X428700Y29500D01*
X428700Y103500D01*
X358700Y103500D02*
X358700Y29500D01*
X455300Y83200D02*
X455300Y192200D01*
X455300Y83200D02*
X529300Y83200D01*
X529300Y192200D01*
X455300Y192200D01*
D10*
X447023Y108788D02*
X435339Y108788D01*
X447023Y108788D02*
X447023Y113981D01*
X447023Y118694D02*
X447023Y123887D01*
X447023Y118694D02*
X435339Y118694D01*
X435339Y123887D01*
X440532Y122589D02*
X440532Y118694D01*
X435339Y128577D02*
X447023Y128577D01*
X435339Y128577D02*
X435339Y131823D01*
X435341Y131936D01*
X435347Y132049D01*
X435357Y132162D01*
X435371Y132275D01*
X435388Y132387D01*
X435410Y132498D01*
X435435Y132608D01*
X435465Y132718D01*
X435498Y132826D01*
X435535Y132933D01*
X435575Y133039D01*
X435620Y133143D01*
X435668Y133246D01*
X435719Y133347D01*
X435774Y133446D01*
X435832Y133543D01*
X435894Y133638D01*
X435959Y133731D01*
X436027Y133821D01*
X436098Y133909D01*
X436173Y133995D01*
X436250Y134078D01*
X436330Y134158D01*
X436413Y134235D01*
X436499Y134310D01*
X436587Y134381D01*
X436677Y134449D01*
X436770Y134514D01*
X436865Y134576D01*
X436962Y134634D01*
X437061Y134689D01*
X437162Y134740D01*
X437265Y134788D01*
X437369Y134833D01*
X437475Y134873D01*
X437582Y134910D01*
X437690Y134943D01*
X437800Y134973D01*
X437910Y134998D01*
X438021Y135020D01*
X438133Y135037D01*
X438246Y135051D01*
X438359Y135061D01*
X438472Y135067D01*
X438585Y135069D01*
X443777Y135069D01*
X443890Y135067D01*
X444003Y135061D01*
X444116Y135051D01*
X444229Y135037D01*
X444341Y135020D01*
X444452Y134998D01*
X444562Y134973D01*
X444672Y134943D01*
X444780Y134910D01*
X444887Y134873D01*
X444993Y134833D01*
X445097Y134788D01*
X445200Y134740D01*
X445301Y134689D01*
X445400Y134634D01*
X445497Y134576D01*
X445592Y134514D01*
X445685Y134449D01*
X445775Y134381D01*
X445863Y134310D01*
X445949Y134235D01*
X446032Y134158D01*
X446112Y134078D01*
X446189Y133995D01*
X446264Y133909D01*
X446335Y133821D01*
X446403Y133731D01*
X446468Y133638D01*
X446530Y133543D01*
X446588Y133446D01*
X446643Y133347D01*
X446694Y133246D01*
X446742Y133143D01*
X446787Y133039D01*
X446827Y132933D01*
X446864Y132826D01*
X446897Y132718D01*
X446927Y132608D01*
X446952Y132498D01*
X446974Y132387D01*
X446991Y132275D01*
X447005Y132162D01*
X447015Y132049D01*
X447021Y131936D01*
X447023Y131823D01*
X447023Y128577D01*
X437935Y140388D02*
X435339Y143634D01*
X447023Y143634D01*
X447023Y146879D02*
X447023Y140388D01*
D11*
X455300Y337200D02*
X455300Y446200D01*
X455300Y337200D02*
X529300Y337200D01*
X529300Y446200D01*
X455300Y446200D01*
D10*
X447023Y362788D02*
X435339Y362788D01*
X447023Y362788D02*
X447023Y367981D01*
X447023Y372694D02*
X447023Y377887D01*
X447023Y372694D02*
X435339Y372694D01*
X435339Y377887D01*
X440532Y376589D02*
X440532Y372694D01*
X435339Y382577D02*
X447023Y382577D01*
X435339Y382577D02*
X435339Y385823D01*
X435341Y385936D01*
X435347Y386049D01*
X435357Y386162D01*
X435371Y386275D01*
X435388Y386387D01*
X435410Y386498D01*
X435435Y386608D01*
X435465Y386718D01*
X435498Y386826D01*
X435535Y386933D01*
X435575Y387039D01*
X435620Y387143D01*
X435668Y387246D01*
X435719Y387347D01*
X435774Y387446D01*
X435832Y387543D01*
X435894Y387638D01*
X435959Y387731D01*
X436027Y387821D01*
X436098Y387909D01*
X436173Y387995D01*
X436250Y388078D01*
X436330Y388158D01*
X436413Y388235D01*
X436499Y388310D01*
X436587Y388381D01*
X436677Y388449D01*
X436770Y388514D01*
X436865Y388576D01*
X436962Y388634D01*
X437061Y388689D01*
X437162Y388740D01*
X437265Y388788D01*
X437369Y388833D01*
X437475Y388873D01*
X437582Y388910D01*
X437690Y388943D01*
X437800Y388973D01*
X437910Y388998D01*
X438021Y389020D01*
X438133Y389037D01*
X438246Y389051D01*
X438359Y389061D01*
X438472Y389067D01*
X438585Y389069D01*
X443777Y389069D01*
X443890Y389067D01*
X444003Y389061D01*
X444116Y389051D01*
X444229Y389037D01*
X444341Y389020D01*
X444452Y388998D01*
X444562Y388973D01*
X444672Y388943D01*
X444780Y388910D01*
X444887Y388873D01*
X444993Y388833D01*
X445097Y388788D01*
X445200Y388740D01*
X445301Y388689D01*
X445400Y388634D01*
X445497Y388576D01*
X445592Y388514D01*
X445685Y388449D01*
X445775Y388381D01*
X445863Y388310D01*
X445949Y388235D01*
X446032Y388158D01*
X446112Y388078D01*
X446189Y387995D01*
X446264Y387909D01*
X446335Y387821D01*
X446403Y387731D01*
X446468Y387638D01*
X446530Y387543D01*
X446588Y387446D01*
X446643Y387347D01*
X446694Y387246D01*
X446742Y387143D01*
X446787Y387039D01*
X446827Y386933D01*
X446864Y386826D01*
X446897Y386718D01*
X446927Y386608D01*
X446952Y386498D01*
X446974Y386387D01*
X446991Y386275D01*
X447005Y386162D01*
X447015Y386049D01*
X447021Y385936D01*
X447023Y385823D01*
X447023Y382577D01*
X435339Y397958D02*
X435341Y398065D01*
X435347Y398171D01*
X435357Y398277D01*
X435370Y398383D01*
X435388Y398489D01*
X435409Y398593D01*
X435434Y398697D01*
X435463Y398800D01*
X435495Y398901D01*
X435532Y399001D01*
X435572Y399100D01*
X435615Y399198D01*
X435662Y399294D01*
X435713Y399388D01*
X435767Y399480D01*
X435824Y399570D01*
X435884Y399658D01*
X435948Y399743D01*
X436015Y399826D01*
X436085Y399907D01*
X436157Y399985D01*
X436233Y400061D01*
X436311Y400133D01*
X436392Y400203D01*
X436475Y400270D01*
X436560Y400334D01*
X436648Y400394D01*
X436738Y400451D01*
X436830Y400505D01*
X436924Y400556D01*
X437020Y400603D01*
X437118Y400646D01*
X437217Y400686D01*
X437317Y400723D01*
X437418Y400755D01*
X437521Y400784D01*
X437625Y400809D01*
X437729Y400830D01*
X437835Y400848D01*
X437941Y400861D01*
X438047Y400871D01*
X438153Y400877D01*
X438260Y400879D01*
X435339Y397958D02*
X435341Y397837D01*
X435347Y397716D01*
X435357Y397596D01*
X435370Y397475D01*
X435388Y397356D01*
X435409Y397236D01*
X435434Y397118D01*
X435463Y397001D01*
X435496Y396884D01*
X435532Y396769D01*
X435573Y396655D01*
X435616Y396542D01*
X435664Y396430D01*
X435715Y396321D01*
X435770Y396213D01*
X435828Y396106D01*
X435889Y396002D01*
X435954Y395900D01*
X436022Y395800D01*
X436093Y395702D01*
X436167Y395606D01*
X436244Y395513D01*
X436325Y395423D01*
X436408Y395335D01*
X436494Y395250D01*
X436583Y395167D01*
X436674Y395088D01*
X436768Y395011D01*
X436864Y394938D01*
X436962Y394868D01*
X437063Y394801D01*
X437166Y394737D01*
X437271Y394677D01*
X437378Y394619D01*
X437486Y394566D01*
X437596Y394516D01*
X437708Y394470D01*
X437821Y394427D01*
X437936Y394388D01*
X440532Y399905D02*
X440454Y399984D01*
X440374Y400060D01*
X440291Y400133D01*
X440205Y400203D01*
X440118Y400270D01*
X440027Y400334D01*
X439935Y400394D01*
X439841Y400452D01*
X439744Y400506D01*
X439646Y400556D01*
X439546Y400603D01*
X439445Y400647D01*
X439342Y400687D01*
X439237Y400723D01*
X439132Y400755D01*
X439025Y400784D01*
X438918Y400809D01*
X438809Y400831D01*
X438700Y400848D01*
X438591Y400862D01*
X438481Y400871D01*
X438370Y400877D01*
X438260Y400879D01*
X440532Y399906D02*
X447023Y394388D01*
X447023Y400879D01*
D11*
X310500Y455300D02*
X201500Y455300D01*
X310500Y455300D02*
X310500Y529300D01*
X201500Y529300D01*
X201500Y455300D01*
D10*
X246821Y447023D02*
X246821Y435339D01*
X252013Y435339D01*
X256727Y435339D02*
X261919Y435339D01*
X256727Y435339D02*
X256727Y447023D01*
X261919Y447023D01*
X260621Y441830D02*
X256727Y441830D01*
X266610Y447023D02*
X266610Y435339D01*
X266610Y447023D02*
X269855Y447023D01*
X269968Y447021D01*
X270081Y447015D01*
X270194Y447005D01*
X270307Y446991D01*
X270419Y446974D01*
X270530Y446952D01*
X270640Y446927D01*
X270750Y446897D01*
X270858Y446864D01*
X270965Y446827D01*
X271071Y446787D01*
X271175Y446742D01*
X271278Y446694D01*
X271379Y446643D01*
X271478Y446588D01*
X271575Y446530D01*
X271670Y446468D01*
X271763Y446403D01*
X271853Y446335D01*
X271941Y446264D01*
X272027Y446189D01*
X272110Y446112D01*
X272190Y446032D01*
X272267Y445949D01*
X272342Y445863D01*
X272413Y445775D01*
X272481Y445685D01*
X272546Y445592D01*
X272608Y445497D01*
X272666Y445400D01*
X272721Y445301D01*
X272772Y445200D01*
X272820Y445097D01*
X272865Y444993D01*
X272905Y444887D01*
X272942Y444780D01*
X272975Y444672D01*
X273005Y444562D01*
X273030Y444452D01*
X273052Y444341D01*
X273069Y444229D01*
X273083Y444116D01*
X273093Y444003D01*
X273099Y443890D01*
X273101Y443777D01*
X273101Y438585D01*
X273102Y438585D02*
X273100Y438472D01*
X273094Y438359D01*
X273084Y438246D01*
X273070Y438133D01*
X273053Y438021D01*
X273031Y437910D01*
X273006Y437800D01*
X272976Y437690D01*
X272943Y437582D01*
X272906Y437475D01*
X272866Y437369D01*
X272821Y437265D01*
X272773Y437162D01*
X272722Y437061D01*
X272667Y436962D01*
X272609Y436865D01*
X272547Y436770D01*
X272482Y436677D01*
X272414Y436587D01*
X272343Y436499D01*
X272268Y436413D01*
X272191Y436330D01*
X272111Y436250D01*
X272028Y436173D01*
X271942Y436098D01*
X271854Y436027D01*
X271764Y435959D01*
X271671Y435894D01*
X271576Y435832D01*
X271479Y435774D01*
X271380Y435719D01*
X271279Y435668D01*
X271176Y435620D01*
X271072Y435575D01*
X270966Y435535D01*
X270859Y435498D01*
X270751Y435465D01*
X270641Y435435D01*
X270531Y435410D01*
X270420Y435388D01*
X270308Y435371D01*
X270195Y435357D01*
X270082Y435347D01*
X269969Y435341D01*
X269856Y435339D01*
X269855Y435339D02*
X266610Y435339D01*
X278421Y435339D02*
X281666Y435339D01*
X281779Y435341D01*
X281892Y435347D01*
X282005Y435357D01*
X282118Y435371D01*
X282230Y435388D01*
X282341Y435410D01*
X282451Y435435D01*
X282561Y435465D01*
X282669Y435498D01*
X282776Y435535D01*
X282882Y435575D01*
X282986Y435620D01*
X283089Y435668D01*
X283190Y435719D01*
X283289Y435774D01*
X283386Y435832D01*
X283481Y435894D01*
X283574Y435959D01*
X283664Y436027D01*
X283752Y436098D01*
X283838Y436173D01*
X283921Y436250D01*
X284001Y436330D01*
X284078Y436413D01*
X284153Y436499D01*
X284224Y436587D01*
X284292Y436677D01*
X284357Y436770D01*
X284419Y436865D01*
X284477Y436962D01*
X284532Y437061D01*
X284583Y437162D01*
X284631Y437265D01*
X284676Y437369D01*
X284716Y437475D01*
X284753Y437582D01*
X284786Y437690D01*
X284816Y437800D01*
X284841Y437910D01*
X284863Y438021D01*
X284880Y438133D01*
X284894Y438246D01*
X284904Y438359D01*
X284910Y438472D01*
X284912Y438585D01*
X284910Y438698D01*
X284904Y438811D01*
X284894Y438924D01*
X284880Y439037D01*
X284863Y439149D01*
X284841Y439260D01*
X284816Y439370D01*
X284786Y439480D01*
X284753Y439588D01*
X284716Y439695D01*
X284676Y439801D01*
X284631Y439905D01*
X284583Y440008D01*
X284532Y440109D01*
X284477Y440208D01*
X284419Y440305D01*
X284357Y440400D01*
X284292Y440493D01*
X284224Y440583D01*
X284153Y440671D01*
X284078Y440757D01*
X284001Y440840D01*
X283921Y440920D01*
X283838Y440997D01*
X283752Y441072D01*
X283664Y441143D01*
X283574Y441211D01*
X283481Y441276D01*
X283386Y441338D01*
X283289Y441396D01*
X283190Y441451D01*
X283089Y441502D01*
X282986Y441550D01*
X282882Y441595D01*
X282776Y441635D01*
X282669Y441672D01*
X282561Y441705D01*
X282451Y441735D01*
X282341Y441760D01*
X282230Y441782D01*
X282118Y441799D01*
X282005Y441813D01*
X281892Y441823D01*
X281779Y441829D01*
X281666Y441831D01*
X282316Y447023D02*
X278421Y447023D01*
X282316Y447023D02*
X282417Y447021D01*
X282517Y447015D01*
X282617Y447005D01*
X282717Y446992D01*
X282816Y446974D01*
X282915Y446953D01*
X283012Y446928D01*
X283109Y446899D01*
X283204Y446866D01*
X283298Y446830D01*
X283390Y446790D01*
X283481Y446747D01*
X283570Y446700D01*
X283657Y446650D01*
X283743Y446596D01*
X283826Y446539D01*
X283906Y446479D01*
X283985Y446416D01*
X284061Y446349D01*
X284134Y446280D01*
X284204Y446208D01*
X284272Y446134D01*
X284337Y446057D01*
X284398Y445977D01*
X284457Y445895D01*
X284512Y445811D01*
X284564Y445725D01*
X284613Y445637D01*
X284658Y445547D01*
X284700Y445455D01*
X284738Y445362D01*
X284772Y445267D01*
X284803Y445172D01*
X284830Y445075D01*
X284853Y444977D01*
X284873Y444878D01*
X284888Y444778D01*
X284900Y444678D01*
X284908Y444578D01*
X284912Y444477D01*
X284912Y444377D01*
X284908Y444276D01*
X284900Y444176D01*
X284888Y444076D01*
X284873Y443976D01*
X284853Y443877D01*
X284830Y443779D01*
X284803Y443682D01*
X284772Y443587D01*
X284738Y443492D01*
X284700Y443399D01*
X284658Y443307D01*
X284613Y443217D01*
X284564Y443129D01*
X284512Y443043D01*
X284457Y442959D01*
X284398Y442877D01*
X284337Y442797D01*
X284272Y442720D01*
X284204Y442646D01*
X284134Y442574D01*
X284061Y442505D01*
X283985Y442438D01*
X283906Y442375D01*
X283826Y442315D01*
X283743Y442258D01*
X283657Y442204D01*
X283570Y442154D01*
X283481Y442107D01*
X283390Y442064D01*
X283298Y442024D01*
X283204Y441988D01*
X283109Y441955D01*
X283012Y441926D01*
X282915Y441901D01*
X282816Y441880D01*
X282717Y441862D01*
X282617Y441849D01*
X282517Y441839D01*
X282417Y441833D01*
X282316Y441831D01*
X282316Y441830D02*
X279719Y441830D01*
D11*
X90800Y247000D02*
X90800Y138000D01*
X90800Y247000D02*
X16800Y247000D01*
X16800Y138000D01*
X90800Y138000D01*
D10*
X99077Y183321D02*
X110761Y183321D01*
X110761Y188513D01*
X110761Y193227D02*
X110761Y198419D01*
X110761Y193227D02*
X99077Y193227D01*
X99077Y198419D01*
X104270Y197121D02*
X104270Y193227D01*
X99077Y203110D02*
X110761Y203110D01*
X99077Y203110D02*
X99077Y206355D01*
X99079Y206468D01*
X99085Y206581D01*
X99095Y206694D01*
X99109Y206807D01*
X99126Y206919D01*
X99148Y207030D01*
X99173Y207140D01*
X99203Y207250D01*
X99236Y207358D01*
X99273Y207465D01*
X99313Y207571D01*
X99358Y207675D01*
X99406Y207778D01*
X99457Y207879D01*
X99512Y207978D01*
X99570Y208075D01*
X99632Y208170D01*
X99697Y208263D01*
X99765Y208353D01*
X99836Y208441D01*
X99911Y208527D01*
X99988Y208610D01*
X100068Y208690D01*
X100151Y208767D01*
X100237Y208842D01*
X100325Y208913D01*
X100415Y208981D01*
X100508Y209046D01*
X100603Y209108D01*
X100700Y209166D01*
X100799Y209221D01*
X100900Y209272D01*
X101003Y209320D01*
X101107Y209365D01*
X101213Y209405D01*
X101320Y209442D01*
X101428Y209475D01*
X101538Y209505D01*
X101648Y209530D01*
X101759Y209552D01*
X101871Y209569D01*
X101984Y209583D01*
X102097Y209593D01*
X102210Y209599D01*
X102323Y209601D01*
X107515Y209601D01*
X107515Y209602D02*
X107628Y209600D01*
X107741Y209594D01*
X107854Y209584D01*
X107967Y209570D01*
X108079Y209553D01*
X108190Y209531D01*
X108300Y209506D01*
X108410Y209476D01*
X108518Y209443D01*
X108625Y209406D01*
X108731Y209366D01*
X108835Y209321D01*
X108938Y209273D01*
X109039Y209222D01*
X109138Y209167D01*
X109235Y209109D01*
X109330Y209047D01*
X109423Y208982D01*
X109513Y208914D01*
X109601Y208843D01*
X109687Y208768D01*
X109770Y208691D01*
X109850Y208611D01*
X109927Y208528D01*
X110002Y208442D01*
X110073Y208354D01*
X110141Y208264D01*
X110206Y208171D01*
X110268Y208076D01*
X110326Y207979D01*
X110381Y207880D01*
X110432Y207779D01*
X110480Y207676D01*
X110525Y207572D01*
X110565Y207466D01*
X110602Y207359D01*
X110635Y207251D01*
X110665Y207141D01*
X110690Y207031D01*
X110712Y206920D01*
X110729Y206808D01*
X110743Y206695D01*
X110753Y206582D01*
X110759Y206469D01*
X110761Y206356D01*
X110761Y206355D02*
X110761Y203110D01*
X108165Y214921D02*
X99077Y217517D01*
X108165Y214921D02*
X108165Y221412D01*
X105568Y219465D02*
X110761Y219465D01*
X231648Y187452D02*
X231648Y175768D01*
X231648Y187452D02*
X234894Y187452D01*
X235007Y187450D01*
X235120Y187444D01*
X235233Y187434D01*
X235346Y187420D01*
X235458Y187403D01*
X235569Y187381D01*
X235679Y187356D01*
X235789Y187326D01*
X235897Y187293D01*
X236004Y187256D01*
X236110Y187216D01*
X236214Y187171D01*
X236317Y187123D01*
X236418Y187072D01*
X236517Y187017D01*
X236614Y186959D01*
X236709Y186897D01*
X236802Y186832D01*
X236892Y186764D01*
X236980Y186693D01*
X237066Y186618D01*
X237149Y186541D01*
X237229Y186461D01*
X237306Y186378D01*
X237381Y186292D01*
X237452Y186204D01*
X237520Y186114D01*
X237585Y186021D01*
X237647Y185926D01*
X237705Y185829D01*
X237760Y185730D01*
X237811Y185629D01*
X237859Y185526D01*
X237904Y185422D01*
X237944Y185316D01*
X237981Y185209D01*
X238014Y185101D01*
X238044Y184991D01*
X238069Y184881D01*
X238091Y184770D01*
X238108Y184658D01*
X238122Y184545D01*
X238132Y184432D01*
X238138Y184319D01*
X238140Y184206D01*
X238138Y184093D01*
X238132Y183980D01*
X238122Y183867D01*
X238108Y183754D01*
X238091Y183642D01*
X238069Y183531D01*
X238044Y183421D01*
X238014Y183311D01*
X237981Y183203D01*
X237944Y183096D01*
X237904Y182990D01*
X237859Y182886D01*
X237811Y182783D01*
X237760Y182682D01*
X237705Y182583D01*
X237647Y182486D01*
X237585Y182391D01*
X237520Y182298D01*
X237452Y182208D01*
X237381Y182120D01*
X237306Y182034D01*
X237229Y181951D01*
X237149Y181871D01*
X237066Y181794D01*
X236980Y181719D01*
X236892Y181648D01*
X236802Y181580D01*
X236709Y181515D01*
X236614Y181453D01*
X236517Y181395D01*
X236418Y181340D01*
X236317Y181289D01*
X236214Y181241D01*
X236110Y181196D01*
X236004Y181156D01*
X235897Y181119D01*
X235789Y181086D01*
X235679Y181056D01*
X235569Y181031D01*
X235458Y181009D01*
X235346Y180992D01*
X235233Y180978D01*
X235120Y180968D01*
X235007Y180962D01*
X234894Y180960D01*
X234894Y180961D02*
X231648Y180961D01*
X235543Y180961D02*
X238139Y175768D01*
X243004Y175768D02*
X246899Y175768D01*
X246998Y175770D01*
X247098Y175776D01*
X247197Y175785D01*
X247295Y175798D01*
X247393Y175815D01*
X247491Y175836D01*
X247587Y175861D01*
X247682Y175889D01*
X247776Y175921D01*
X247869Y175956D01*
X247961Y175995D01*
X248051Y176038D01*
X248139Y176083D01*
X248226Y176133D01*
X248310Y176185D01*
X248393Y176241D01*
X248473Y176299D01*
X248551Y176361D01*
X248626Y176426D01*
X248699Y176494D01*
X248769Y176564D01*
X248837Y176637D01*
X248902Y176712D01*
X248964Y176790D01*
X249022Y176870D01*
X249078Y176953D01*
X249130Y177037D01*
X249180Y177124D01*
X249225Y177212D01*
X249268Y177302D01*
X249307Y177394D01*
X249342Y177487D01*
X249374Y177581D01*
X249402Y177676D01*
X249427Y177772D01*
X249448Y177870D01*
X249465Y177968D01*
X249478Y178066D01*
X249487Y178165D01*
X249493Y178265D01*
X249495Y178364D01*
X249495Y179663D01*
X249493Y179762D01*
X249487Y179862D01*
X249478Y179961D01*
X249465Y180059D01*
X249448Y180157D01*
X249427Y180255D01*
X249402Y180351D01*
X249374Y180446D01*
X249342Y180540D01*
X249307Y180633D01*
X249268Y180725D01*
X249225Y180815D01*
X249180Y180903D01*
X249130Y180990D01*
X249078Y181074D01*
X249022Y181157D01*
X248964Y181237D01*
X248902Y181315D01*
X248837Y181390D01*
X248769Y181463D01*
X248699Y181533D01*
X248626Y181601D01*
X248551Y181666D01*
X248473Y181728D01*
X248393Y181786D01*
X248310Y181842D01*
X248226Y181894D01*
X248139Y181944D01*
X248051Y181989D01*
X247961Y182032D01*
X247869Y182071D01*
X247776Y182106D01*
X247682Y182138D01*
X247587Y182166D01*
X247491Y182191D01*
X247393Y182212D01*
X247295Y182229D01*
X247197Y182242D01*
X247098Y182251D01*
X246998Y182257D01*
X246899Y182259D01*
X243004Y182259D01*
X243004Y187452D01*
X249495Y187452D01*
D13*
X129548Y244102D02*
X127256Y244102D01*
X127256Y244739D01*
X127255Y244739D02*
X127257Y244788D01*
X127262Y244836D01*
X127272Y244884D01*
X127285Y244931D01*
X127301Y244977D01*
X127321Y245022D01*
X127344Y245065D01*
X127371Y245105D01*
X127401Y245144D01*
X127433Y245181D01*
X127468Y245215D01*
X127506Y245246D01*
X127546Y245274D01*
X127588Y245299D01*
X127631Y245320D01*
X127677Y245339D01*
X127723Y245353D01*
X127771Y245364D01*
X127819Y245372D01*
X127868Y245376D01*
X127916Y245376D01*
X127965Y245372D01*
X128013Y245364D01*
X128061Y245353D01*
X128107Y245339D01*
X128153Y245320D01*
X128196Y245299D01*
X128238Y245274D01*
X128278Y245246D01*
X128316Y245215D01*
X128351Y245181D01*
X128383Y245144D01*
X128413Y245105D01*
X128440Y245065D01*
X128463Y245022D01*
X128483Y244977D01*
X128499Y244931D01*
X128512Y244884D01*
X128522Y244836D01*
X128527Y244788D01*
X128529Y244739D01*
X128529Y244102D01*
X128529Y244866D02*
X129548Y245376D01*
X129548Y246459D02*
X129548Y247477D01*
X129548Y246459D02*
X127256Y246459D01*
X127256Y247477D01*
X128274Y247223D02*
X128274Y246459D01*
X127256Y248440D02*
X129548Y248440D01*
X127256Y248440D02*
X127256Y249076D01*
X127255Y249076D02*
X127257Y249124D01*
X127262Y249171D01*
X127271Y249218D01*
X127283Y249264D01*
X127299Y249309D01*
X127318Y249352D01*
X127340Y249395D01*
X127366Y249435D01*
X127394Y249473D01*
X127425Y249509D01*
X127459Y249543D01*
X127495Y249574D01*
X127533Y249602D01*
X127574Y249628D01*
X127616Y249650D01*
X127659Y249669D01*
X127704Y249685D01*
X127750Y249697D01*
X127797Y249706D01*
X127844Y249711D01*
X127892Y249713D01*
X128911Y249713D01*
X128959Y249711D01*
X129006Y249706D01*
X129053Y249697D01*
X129099Y249685D01*
X129144Y249669D01*
X129187Y249650D01*
X129230Y249628D01*
X129270Y249602D01*
X129308Y249574D01*
X129344Y249543D01*
X129378Y249509D01*
X129409Y249473D01*
X129437Y249435D01*
X129463Y249395D01*
X129485Y249352D01*
X129504Y249309D01*
X129520Y249264D01*
X129532Y249218D01*
X129541Y249171D01*
X129546Y249124D01*
X129548Y249076D01*
X129548Y248440D01*
X129548Y250889D02*
X127256Y250889D01*
X129548Y250889D02*
X129548Y251908D01*
X129548Y252875D02*
X129548Y253894D01*
X129548Y252875D02*
X127256Y252875D01*
X127256Y253894D01*
X128274Y253639D02*
X128274Y252875D01*
X127256Y254856D02*
X129548Y254856D01*
X127256Y254856D02*
X127256Y255493D01*
X127255Y255493D02*
X127257Y255541D01*
X127262Y255588D01*
X127271Y255635D01*
X127283Y255681D01*
X127299Y255726D01*
X127318Y255769D01*
X127340Y255812D01*
X127366Y255852D01*
X127394Y255890D01*
X127425Y255926D01*
X127459Y255960D01*
X127495Y255991D01*
X127533Y256019D01*
X127574Y256045D01*
X127616Y256067D01*
X127659Y256086D01*
X127704Y256102D01*
X127750Y256114D01*
X127797Y256123D01*
X127844Y256128D01*
X127892Y256130D01*
X128911Y256130D01*
X128959Y256128D01*
X129006Y256123D01*
X129053Y256114D01*
X129099Y256102D01*
X129144Y256086D01*
X129187Y256067D01*
X129230Y256045D01*
X129270Y256019D01*
X129308Y255991D01*
X129344Y255960D01*
X129378Y255926D01*
X129409Y255890D01*
X129437Y255852D01*
X129463Y255812D01*
X129485Y255769D01*
X129504Y255726D01*
X129520Y255681D01*
X129532Y255635D01*
X129541Y255588D01*
X129546Y255541D01*
X129548Y255493D01*
X129548Y254856D01*
X127765Y257224D02*
X127256Y257861D01*
X129548Y257861D01*
X129548Y257224D02*
X129548Y258498D01*
D11*
X455300Y210200D02*
X455300Y319200D01*
X455300Y210200D02*
X529300Y210200D01*
X529300Y319200D01*
X455300Y319200D01*
D10*
X444427Y242279D02*
X444526Y242277D01*
X444626Y242271D01*
X444725Y242262D01*
X444823Y242249D01*
X444921Y242232D01*
X445019Y242211D01*
X445115Y242186D01*
X445210Y242158D01*
X445304Y242126D01*
X445397Y242091D01*
X445489Y242052D01*
X445579Y242009D01*
X445667Y241964D01*
X445754Y241914D01*
X445838Y241862D01*
X445921Y241806D01*
X446001Y241748D01*
X446079Y241686D01*
X446154Y241621D01*
X446227Y241553D01*
X446297Y241483D01*
X446365Y241410D01*
X446430Y241335D01*
X446492Y241257D01*
X446550Y241177D01*
X446606Y241094D01*
X446658Y241010D01*
X446708Y240923D01*
X446753Y240835D01*
X446796Y240745D01*
X446835Y240653D01*
X446870Y240560D01*
X446902Y240466D01*
X446930Y240371D01*
X446955Y240275D01*
X446976Y240177D01*
X446993Y240079D01*
X447006Y239981D01*
X447015Y239882D01*
X447021Y239782D01*
X447023Y239683D01*
X447021Y239539D01*
X447015Y239394D01*
X447006Y239250D01*
X446993Y239107D01*
X446976Y238963D01*
X446955Y238820D01*
X446930Y238678D01*
X446902Y238537D01*
X446870Y238396D01*
X446834Y238256D01*
X446795Y238117D01*
X446752Y237979D01*
X446705Y237843D01*
X446655Y237707D01*
X446601Y237573D01*
X446544Y237441D01*
X446483Y237310D01*
X446419Y237181D01*
X446351Y237053D01*
X446281Y236927D01*
X446206Y236803D01*
X446129Y236682D01*
X446048Y236562D01*
X445965Y236444D01*
X445878Y236329D01*
X445788Y236216D01*
X445695Y236105D01*
X445600Y235997D01*
X445501Y235891D01*
X445400Y235788D01*
X437935Y236113D02*
X437836Y236115D01*
X437736Y236121D01*
X437637Y236130D01*
X437539Y236143D01*
X437441Y236160D01*
X437343Y236181D01*
X437247Y236206D01*
X437152Y236234D01*
X437058Y236266D01*
X436965Y236301D01*
X436873Y236340D01*
X436783Y236383D01*
X436695Y236428D01*
X436608Y236478D01*
X436524Y236530D01*
X436441Y236586D01*
X436361Y236644D01*
X436283Y236706D01*
X436208Y236771D01*
X436135Y236839D01*
X436065Y236909D01*
X435997Y236982D01*
X435932Y237057D01*
X435870Y237135D01*
X435812Y237215D01*
X435756Y237298D01*
X435704Y237382D01*
X435654Y237469D01*
X435609Y237557D01*
X435566Y237647D01*
X435527Y237739D01*
X435492Y237832D01*
X435460Y237926D01*
X435432Y238021D01*
X435407Y238117D01*
X435386Y238215D01*
X435369Y238313D01*
X435356Y238411D01*
X435347Y238510D01*
X435341Y238610D01*
X435339Y238709D01*
X435341Y238845D01*
X435347Y238981D01*
X435356Y239117D01*
X435369Y239253D01*
X435387Y239388D01*
X435407Y239522D01*
X435432Y239656D01*
X435460Y239790D01*
X435493Y239922D01*
X435528Y240053D01*
X435568Y240184D01*
X435611Y240313D01*
X435657Y240441D01*
X435708Y240567D01*
X435761Y240693D01*
X435819Y240816D01*
X435879Y240938D01*
X435943Y241058D01*
X436011Y241177D01*
X436081Y241293D01*
X436155Y241407D01*
X436232Y241520D01*
X436313Y241630D01*
X440207Y237411D02*
X440154Y237325D01*
X440097Y237241D01*
X440038Y237159D01*
X439975Y237079D01*
X439909Y237002D01*
X439841Y236927D01*
X439769Y236855D01*
X439695Y236786D01*
X439618Y236720D01*
X439539Y236657D01*
X439457Y236597D01*
X439373Y236540D01*
X439287Y236486D01*
X439199Y236436D01*
X439109Y236389D01*
X439018Y236345D01*
X438924Y236306D01*
X438830Y236269D01*
X438734Y236237D01*
X438636Y236208D01*
X438538Y236183D01*
X438439Y236162D01*
X438339Y236144D01*
X438239Y236131D01*
X438138Y236121D01*
X438036Y236115D01*
X437935Y236113D01*
X442155Y240981D02*
X442208Y241067D01*
X442265Y241151D01*
X442324Y241233D01*
X442387Y241313D01*
X442453Y241390D01*
X442521Y241465D01*
X442593Y241537D01*
X442667Y241606D01*
X442744Y241672D01*
X442823Y241735D01*
X442905Y241795D01*
X442989Y241852D01*
X443075Y241906D01*
X443163Y241956D01*
X443253Y242003D01*
X443344Y242047D01*
X443438Y242086D01*
X443532Y242123D01*
X443628Y242155D01*
X443726Y242184D01*
X443824Y242209D01*
X443923Y242230D01*
X444023Y242248D01*
X444123Y242261D01*
X444224Y242271D01*
X444326Y242277D01*
X444427Y242279D01*
X442155Y240981D02*
X440207Y237411D01*
X447023Y247241D02*
X447023Y252433D01*
X447023Y247241D02*
X435339Y247241D01*
X435339Y252433D01*
X440532Y251135D02*
X440532Y247241D01*
X435339Y257198D02*
X447023Y257198D01*
X435339Y257198D02*
X435339Y260443D01*
X435341Y260556D01*
X435347Y260669D01*
X435357Y260782D01*
X435371Y260895D01*
X435388Y261007D01*
X435410Y261118D01*
X435435Y261228D01*
X435465Y261338D01*
X435498Y261446D01*
X435535Y261553D01*
X435575Y261659D01*
X435620Y261763D01*
X435668Y261866D01*
X435719Y261967D01*
X435774Y262066D01*
X435832Y262163D01*
X435894Y262258D01*
X435959Y262351D01*
X436027Y262441D01*
X436098Y262529D01*
X436173Y262615D01*
X436250Y262698D01*
X436330Y262778D01*
X436413Y262855D01*
X436499Y262930D01*
X436587Y263001D01*
X436677Y263069D01*
X436770Y263134D01*
X436865Y263196D01*
X436962Y263254D01*
X437061Y263309D01*
X437162Y263360D01*
X437265Y263408D01*
X437369Y263453D01*
X437475Y263493D01*
X437582Y263530D01*
X437690Y263563D01*
X437800Y263593D01*
X437910Y263618D01*
X438021Y263640D01*
X438133Y263657D01*
X438246Y263671D01*
X438359Y263681D01*
X438472Y263687D01*
X438585Y263689D01*
X438698Y263687D01*
X438811Y263681D01*
X438924Y263671D01*
X439037Y263657D01*
X439149Y263640D01*
X439260Y263618D01*
X439370Y263593D01*
X439480Y263563D01*
X439588Y263530D01*
X439695Y263493D01*
X439801Y263453D01*
X439905Y263408D01*
X440008Y263360D01*
X440109Y263309D01*
X440208Y263254D01*
X440305Y263196D01*
X440400Y263134D01*
X440493Y263069D01*
X440583Y263001D01*
X440671Y262930D01*
X440757Y262855D01*
X440840Y262778D01*
X440920Y262698D01*
X440997Y262615D01*
X441072Y262529D01*
X441143Y262441D01*
X441211Y262351D01*
X441276Y262258D01*
X441338Y262163D01*
X441396Y262066D01*
X441451Y261967D01*
X441502Y261866D01*
X441550Y261763D01*
X441595Y261659D01*
X441635Y261553D01*
X441672Y261446D01*
X441705Y261338D01*
X441735Y261228D01*
X441760Y261118D01*
X441782Y261007D01*
X441799Y260895D01*
X441813Y260782D01*
X441823Y260669D01*
X441829Y260556D01*
X441831Y260443D01*
X441830Y260443D02*
X441830Y257198D01*
X441830Y261092D02*
X447023Y263689D01*
X447023Y271800D02*
X435339Y267905D01*
X435339Y275694D02*
X447023Y271800D01*
X443777Y279984D02*
X438585Y279984D01*
X438585Y279983D02*
X438472Y279985D01*
X438359Y279991D01*
X438246Y280001D01*
X438133Y280015D01*
X438021Y280032D01*
X437910Y280054D01*
X437800Y280079D01*
X437690Y280109D01*
X437582Y280142D01*
X437475Y280179D01*
X437369Y280219D01*
X437265Y280264D01*
X437162Y280312D01*
X437061Y280363D01*
X436962Y280418D01*
X436865Y280476D01*
X436770Y280538D01*
X436677Y280603D01*
X436587Y280671D01*
X436499Y280742D01*
X436413Y280817D01*
X436330Y280894D01*
X436250Y280974D01*
X436173Y281057D01*
X436098Y281143D01*
X436027Y281231D01*
X435959Y281321D01*
X435894Y281414D01*
X435832Y281509D01*
X435774Y281606D01*
X435719Y281705D01*
X435668Y281806D01*
X435620Y281909D01*
X435575Y282013D01*
X435535Y282119D01*
X435498Y282226D01*
X435465Y282334D01*
X435435Y282444D01*
X435410Y282554D01*
X435388Y282665D01*
X435371Y282777D01*
X435357Y282890D01*
X435347Y283003D01*
X435341Y283116D01*
X435339Y283229D01*
X435341Y283342D01*
X435347Y283455D01*
X435357Y283568D01*
X435371Y283681D01*
X435388Y283793D01*
X435410Y283904D01*
X435435Y284014D01*
X435465Y284124D01*
X435498Y284232D01*
X435535Y284339D01*
X435575Y284445D01*
X435620Y284549D01*
X435668Y284652D01*
X435719Y284753D01*
X435774Y284852D01*
X435832Y284949D01*
X435894Y285044D01*
X435959Y285137D01*
X436027Y285227D01*
X436098Y285315D01*
X436173Y285401D01*
X436250Y285484D01*
X436330Y285564D01*
X436413Y285641D01*
X436499Y285716D01*
X436587Y285787D01*
X436677Y285855D01*
X436770Y285920D01*
X436865Y285982D01*
X436962Y286040D01*
X437061Y286095D01*
X437162Y286146D01*
X437265Y286194D01*
X437369Y286239D01*
X437475Y286279D01*
X437582Y286316D01*
X437690Y286349D01*
X437800Y286379D01*
X437910Y286404D01*
X438021Y286426D01*
X438133Y286443D01*
X438246Y286457D01*
X438359Y286467D01*
X438472Y286473D01*
X438585Y286475D01*
X443777Y286475D01*
X443890Y286473D01*
X444003Y286467D01*
X444116Y286457D01*
X444229Y286443D01*
X444341Y286426D01*
X444452Y286404D01*
X444562Y286379D01*
X444672Y286349D01*
X444780Y286316D01*
X444887Y286279D01*
X444993Y286239D01*
X445097Y286194D01*
X445200Y286146D01*
X445301Y286095D01*
X445400Y286040D01*
X445497Y285982D01*
X445592Y285920D01*
X445685Y285855D01*
X445775Y285787D01*
X445863Y285716D01*
X445949Y285641D01*
X446032Y285564D01*
X446112Y285484D01*
X446189Y285401D01*
X446264Y285315D01*
X446335Y285227D01*
X446403Y285137D01*
X446468Y285044D01*
X446530Y284949D01*
X446588Y284852D01*
X446643Y284753D01*
X446694Y284652D01*
X446742Y284549D01*
X446787Y284445D01*
X446827Y284339D01*
X446864Y284232D01*
X446897Y284124D01*
X446927Y284014D01*
X446952Y283904D01*
X446974Y283793D01*
X446991Y283681D01*
X447005Y283568D01*
X447015Y283455D01*
X447021Y283342D01*
X447023Y283229D01*
X447021Y283116D01*
X447015Y283003D01*
X447005Y282890D01*
X446991Y282777D01*
X446974Y282665D01*
X446952Y282554D01*
X446927Y282444D01*
X446897Y282334D01*
X446864Y282226D01*
X446827Y282119D01*
X446787Y282013D01*
X446742Y281909D01*
X446694Y281806D01*
X446643Y281705D01*
X446588Y281606D01*
X446530Y281509D01*
X446468Y281414D01*
X446403Y281321D01*
X446335Y281231D01*
X446264Y281143D01*
X446189Y281057D01*
X446112Y280974D01*
X446032Y280894D01*
X445949Y280817D01*
X445863Y280742D01*
X445775Y280671D01*
X445685Y280603D01*
X445592Y280538D01*
X445497Y280476D01*
X445400Y280418D01*
X445301Y280363D01*
X445200Y280312D01*
X445097Y280264D01*
X444993Y280219D01*
X444887Y280179D01*
X444780Y280142D01*
X444672Y280109D01*
X444562Y280079D01*
X444452Y280054D01*
X444341Y280032D01*
X444229Y280015D01*
X444116Y280001D01*
X444003Y279991D01*
X443890Y279985D01*
X443777Y279983D01*
X437935Y291414D02*
X435339Y294659D01*
X447023Y294659D01*
X447023Y291414D02*
X447023Y297905D01*
D11*
X437500Y455300D02*
X328500Y455300D01*
X437500Y455300D02*
X437500Y529300D01*
X328500Y529300D01*
X328500Y455300D01*
D10*
X353690Y435339D02*
X353789Y435341D01*
X353889Y435347D01*
X353988Y435356D01*
X354086Y435369D01*
X354184Y435386D01*
X354282Y435407D01*
X354378Y435432D01*
X354473Y435460D01*
X354567Y435492D01*
X354660Y435527D01*
X354752Y435566D01*
X354842Y435609D01*
X354930Y435654D01*
X355017Y435704D01*
X355101Y435756D01*
X355184Y435812D01*
X355264Y435870D01*
X355342Y435932D01*
X355417Y435997D01*
X355490Y436065D01*
X355560Y436135D01*
X355628Y436208D01*
X355693Y436283D01*
X355755Y436361D01*
X355813Y436441D01*
X355869Y436524D01*
X355921Y436608D01*
X355971Y436695D01*
X356016Y436783D01*
X356059Y436873D01*
X356098Y436965D01*
X356133Y437058D01*
X356165Y437152D01*
X356193Y437247D01*
X356218Y437343D01*
X356239Y437441D01*
X356256Y437539D01*
X356269Y437637D01*
X356278Y437736D01*
X356284Y437836D01*
X356286Y437935D01*
X353690Y435339D02*
X353546Y435341D01*
X353401Y435347D01*
X353257Y435356D01*
X353114Y435369D01*
X352970Y435386D01*
X352827Y435407D01*
X352685Y435432D01*
X352544Y435460D01*
X352403Y435492D01*
X352263Y435528D01*
X352124Y435567D01*
X351986Y435610D01*
X351850Y435657D01*
X351714Y435707D01*
X351580Y435761D01*
X351448Y435818D01*
X351317Y435879D01*
X351188Y435943D01*
X351060Y436011D01*
X350934Y436081D01*
X350810Y436156D01*
X350689Y436233D01*
X350569Y436314D01*
X350451Y436397D01*
X350336Y436484D01*
X350223Y436574D01*
X350112Y436667D01*
X350004Y436762D01*
X349898Y436861D01*
X349795Y436962D01*
X350120Y444427D02*
X350122Y444526D01*
X350128Y444626D01*
X350137Y444725D01*
X350150Y444823D01*
X350167Y444921D01*
X350188Y445019D01*
X350213Y445115D01*
X350241Y445210D01*
X350273Y445304D01*
X350308Y445397D01*
X350347Y445489D01*
X350390Y445579D01*
X350435Y445667D01*
X350485Y445754D01*
X350537Y445838D01*
X350593Y445921D01*
X350651Y446001D01*
X350713Y446079D01*
X350778Y446154D01*
X350846Y446227D01*
X350916Y446297D01*
X350989Y446365D01*
X351064Y446430D01*
X351142Y446492D01*
X351222Y446550D01*
X351305Y446606D01*
X351389Y446658D01*
X351476Y446708D01*
X351564Y446753D01*
X351654Y446796D01*
X351746Y446835D01*
X351839Y446870D01*
X351933Y446902D01*
X352028Y446930D01*
X352125Y446955D01*
X352222Y446976D01*
X352320Y446993D01*
X352418Y447006D01*
X352517Y447015D01*
X352617Y447021D01*
X352716Y447023D01*
X352852Y447021D01*
X352988Y447015D01*
X353124Y447006D01*
X353260Y446993D01*
X353395Y446975D01*
X353529Y446955D01*
X353663Y446930D01*
X353797Y446902D01*
X353929Y446869D01*
X354060Y446834D01*
X354191Y446794D01*
X354320Y446751D01*
X354448Y446705D01*
X354574Y446654D01*
X354700Y446601D01*
X354823Y446543D01*
X354945Y446483D01*
X355065Y446419D01*
X355184Y446351D01*
X355300Y446281D01*
X355414Y446207D01*
X355527Y446130D01*
X355637Y446049D01*
X351418Y442155D02*
X351332Y442208D01*
X351248Y442265D01*
X351166Y442324D01*
X351086Y442387D01*
X351009Y442453D01*
X350934Y442521D01*
X350862Y442593D01*
X350793Y442667D01*
X350727Y442744D01*
X350664Y442823D01*
X350604Y442905D01*
X350547Y442989D01*
X350493Y443075D01*
X350443Y443163D01*
X350396Y443253D01*
X350352Y443344D01*
X350313Y443438D01*
X350276Y443532D01*
X350244Y443628D01*
X350215Y443726D01*
X350190Y443824D01*
X350169Y443923D01*
X350151Y444023D01*
X350138Y444123D01*
X350128Y444224D01*
X350122Y444326D01*
X350120Y444427D01*
X354988Y440207D02*
X355074Y440154D01*
X355158Y440097D01*
X355240Y440038D01*
X355320Y439975D01*
X355397Y439909D01*
X355472Y439841D01*
X355544Y439769D01*
X355613Y439695D01*
X355679Y439618D01*
X355742Y439539D01*
X355802Y439457D01*
X355859Y439373D01*
X355913Y439287D01*
X355963Y439199D01*
X356010Y439109D01*
X356054Y439018D01*
X356093Y438924D01*
X356130Y438830D01*
X356162Y438734D01*
X356191Y438636D01*
X356216Y438538D01*
X356237Y438439D01*
X356255Y438339D01*
X356268Y438239D01*
X356278Y438138D01*
X356284Y438036D01*
X356286Y437935D01*
X354988Y440207D02*
X351418Y442155D01*
X361248Y435339D02*
X366440Y435339D01*
X361248Y435339D02*
X361248Y447023D01*
X366440Y447023D01*
X365142Y441830D02*
X361248Y441830D01*
X371205Y447023D02*
X371205Y435339D01*
X371205Y447023D02*
X374450Y447023D01*
X374563Y447021D01*
X374676Y447015D01*
X374789Y447005D01*
X374902Y446991D01*
X375014Y446974D01*
X375125Y446952D01*
X375235Y446927D01*
X375345Y446897D01*
X375453Y446864D01*
X375560Y446827D01*
X375666Y446787D01*
X375770Y446742D01*
X375873Y446694D01*
X375974Y446643D01*
X376073Y446588D01*
X376170Y446530D01*
X376265Y446468D01*
X376358Y446403D01*
X376448Y446335D01*
X376536Y446264D01*
X376622Y446189D01*
X376705Y446112D01*
X376785Y446032D01*
X376862Y445949D01*
X376937Y445863D01*
X377008Y445775D01*
X377076Y445685D01*
X377141Y445592D01*
X377203Y445497D01*
X377261Y445400D01*
X377316Y445301D01*
X377367Y445200D01*
X377415Y445097D01*
X377460Y444993D01*
X377500Y444887D01*
X377537Y444780D01*
X377570Y444672D01*
X377600Y444562D01*
X377625Y444452D01*
X377647Y444341D01*
X377664Y444229D01*
X377678Y444116D01*
X377688Y444003D01*
X377694Y443890D01*
X377696Y443777D01*
X377694Y443664D01*
X377688Y443551D01*
X377678Y443438D01*
X377664Y443325D01*
X377647Y443213D01*
X377625Y443102D01*
X377600Y442992D01*
X377570Y442882D01*
X377537Y442774D01*
X377500Y442667D01*
X377460Y442561D01*
X377415Y442457D01*
X377367Y442354D01*
X377316Y442253D01*
X377261Y442154D01*
X377203Y442057D01*
X377141Y441962D01*
X377076Y441869D01*
X377008Y441779D01*
X376937Y441691D01*
X376862Y441605D01*
X376785Y441522D01*
X376705Y441442D01*
X376622Y441365D01*
X376536Y441290D01*
X376448Y441219D01*
X376358Y441151D01*
X376265Y441086D01*
X376170Y441024D01*
X376073Y440966D01*
X375974Y440911D01*
X375873Y440860D01*
X375770Y440812D01*
X375666Y440767D01*
X375560Y440727D01*
X375453Y440690D01*
X375345Y440657D01*
X375235Y440627D01*
X375125Y440602D01*
X375014Y440580D01*
X374902Y440563D01*
X374789Y440549D01*
X374676Y440539D01*
X374563Y440533D01*
X374450Y440531D01*
X374450Y440532D02*
X371205Y440532D01*
X375099Y440532D02*
X377696Y435339D01*
X385807Y435339D02*
X381912Y447023D01*
X389701Y447023D02*
X385807Y435339D01*
X393991Y438585D02*
X393991Y443777D01*
X393990Y443777D02*
X393992Y443890D01*
X393998Y444003D01*
X394008Y444116D01*
X394022Y444229D01*
X394039Y444341D01*
X394061Y444452D01*
X394086Y444562D01*
X394116Y444672D01*
X394149Y444780D01*
X394186Y444887D01*
X394226Y444993D01*
X394271Y445097D01*
X394319Y445200D01*
X394370Y445301D01*
X394425Y445400D01*
X394483Y445497D01*
X394545Y445592D01*
X394610Y445685D01*
X394678Y445775D01*
X394749Y445863D01*
X394824Y445949D01*
X394901Y446032D01*
X394981Y446112D01*
X395064Y446189D01*
X395150Y446264D01*
X395238Y446335D01*
X395328Y446403D01*
X395421Y446468D01*
X395516Y446530D01*
X395613Y446588D01*
X395712Y446643D01*
X395813Y446694D01*
X395916Y446742D01*
X396020Y446787D01*
X396126Y446827D01*
X396233Y446864D01*
X396341Y446897D01*
X396451Y446927D01*
X396561Y446952D01*
X396672Y446974D01*
X396784Y446991D01*
X396897Y447005D01*
X397010Y447015D01*
X397123Y447021D01*
X397236Y447023D01*
X397349Y447021D01*
X397462Y447015D01*
X397575Y447005D01*
X397688Y446991D01*
X397800Y446974D01*
X397911Y446952D01*
X398021Y446927D01*
X398131Y446897D01*
X398239Y446864D01*
X398346Y446827D01*
X398452Y446787D01*
X398556Y446742D01*
X398659Y446694D01*
X398760Y446643D01*
X398859Y446588D01*
X398956Y446530D01*
X399051Y446468D01*
X399144Y446403D01*
X399234Y446335D01*
X399322Y446264D01*
X399408Y446189D01*
X399491Y446112D01*
X399571Y446032D01*
X399648Y445949D01*
X399723Y445863D01*
X399794Y445775D01*
X399862Y445685D01*
X399927Y445592D01*
X399989Y445497D01*
X400047Y445400D01*
X400102Y445301D01*
X400153Y445200D01*
X400201Y445097D01*
X400246Y444993D01*
X400286Y444887D01*
X400323Y444780D01*
X400356Y444672D01*
X400386Y444562D01*
X400411Y444452D01*
X400433Y444341D01*
X400450Y444229D01*
X400464Y444116D01*
X400474Y444003D01*
X400480Y443890D01*
X400482Y443777D01*
X400482Y438585D01*
X400480Y438472D01*
X400474Y438359D01*
X400464Y438246D01*
X400450Y438133D01*
X400433Y438021D01*
X400411Y437910D01*
X400386Y437800D01*
X400356Y437690D01*
X400323Y437582D01*
X400286Y437475D01*
X400246Y437369D01*
X400201Y437265D01*
X400153Y437162D01*
X400102Y437061D01*
X400047Y436962D01*
X399989Y436865D01*
X399927Y436770D01*
X399862Y436677D01*
X399794Y436587D01*
X399723Y436499D01*
X399648Y436413D01*
X399571Y436330D01*
X399491Y436250D01*
X399408Y436173D01*
X399322Y436098D01*
X399234Y436027D01*
X399144Y435959D01*
X399051Y435894D01*
X398956Y435832D01*
X398859Y435774D01*
X398760Y435719D01*
X398659Y435668D01*
X398556Y435620D01*
X398452Y435575D01*
X398346Y435535D01*
X398239Y435498D01*
X398131Y435465D01*
X398021Y435435D01*
X397911Y435410D01*
X397800Y435388D01*
X397688Y435371D01*
X397575Y435357D01*
X397462Y435347D01*
X397349Y435341D01*
X397236Y435339D01*
X397123Y435341D01*
X397010Y435347D01*
X396897Y435357D01*
X396784Y435371D01*
X396672Y435388D01*
X396561Y435410D01*
X396451Y435435D01*
X396341Y435465D01*
X396233Y435498D01*
X396126Y435535D01*
X396020Y435575D01*
X395916Y435620D01*
X395813Y435668D01*
X395712Y435719D01*
X395613Y435774D01*
X395516Y435832D01*
X395421Y435894D01*
X395328Y435959D01*
X395238Y436027D01*
X395150Y436098D01*
X395064Y436173D01*
X394981Y436250D01*
X394901Y436330D01*
X394824Y436413D01*
X394749Y436499D01*
X394678Y436587D01*
X394610Y436677D01*
X394545Y436770D01*
X394483Y436865D01*
X394425Y436962D01*
X394370Y437061D01*
X394319Y437162D01*
X394271Y437265D01*
X394226Y437369D01*
X394186Y437475D01*
X394149Y437582D01*
X394116Y437690D01*
X394086Y437800D01*
X394061Y437910D01*
X394039Y438021D01*
X394022Y438133D01*
X394008Y438246D01*
X393998Y438359D01*
X393992Y438472D01*
X393990Y438585D01*
X408991Y447023D02*
X409098Y447021D01*
X409204Y447015D01*
X409310Y447005D01*
X409416Y446992D01*
X409522Y446974D01*
X409626Y446953D01*
X409730Y446928D01*
X409833Y446899D01*
X409934Y446867D01*
X410034Y446830D01*
X410133Y446790D01*
X410231Y446747D01*
X410327Y446700D01*
X410421Y446649D01*
X410513Y446595D01*
X410603Y446538D01*
X410691Y446478D01*
X410776Y446414D01*
X410859Y446347D01*
X410940Y446277D01*
X411018Y446205D01*
X411094Y446129D01*
X411166Y446051D01*
X411236Y445970D01*
X411303Y445887D01*
X411367Y445802D01*
X411427Y445714D01*
X411484Y445624D01*
X411538Y445532D01*
X411589Y445438D01*
X411636Y445342D01*
X411679Y445244D01*
X411719Y445145D01*
X411756Y445045D01*
X411788Y444944D01*
X411817Y444841D01*
X411842Y444737D01*
X411863Y444633D01*
X411881Y444527D01*
X411894Y444421D01*
X411904Y444315D01*
X411910Y444209D01*
X411912Y444102D01*
X408991Y447023D02*
X408870Y447021D01*
X408749Y447015D01*
X408629Y447005D01*
X408508Y446992D01*
X408389Y446974D01*
X408269Y446953D01*
X408151Y446928D01*
X408034Y446899D01*
X407917Y446866D01*
X407802Y446830D01*
X407688Y446789D01*
X407575Y446746D01*
X407463Y446698D01*
X407354Y446647D01*
X407246Y446592D01*
X407139Y446534D01*
X407035Y446473D01*
X406933Y446408D01*
X406833Y446340D01*
X406735Y446269D01*
X406639Y446195D01*
X406546Y446118D01*
X406456Y446037D01*
X406368Y445954D01*
X406283Y445868D01*
X406200Y445779D01*
X406121Y445688D01*
X406044Y445594D01*
X405971Y445498D01*
X405901Y445400D01*
X405834Y445299D01*
X405770Y445196D01*
X405710Y445091D01*
X405653Y444984D01*
X405599Y444876D01*
X405549Y444766D01*
X405503Y444654D01*
X405460Y444541D01*
X405421Y444426D01*
X410939Y441830D02*
X411018Y441907D01*
X411094Y441988D01*
X411167Y442071D01*
X411237Y442156D01*
X411304Y442244D01*
X411368Y442334D01*
X411428Y442426D01*
X411485Y442521D01*
X411539Y442617D01*
X411590Y442715D01*
X411637Y442815D01*
X411681Y442917D01*
X411721Y443020D01*
X411757Y443124D01*
X411789Y443230D01*
X411818Y443336D01*
X411843Y443444D01*
X411865Y443552D01*
X411882Y443662D01*
X411896Y443771D01*
X411905Y443881D01*
X411911Y443992D01*
X411913Y444102D01*
X410938Y441830D02*
X405421Y435339D01*
X411912Y435339D01*
D11*
X183500Y455300D02*
X74500Y455300D01*
X183500Y455300D02*
X183500Y529300D01*
X74500Y529300D01*
X74500Y455300D01*
D10*
X99690Y435339D02*
X99789Y435341D01*
X99889Y435347D01*
X99988Y435356D01*
X100086Y435369D01*
X100184Y435386D01*
X100282Y435407D01*
X100378Y435432D01*
X100473Y435460D01*
X100567Y435492D01*
X100660Y435527D01*
X100752Y435566D01*
X100842Y435609D01*
X100930Y435654D01*
X101017Y435704D01*
X101101Y435756D01*
X101184Y435812D01*
X101264Y435870D01*
X101342Y435932D01*
X101417Y435997D01*
X101490Y436065D01*
X101560Y436135D01*
X101628Y436208D01*
X101693Y436283D01*
X101755Y436361D01*
X101813Y436441D01*
X101869Y436524D01*
X101921Y436608D01*
X101971Y436695D01*
X102016Y436783D01*
X102059Y436873D01*
X102098Y436965D01*
X102133Y437058D01*
X102165Y437152D01*
X102193Y437247D01*
X102218Y437343D01*
X102239Y437441D01*
X102256Y437539D01*
X102269Y437637D01*
X102278Y437736D01*
X102284Y437836D01*
X102286Y437935D01*
X99690Y435339D02*
X99546Y435341D01*
X99401Y435347D01*
X99257Y435356D01*
X99114Y435369D01*
X98970Y435386D01*
X98827Y435407D01*
X98685Y435432D01*
X98544Y435460D01*
X98403Y435492D01*
X98263Y435528D01*
X98124Y435567D01*
X97986Y435610D01*
X97850Y435657D01*
X97714Y435707D01*
X97580Y435761D01*
X97448Y435818D01*
X97317Y435879D01*
X97188Y435943D01*
X97060Y436011D01*
X96934Y436081D01*
X96810Y436156D01*
X96689Y436233D01*
X96569Y436314D01*
X96451Y436397D01*
X96336Y436484D01*
X96223Y436574D01*
X96112Y436667D01*
X96004Y436762D01*
X95898Y436861D01*
X95795Y436962D01*
X96120Y444427D02*
X96122Y444526D01*
X96128Y444626D01*
X96137Y444725D01*
X96150Y444823D01*
X96167Y444921D01*
X96188Y445019D01*
X96213Y445115D01*
X96241Y445210D01*
X96273Y445304D01*
X96308Y445397D01*
X96347Y445489D01*
X96390Y445579D01*
X96435Y445667D01*
X96485Y445754D01*
X96537Y445838D01*
X96593Y445921D01*
X96651Y446001D01*
X96713Y446079D01*
X96778Y446154D01*
X96846Y446227D01*
X96916Y446297D01*
X96989Y446365D01*
X97064Y446430D01*
X97142Y446492D01*
X97222Y446550D01*
X97305Y446606D01*
X97389Y446658D01*
X97476Y446708D01*
X97564Y446753D01*
X97654Y446796D01*
X97746Y446835D01*
X97839Y446870D01*
X97933Y446902D01*
X98028Y446930D01*
X98125Y446955D01*
X98222Y446976D01*
X98320Y446993D01*
X98418Y447006D01*
X98517Y447015D01*
X98617Y447021D01*
X98716Y447023D01*
X98852Y447021D01*
X98988Y447015D01*
X99124Y447006D01*
X99260Y446993D01*
X99395Y446975D01*
X99529Y446955D01*
X99663Y446930D01*
X99797Y446902D01*
X99929Y446869D01*
X100060Y446834D01*
X100191Y446794D01*
X100320Y446751D01*
X100448Y446705D01*
X100574Y446654D01*
X100700Y446601D01*
X100823Y446543D01*
X100945Y446483D01*
X101065Y446419D01*
X101184Y446351D01*
X101300Y446281D01*
X101414Y446207D01*
X101527Y446130D01*
X101637Y446049D01*
X97418Y442155D02*
X97332Y442208D01*
X97248Y442265D01*
X97166Y442324D01*
X97086Y442387D01*
X97009Y442453D01*
X96934Y442521D01*
X96862Y442593D01*
X96793Y442667D01*
X96727Y442744D01*
X96664Y442823D01*
X96604Y442905D01*
X96547Y442989D01*
X96493Y443075D01*
X96443Y443163D01*
X96396Y443253D01*
X96352Y443344D01*
X96313Y443438D01*
X96276Y443532D01*
X96244Y443628D01*
X96215Y443726D01*
X96190Y443824D01*
X96169Y443923D01*
X96151Y444023D01*
X96138Y444123D01*
X96128Y444224D01*
X96122Y444326D01*
X96120Y444427D01*
X100988Y440207D02*
X101074Y440154D01*
X101158Y440097D01*
X101240Y440038D01*
X101320Y439975D01*
X101397Y439909D01*
X101472Y439841D01*
X101544Y439769D01*
X101613Y439695D01*
X101679Y439618D01*
X101742Y439539D01*
X101802Y439457D01*
X101859Y439373D01*
X101913Y439287D01*
X101963Y439199D01*
X102010Y439109D01*
X102054Y439018D01*
X102093Y438924D01*
X102130Y438830D01*
X102162Y438734D01*
X102191Y438636D01*
X102216Y438538D01*
X102237Y438439D01*
X102255Y438339D01*
X102268Y438239D01*
X102278Y438138D01*
X102284Y438036D01*
X102286Y437935D01*
X100988Y440207D02*
X97418Y442155D01*
X107248Y435339D02*
X112440Y435339D01*
X107248Y435339D02*
X107248Y447023D01*
X112440Y447023D01*
X111142Y441830D02*
X107248Y441830D01*
X117205Y447023D02*
X117205Y435339D01*
X117205Y447023D02*
X120450Y447023D01*
X120563Y447021D01*
X120676Y447015D01*
X120789Y447005D01*
X120902Y446991D01*
X121014Y446974D01*
X121125Y446952D01*
X121235Y446927D01*
X121345Y446897D01*
X121453Y446864D01*
X121560Y446827D01*
X121666Y446787D01*
X121770Y446742D01*
X121873Y446694D01*
X121974Y446643D01*
X122073Y446588D01*
X122170Y446530D01*
X122265Y446468D01*
X122358Y446403D01*
X122448Y446335D01*
X122536Y446264D01*
X122622Y446189D01*
X122705Y446112D01*
X122785Y446032D01*
X122862Y445949D01*
X122937Y445863D01*
X123008Y445775D01*
X123076Y445685D01*
X123141Y445592D01*
X123203Y445497D01*
X123261Y445400D01*
X123316Y445301D01*
X123367Y445200D01*
X123415Y445097D01*
X123460Y444993D01*
X123500Y444887D01*
X123537Y444780D01*
X123570Y444672D01*
X123600Y444562D01*
X123625Y444452D01*
X123647Y444341D01*
X123664Y444229D01*
X123678Y444116D01*
X123688Y444003D01*
X123694Y443890D01*
X123696Y443777D01*
X123694Y443664D01*
X123688Y443551D01*
X123678Y443438D01*
X123664Y443325D01*
X123647Y443213D01*
X123625Y443102D01*
X123600Y442992D01*
X123570Y442882D01*
X123537Y442774D01*
X123500Y442667D01*
X123460Y442561D01*
X123415Y442457D01*
X123367Y442354D01*
X123316Y442253D01*
X123261Y442154D01*
X123203Y442057D01*
X123141Y441962D01*
X123076Y441869D01*
X123008Y441779D01*
X122937Y441691D01*
X122862Y441605D01*
X122785Y441522D01*
X122705Y441442D01*
X122622Y441365D01*
X122536Y441290D01*
X122448Y441219D01*
X122358Y441151D01*
X122265Y441086D01*
X122170Y441024D01*
X122073Y440966D01*
X121974Y440911D01*
X121873Y440860D01*
X121770Y440812D01*
X121666Y440767D01*
X121560Y440727D01*
X121453Y440690D01*
X121345Y440657D01*
X121235Y440627D01*
X121125Y440602D01*
X121014Y440580D01*
X120902Y440563D01*
X120789Y440549D01*
X120676Y440539D01*
X120563Y440533D01*
X120450Y440531D01*
X120450Y440532D02*
X117205Y440532D01*
X121099Y440532D02*
X123696Y435339D01*
X131807Y435339D02*
X127912Y447023D01*
X135701Y447023D02*
X131807Y435339D01*
X139991Y438585D02*
X139991Y443777D01*
X139990Y443777D02*
X139992Y443890D01*
X139998Y444003D01*
X140008Y444116D01*
X140022Y444229D01*
X140039Y444341D01*
X140061Y444452D01*
X140086Y444562D01*
X140116Y444672D01*
X140149Y444780D01*
X140186Y444887D01*
X140226Y444993D01*
X140271Y445097D01*
X140319Y445200D01*
X140370Y445301D01*
X140425Y445400D01*
X140483Y445497D01*
X140545Y445592D01*
X140610Y445685D01*
X140678Y445775D01*
X140749Y445863D01*
X140824Y445949D01*
X140901Y446032D01*
X140981Y446112D01*
X141064Y446189D01*
X141150Y446264D01*
X141238Y446335D01*
X141328Y446403D01*
X141421Y446468D01*
X141516Y446530D01*
X141613Y446588D01*
X141712Y446643D01*
X141813Y446694D01*
X141916Y446742D01*
X142020Y446787D01*
X142126Y446827D01*
X142233Y446864D01*
X142341Y446897D01*
X142451Y446927D01*
X142561Y446952D01*
X142672Y446974D01*
X142784Y446991D01*
X142897Y447005D01*
X143010Y447015D01*
X143123Y447021D01*
X143236Y447023D01*
X143349Y447021D01*
X143462Y447015D01*
X143575Y447005D01*
X143688Y446991D01*
X143800Y446974D01*
X143911Y446952D01*
X144021Y446927D01*
X144131Y446897D01*
X144239Y446864D01*
X144346Y446827D01*
X144452Y446787D01*
X144556Y446742D01*
X144659Y446694D01*
X144760Y446643D01*
X144859Y446588D01*
X144956Y446530D01*
X145051Y446468D01*
X145144Y446403D01*
X145234Y446335D01*
X145322Y446264D01*
X145408Y446189D01*
X145491Y446112D01*
X145571Y446032D01*
X145648Y445949D01*
X145723Y445863D01*
X145794Y445775D01*
X145862Y445685D01*
X145927Y445592D01*
X145989Y445497D01*
X146047Y445400D01*
X146102Y445301D01*
X146153Y445200D01*
X146201Y445097D01*
X146246Y444993D01*
X146286Y444887D01*
X146323Y444780D01*
X146356Y444672D01*
X146386Y444562D01*
X146411Y444452D01*
X146433Y444341D01*
X146450Y444229D01*
X146464Y444116D01*
X146474Y444003D01*
X146480Y443890D01*
X146482Y443777D01*
X146482Y438585D01*
X146480Y438472D01*
X146474Y438359D01*
X146464Y438246D01*
X146450Y438133D01*
X146433Y438021D01*
X146411Y437910D01*
X146386Y437800D01*
X146356Y437690D01*
X146323Y437582D01*
X146286Y437475D01*
X146246Y437369D01*
X146201Y437265D01*
X146153Y437162D01*
X146102Y437061D01*
X146047Y436962D01*
X145989Y436865D01*
X145927Y436770D01*
X145862Y436677D01*
X145794Y436587D01*
X145723Y436499D01*
X145648Y436413D01*
X145571Y436330D01*
X145491Y436250D01*
X145408Y436173D01*
X145322Y436098D01*
X145234Y436027D01*
X145144Y435959D01*
X145051Y435894D01*
X144956Y435832D01*
X144859Y435774D01*
X144760Y435719D01*
X144659Y435668D01*
X144556Y435620D01*
X144452Y435575D01*
X144346Y435535D01*
X144239Y435498D01*
X144131Y435465D01*
X144021Y435435D01*
X143911Y435410D01*
X143800Y435388D01*
X143688Y435371D01*
X143575Y435357D01*
X143462Y435347D01*
X143349Y435341D01*
X143236Y435339D01*
X143123Y435341D01*
X143010Y435347D01*
X142897Y435357D01*
X142784Y435371D01*
X142672Y435388D01*
X142561Y435410D01*
X142451Y435435D01*
X142341Y435465D01*
X142233Y435498D01*
X142126Y435535D01*
X142020Y435575D01*
X141916Y435620D01*
X141813Y435668D01*
X141712Y435719D01*
X141613Y435774D01*
X141516Y435832D01*
X141421Y435894D01*
X141328Y435959D01*
X141238Y436027D01*
X141150Y436098D01*
X141064Y436173D01*
X140981Y436250D01*
X140901Y436330D01*
X140824Y436413D01*
X140749Y436499D01*
X140678Y436587D01*
X140610Y436677D01*
X140545Y436770D01*
X140483Y436865D01*
X140425Y436962D01*
X140370Y437061D01*
X140319Y437162D01*
X140271Y437265D01*
X140226Y437369D01*
X140186Y437475D01*
X140149Y437582D01*
X140116Y437690D01*
X140086Y437800D01*
X140061Y437910D01*
X140039Y438021D01*
X140022Y438133D01*
X140008Y438246D01*
X139998Y438359D01*
X139992Y438472D01*
X139990Y438585D01*
X151421Y435339D02*
X154666Y435339D01*
X154779Y435341D01*
X154892Y435347D01*
X155005Y435357D01*
X155118Y435371D01*
X155230Y435388D01*
X155341Y435410D01*
X155451Y435435D01*
X155561Y435465D01*
X155669Y435498D01*
X155776Y435535D01*
X155882Y435575D01*
X155986Y435620D01*
X156089Y435668D01*
X156190Y435719D01*
X156289Y435774D01*
X156386Y435832D01*
X156481Y435894D01*
X156574Y435959D01*
X156664Y436027D01*
X156752Y436098D01*
X156838Y436173D01*
X156921Y436250D01*
X157001Y436330D01*
X157078Y436413D01*
X157153Y436499D01*
X157224Y436587D01*
X157292Y436677D01*
X157357Y436770D01*
X157419Y436865D01*
X157477Y436962D01*
X157532Y437061D01*
X157583Y437162D01*
X157631Y437265D01*
X157676Y437369D01*
X157716Y437475D01*
X157753Y437582D01*
X157786Y437690D01*
X157816Y437800D01*
X157841Y437910D01*
X157863Y438021D01*
X157880Y438133D01*
X157894Y438246D01*
X157904Y438359D01*
X157910Y438472D01*
X157912Y438585D01*
X157910Y438698D01*
X157904Y438811D01*
X157894Y438924D01*
X157880Y439037D01*
X157863Y439149D01*
X157841Y439260D01*
X157816Y439370D01*
X157786Y439480D01*
X157753Y439588D01*
X157716Y439695D01*
X157676Y439801D01*
X157631Y439905D01*
X157583Y440008D01*
X157532Y440109D01*
X157477Y440208D01*
X157419Y440305D01*
X157357Y440400D01*
X157292Y440493D01*
X157224Y440583D01*
X157153Y440671D01*
X157078Y440757D01*
X157001Y440840D01*
X156921Y440920D01*
X156838Y440997D01*
X156752Y441072D01*
X156664Y441143D01*
X156574Y441211D01*
X156481Y441276D01*
X156386Y441338D01*
X156289Y441396D01*
X156190Y441451D01*
X156089Y441502D01*
X155986Y441550D01*
X155882Y441595D01*
X155776Y441635D01*
X155669Y441672D01*
X155561Y441705D01*
X155451Y441735D01*
X155341Y441760D01*
X155230Y441782D01*
X155118Y441799D01*
X155005Y441813D01*
X154892Y441823D01*
X154779Y441829D01*
X154666Y441831D01*
X155316Y447023D02*
X151421Y447023D01*
X155316Y447023D02*
X155417Y447021D01*
X155517Y447015D01*
X155617Y447005D01*
X155717Y446992D01*
X155816Y446974D01*
X155915Y446953D01*
X156012Y446928D01*
X156109Y446899D01*
X156204Y446866D01*
X156298Y446830D01*
X156390Y446790D01*
X156481Y446747D01*
X156570Y446700D01*
X156657Y446650D01*
X156743Y446596D01*
X156826Y446539D01*
X156906Y446479D01*
X156985Y446416D01*
X157061Y446349D01*
X157134Y446280D01*
X157204Y446208D01*
X157272Y446134D01*
X157337Y446057D01*
X157398Y445977D01*
X157457Y445895D01*
X157512Y445811D01*
X157564Y445725D01*
X157613Y445637D01*
X157658Y445547D01*
X157700Y445455D01*
X157738Y445362D01*
X157772Y445267D01*
X157803Y445172D01*
X157830Y445075D01*
X157853Y444977D01*
X157873Y444878D01*
X157888Y444778D01*
X157900Y444678D01*
X157908Y444578D01*
X157912Y444477D01*
X157912Y444377D01*
X157908Y444276D01*
X157900Y444176D01*
X157888Y444076D01*
X157873Y443976D01*
X157853Y443877D01*
X157830Y443779D01*
X157803Y443682D01*
X157772Y443587D01*
X157738Y443492D01*
X157700Y443399D01*
X157658Y443307D01*
X157613Y443217D01*
X157564Y443129D01*
X157512Y443043D01*
X157457Y442959D01*
X157398Y442877D01*
X157337Y442797D01*
X157272Y442720D01*
X157204Y442646D01*
X157134Y442574D01*
X157061Y442505D01*
X156985Y442438D01*
X156906Y442375D01*
X156826Y442315D01*
X156743Y442258D01*
X156657Y442204D01*
X156570Y442154D01*
X156481Y442107D01*
X156390Y442064D01*
X156298Y442024D01*
X156204Y441988D01*
X156109Y441955D01*
X156012Y441926D01*
X155915Y441901D01*
X155816Y441880D01*
X155717Y441862D01*
X155617Y441849D01*
X155517Y441839D01*
X155417Y441833D01*
X155316Y441831D01*
X155316Y441830D02*
X152719Y441830D01*
D11*
X90800Y374000D02*
X90800Y265000D01*
X90800Y374000D02*
X16800Y374000D01*
X16800Y265000D01*
X90800Y265000D01*
D10*
X110761Y290190D02*
X110759Y290289D01*
X110753Y290389D01*
X110744Y290488D01*
X110731Y290586D01*
X110714Y290684D01*
X110693Y290782D01*
X110668Y290878D01*
X110640Y290973D01*
X110608Y291067D01*
X110573Y291160D01*
X110534Y291252D01*
X110491Y291342D01*
X110446Y291430D01*
X110396Y291517D01*
X110344Y291601D01*
X110288Y291684D01*
X110230Y291764D01*
X110168Y291842D01*
X110103Y291917D01*
X110035Y291990D01*
X109965Y292060D01*
X109892Y292128D01*
X109817Y292193D01*
X109739Y292255D01*
X109659Y292313D01*
X109576Y292369D01*
X109492Y292421D01*
X109405Y292471D01*
X109317Y292516D01*
X109227Y292559D01*
X109135Y292598D01*
X109042Y292633D01*
X108948Y292665D01*
X108853Y292693D01*
X108757Y292718D01*
X108659Y292739D01*
X108561Y292756D01*
X108463Y292769D01*
X108364Y292778D01*
X108264Y292784D01*
X108165Y292786D01*
X110761Y290190D02*
X110759Y290046D01*
X110753Y289901D01*
X110744Y289757D01*
X110731Y289614D01*
X110714Y289470D01*
X110693Y289327D01*
X110668Y289185D01*
X110640Y289044D01*
X110608Y288903D01*
X110572Y288763D01*
X110533Y288624D01*
X110490Y288486D01*
X110443Y288350D01*
X110393Y288214D01*
X110339Y288080D01*
X110282Y287948D01*
X110221Y287817D01*
X110157Y287688D01*
X110089Y287560D01*
X110019Y287434D01*
X109944Y287310D01*
X109867Y287189D01*
X109786Y287069D01*
X109703Y286951D01*
X109616Y286836D01*
X109526Y286723D01*
X109433Y286612D01*
X109338Y286504D01*
X109239Y286398D01*
X109138Y286295D01*
X101673Y286620D02*
X101574Y286622D01*
X101474Y286628D01*
X101375Y286637D01*
X101277Y286650D01*
X101179Y286667D01*
X101081Y286688D01*
X100985Y286713D01*
X100890Y286741D01*
X100796Y286773D01*
X100703Y286808D01*
X100611Y286847D01*
X100521Y286890D01*
X100433Y286935D01*
X100346Y286985D01*
X100262Y287037D01*
X100179Y287093D01*
X100099Y287151D01*
X100021Y287213D01*
X99946Y287278D01*
X99873Y287346D01*
X99803Y287416D01*
X99735Y287489D01*
X99670Y287564D01*
X99608Y287642D01*
X99550Y287722D01*
X99494Y287805D01*
X99442Y287889D01*
X99392Y287976D01*
X99347Y288064D01*
X99304Y288154D01*
X99265Y288246D01*
X99230Y288339D01*
X99198Y288433D01*
X99170Y288528D01*
X99145Y288624D01*
X99124Y288722D01*
X99107Y288820D01*
X99094Y288918D01*
X99085Y289017D01*
X99079Y289117D01*
X99077Y289216D01*
X99079Y289352D01*
X99085Y289488D01*
X99094Y289624D01*
X99107Y289760D01*
X99125Y289895D01*
X99145Y290029D01*
X99170Y290163D01*
X99198Y290297D01*
X99231Y290429D01*
X99266Y290560D01*
X99306Y290691D01*
X99349Y290820D01*
X99395Y290948D01*
X99446Y291074D01*
X99499Y291200D01*
X99557Y291323D01*
X99617Y291445D01*
X99681Y291565D01*
X99749Y291684D01*
X99819Y291800D01*
X99893Y291914D01*
X99970Y292027D01*
X100051Y292137D01*
X103945Y287918D02*
X103892Y287832D01*
X103835Y287748D01*
X103776Y287666D01*
X103713Y287586D01*
X103647Y287509D01*
X103579Y287434D01*
X103507Y287362D01*
X103433Y287293D01*
X103356Y287227D01*
X103277Y287164D01*
X103195Y287104D01*
X103111Y287047D01*
X103025Y286993D01*
X102937Y286943D01*
X102847Y286896D01*
X102756Y286852D01*
X102662Y286813D01*
X102568Y286776D01*
X102472Y286744D01*
X102374Y286715D01*
X102276Y286690D01*
X102177Y286669D01*
X102077Y286651D01*
X101977Y286638D01*
X101876Y286628D01*
X101774Y286622D01*
X101673Y286620D01*
X105893Y291488D02*
X105946Y291574D01*
X106003Y291658D01*
X106062Y291740D01*
X106125Y291820D01*
X106191Y291897D01*
X106259Y291972D01*
X106331Y292044D01*
X106405Y292113D01*
X106482Y292179D01*
X106561Y292242D01*
X106643Y292302D01*
X106727Y292359D01*
X106813Y292413D01*
X106901Y292463D01*
X106991Y292510D01*
X107082Y292554D01*
X107176Y292593D01*
X107270Y292630D01*
X107366Y292662D01*
X107464Y292691D01*
X107562Y292716D01*
X107661Y292737D01*
X107761Y292755D01*
X107861Y292768D01*
X107962Y292778D01*
X108064Y292784D01*
X108165Y292786D01*
X105893Y291488D02*
X103945Y287918D01*
X110761Y297748D02*
X110761Y302940D01*
X110761Y297748D02*
X99077Y297748D01*
X99077Y302940D01*
X104270Y301642D02*
X104270Y297748D01*
X99077Y307705D02*
X110761Y307705D01*
X99077Y307705D02*
X99077Y310950D01*
X99079Y311063D01*
X99085Y311176D01*
X99095Y311289D01*
X99109Y311402D01*
X99126Y311514D01*
X99148Y311625D01*
X99173Y311735D01*
X99203Y311845D01*
X99236Y311953D01*
X99273Y312060D01*
X99313Y312166D01*
X99358Y312270D01*
X99406Y312373D01*
X99457Y312474D01*
X99512Y312573D01*
X99570Y312670D01*
X99632Y312765D01*
X99697Y312858D01*
X99765Y312948D01*
X99836Y313036D01*
X99911Y313122D01*
X99988Y313205D01*
X100068Y313285D01*
X100151Y313362D01*
X100237Y313437D01*
X100325Y313508D01*
X100415Y313576D01*
X100508Y313641D01*
X100603Y313703D01*
X100700Y313761D01*
X100799Y313816D01*
X100900Y313867D01*
X101003Y313915D01*
X101107Y313960D01*
X101213Y314000D01*
X101320Y314037D01*
X101428Y314070D01*
X101538Y314100D01*
X101648Y314125D01*
X101759Y314147D01*
X101871Y314164D01*
X101984Y314178D01*
X102097Y314188D01*
X102210Y314194D01*
X102323Y314196D01*
X102436Y314194D01*
X102549Y314188D01*
X102662Y314178D01*
X102775Y314164D01*
X102887Y314147D01*
X102998Y314125D01*
X103108Y314100D01*
X103218Y314070D01*
X103326Y314037D01*
X103433Y314000D01*
X103539Y313960D01*
X103643Y313915D01*
X103746Y313867D01*
X103847Y313816D01*
X103946Y313761D01*
X104043Y313703D01*
X104138Y313641D01*
X104231Y313576D01*
X104321Y313508D01*
X104409Y313437D01*
X104495Y313362D01*
X104578Y313285D01*
X104658Y313205D01*
X104735Y313122D01*
X104810Y313036D01*
X104881Y312948D01*
X104949Y312858D01*
X105014Y312765D01*
X105076Y312670D01*
X105134Y312573D01*
X105189Y312474D01*
X105240Y312373D01*
X105288Y312270D01*
X105333Y312166D01*
X105373Y312060D01*
X105410Y311953D01*
X105443Y311845D01*
X105473Y311735D01*
X105498Y311625D01*
X105520Y311514D01*
X105537Y311402D01*
X105551Y311289D01*
X105561Y311176D01*
X105567Y311063D01*
X105569Y310950D01*
X105568Y310950D02*
X105568Y307705D01*
X105568Y311599D02*
X110761Y314196D01*
X110761Y322307D02*
X99077Y318412D01*
X99077Y326201D02*
X110761Y322307D01*
X107515Y330491D02*
X102323Y330491D01*
X102323Y330490D02*
X102210Y330492D01*
X102097Y330498D01*
X101984Y330508D01*
X101871Y330522D01*
X101759Y330539D01*
X101648Y330561D01*
X101538Y330586D01*
X101428Y330616D01*
X101320Y330649D01*
X101213Y330686D01*
X101107Y330726D01*
X101003Y330771D01*
X100900Y330819D01*
X100799Y330870D01*
X100700Y330925D01*
X100603Y330983D01*
X100508Y331045D01*
X100415Y331110D01*
X100325Y331178D01*
X100237Y331249D01*
X100151Y331324D01*
X100068Y331401D01*
X99988Y331481D01*
X99911Y331564D01*
X99836Y331650D01*
X99765Y331738D01*
X99697Y331828D01*
X99632Y331921D01*
X99570Y332016D01*
X99512Y332113D01*
X99457Y332212D01*
X99406Y332313D01*
X99358Y332416D01*
X99313Y332520D01*
X99273Y332626D01*
X99236Y332733D01*
X99203Y332841D01*
X99173Y332951D01*
X99148Y333061D01*
X99126Y333172D01*
X99109Y333284D01*
X99095Y333397D01*
X99085Y333510D01*
X99079Y333623D01*
X99077Y333736D01*
X99079Y333849D01*
X99085Y333962D01*
X99095Y334075D01*
X99109Y334188D01*
X99126Y334300D01*
X99148Y334411D01*
X99173Y334521D01*
X99203Y334631D01*
X99236Y334739D01*
X99273Y334846D01*
X99313Y334952D01*
X99358Y335056D01*
X99406Y335159D01*
X99457Y335260D01*
X99512Y335359D01*
X99570Y335456D01*
X99632Y335551D01*
X99697Y335644D01*
X99765Y335734D01*
X99836Y335822D01*
X99911Y335908D01*
X99988Y335991D01*
X100068Y336071D01*
X100151Y336148D01*
X100237Y336223D01*
X100325Y336294D01*
X100415Y336362D01*
X100508Y336427D01*
X100603Y336489D01*
X100700Y336547D01*
X100799Y336602D01*
X100900Y336653D01*
X101003Y336701D01*
X101107Y336746D01*
X101213Y336786D01*
X101320Y336823D01*
X101428Y336856D01*
X101538Y336886D01*
X101648Y336911D01*
X101759Y336933D01*
X101871Y336950D01*
X101984Y336964D01*
X102097Y336974D01*
X102210Y336980D01*
X102323Y336982D01*
X107515Y336982D01*
X107628Y336980D01*
X107741Y336974D01*
X107854Y336964D01*
X107967Y336950D01*
X108079Y336933D01*
X108190Y336911D01*
X108300Y336886D01*
X108410Y336856D01*
X108518Y336823D01*
X108625Y336786D01*
X108731Y336746D01*
X108835Y336701D01*
X108938Y336653D01*
X109039Y336602D01*
X109138Y336547D01*
X109235Y336489D01*
X109330Y336427D01*
X109423Y336362D01*
X109513Y336294D01*
X109601Y336223D01*
X109687Y336148D01*
X109770Y336071D01*
X109850Y335991D01*
X109927Y335908D01*
X110002Y335822D01*
X110073Y335734D01*
X110141Y335644D01*
X110206Y335551D01*
X110268Y335456D01*
X110326Y335359D01*
X110381Y335260D01*
X110432Y335159D01*
X110480Y335056D01*
X110525Y334952D01*
X110565Y334846D01*
X110602Y334739D01*
X110635Y334631D01*
X110665Y334521D01*
X110690Y334411D01*
X110712Y334300D01*
X110729Y334188D01*
X110743Y334075D01*
X110753Y333962D01*
X110759Y333849D01*
X110761Y333736D01*
X110759Y333623D01*
X110753Y333510D01*
X110743Y333397D01*
X110729Y333284D01*
X110712Y333172D01*
X110690Y333061D01*
X110665Y332951D01*
X110635Y332841D01*
X110602Y332733D01*
X110565Y332626D01*
X110525Y332520D01*
X110480Y332416D01*
X110432Y332313D01*
X110381Y332212D01*
X110326Y332113D01*
X110268Y332016D01*
X110206Y331921D01*
X110141Y331828D01*
X110073Y331738D01*
X110002Y331650D01*
X109927Y331564D01*
X109850Y331481D01*
X109770Y331401D01*
X109687Y331324D01*
X109601Y331249D01*
X109513Y331178D01*
X109423Y331110D01*
X109330Y331045D01*
X109235Y330983D01*
X109138Y330925D01*
X109039Y330870D01*
X108938Y330819D01*
X108835Y330771D01*
X108731Y330726D01*
X108625Y330686D01*
X108518Y330649D01*
X108410Y330616D01*
X108300Y330586D01*
X108190Y330561D01*
X108079Y330539D01*
X107967Y330522D01*
X107854Y330508D01*
X107741Y330498D01*
X107628Y330492D01*
X107515Y330490D01*
X108165Y341921D02*
X99077Y344517D01*
X108165Y341921D02*
X108165Y348412D01*
X105568Y346465D02*
X110761Y346465D01*
D11*
X104700Y103500D02*
X174700Y103500D01*
X104700Y103500D02*
X100700Y103500D01*
X100700Y29500D01*
X104700Y29500D01*
X174700Y29500D01*
X174700Y103500D01*
X104700Y103500D02*
X104700Y29500D01*
D10*
X112683Y111777D02*
X112782Y111779D01*
X112882Y111785D01*
X112981Y111794D01*
X113079Y111807D01*
X113177Y111824D01*
X113275Y111845D01*
X113371Y111870D01*
X113466Y111898D01*
X113560Y111930D01*
X113653Y111965D01*
X113745Y112004D01*
X113835Y112047D01*
X113923Y112092D01*
X114010Y112142D01*
X114094Y112194D01*
X114177Y112250D01*
X114257Y112308D01*
X114335Y112370D01*
X114410Y112435D01*
X114483Y112503D01*
X114553Y112573D01*
X114621Y112646D01*
X114686Y112721D01*
X114748Y112799D01*
X114806Y112879D01*
X114862Y112962D01*
X114914Y113046D01*
X114964Y113133D01*
X115009Y113221D01*
X115052Y113311D01*
X115091Y113403D01*
X115126Y113496D01*
X115158Y113590D01*
X115186Y113685D01*
X115211Y113781D01*
X115232Y113879D01*
X115249Y113977D01*
X115262Y114075D01*
X115271Y114174D01*
X115277Y114274D01*
X115279Y114373D01*
X112683Y111777D02*
X112539Y111779D01*
X112394Y111785D01*
X112250Y111794D01*
X112107Y111807D01*
X111963Y111824D01*
X111820Y111845D01*
X111678Y111870D01*
X111537Y111898D01*
X111396Y111930D01*
X111256Y111966D01*
X111117Y112005D01*
X110979Y112048D01*
X110843Y112095D01*
X110707Y112145D01*
X110573Y112199D01*
X110441Y112256D01*
X110310Y112317D01*
X110181Y112381D01*
X110053Y112449D01*
X109927Y112519D01*
X109803Y112594D01*
X109682Y112671D01*
X109562Y112752D01*
X109444Y112835D01*
X109329Y112922D01*
X109216Y113012D01*
X109105Y113105D01*
X108997Y113200D01*
X108891Y113299D01*
X108788Y113400D01*
X109113Y120865D02*
X109115Y120964D01*
X109121Y121064D01*
X109130Y121163D01*
X109143Y121261D01*
X109160Y121359D01*
X109181Y121457D01*
X109206Y121553D01*
X109234Y121648D01*
X109266Y121742D01*
X109301Y121835D01*
X109340Y121927D01*
X109383Y122017D01*
X109428Y122105D01*
X109478Y122192D01*
X109530Y122276D01*
X109586Y122359D01*
X109644Y122439D01*
X109706Y122517D01*
X109771Y122592D01*
X109839Y122665D01*
X109909Y122735D01*
X109982Y122803D01*
X110057Y122868D01*
X110135Y122930D01*
X110215Y122988D01*
X110298Y123044D01*
X110382Y123096D01*
X110469Y123146D01*
X110557Y123191D01*
X110647Y123234D01*
X110739Y123273D01*
X110832Y123308D01*
X110926Y123340D01*
X111021Y123368D01*
X111118Y123393D01*
X111215Y123414D01*
X111313Y123431D01*
X111411Y123444D01*
X111510Y123453D01*
X111610Y123459D01*
X111709Y123461D01*
X111845Y123459D01*
X111981Y123453D01*
X112117Y123444D01*
X112253Y123431D01*
X112388Y123413D01*
X112522Y123393D01*
X112656Y123368D01*
X112790Y123340D01*
X112922Y123307D01*
X113053Y123272D01*
X113184Y123232D01*
X113313Y123189D01*
X113441Y123143D01*
X113567Y123092D01*
X113693Y123039D01*
X113816Y122981D01*
X113938Y122921D01*
X114058Y122857D01*
X114177Y122789D01*
X114293Y122719D01*
X114407Y122645D01*
X114520Y122568D01*
X114630Y122487D01*
X110411Y118593D02*
X110325Y118646D01*
X110241Y118703D01*
X110159Y118762D01*
X110079Y118825D01*
X110002Y118891D01*
X109927Y118959D01*
X109855Y119031D01*
X109786Y119105D01*
X109720Y119182D01*
X109657Y119261D01*
X109597Y119343D01*
X109540Y119427D01*
X109486Y119513D01*
X109436Y119601D01*
X109389Y119691D01*
X109345Y119782D01*
X109306Y119876D01*
X109269Y119970D01*
X109237Y120066D01*
X109208Y120164D01*
X109183Y120262D01*
X109162Y120361D01*
X109144Y120461D01*
X109131Y120561D01*
X109121Y120662D01*
X109115Y120764D01*
X109113Y120865D01*
X113981Y116645D02*
X114067Y116592D01*
X114151Y116535D01*
X114233Y116476D01*
X114313Y116413D01*
X114390Y116347D01*
X114465Y116279D01*
X114537Y116207D01*
X114606Y116133D01*
X114672Y116056D01*
X114735Y115977D01*
X114795Y115895D01*
X114852Y115811D01*
X114906Y115725D01*
X114956Y115637D01*
X115003Y115547D01*
X115047Y115456D01*
X115086Y115362D01*
X115123Y115268D01*
X115155Y115172D01*
X115184Y115074D01*
X115209Y114976D01*
X115230Y114877D01*
X115248Y114777D01*
X115261Y114677D01*
X115271Y114576D01*
X115277Y114474D01*
X115279Y114373D01*
X113981Y116645D02*
X110411Y118593D01*
X119414Y123461D02*
X122010Y111777D01*
X124607Y119566D01*
X127203Y111777D01*
X129799Y123461D01*
X135275Y123461D02*
X135275Y111777D01*
X136573Y111777D02*
X133976Y111777D01*
X133976Y123461D02*
X136573Y123461D01*
X143657Y123461D02*
X143657Y111777D01*
X140411Y123461D02*
X146902Y123461D01*
X153642Y111777D02*
X156239Y111777D01*
X153642Y111777D02*
X153543Y111779D01*
X153443Y111785D01*
X153344Y111794D01*
X153246Y111807D01*
X153148Y111824D01*
X153050Y111845D01*
X152954Y111870D01*
X152859Y111898D01*
X152765Y111930D01*
X152672Y111965D01*
X152580Y112004D01*
X152490Y112047D01*
X152402Y112092D01*
X152315Y112142D01*
X152231Y112194D01*
X152148Y112250D01*
X152068Y112308D01*
X151990Y112370D01*
X151915Y112435D01*
X151842Y112503D01*
X151772Y112573D01*
X151704Y112646D01*
X151639Y112721D01*
X151577Y112799D01*
X151519Y112879D01*
X151463Y112962D01*
X151411Y113046D01*
X151361Y113133D01*
X151316Y113221D01*
X151273Y113311D01*
X151234Y113403D01*
X151199Y113496D01*
X151167Y113590D01*
X151139Y113685D01*
X151114Y113781D01*
X151093Y113879D01*
X151076Y113977D01*
X151063Y114075D01*
X151054Y114174D01*
X151048Y114274D01*
X151046Y114373D01*
X151046Y120865D01*
X151048Y120964D01*
X151054Y121064D01*
X151063Y121163D01*
X151076Y121261D01*
X151093Y121359D01*
X151114Y121457D01*
X151139Y121553D01*
X151167Y121648D01*
X151199Y121742D01*
X151234Y121835D01*
X151273Y121927D01*
X151316Y122017D01*
X151361Y122105D01*
X151411Y122192D01*
X151463Y122276D01*
X151519Y122359D01*
X151577Y122439D01*
X151639Y122517D01*
X151704Y122592D01*
X151772Y122665D01*
X151842Y122735D01*
X151915Y122803D01*
X151990Y122868D01*
X152068Y122930D01*
X152148Y122988D01*
X152231Y123044D01*
X152315Y123096D01*
X152402Y123146D01*
X152490Y123191D01*
X152580Y123234D01*
X152672Y123273D01*
X152764Y123308D01*
X152859Y123340D01*
X152954Y123368D01*
X153050Y123393D01*
X153148Y123414D01*
X153246Y123431D01*
X153344Y123444D01*
X153443Y123453D01*
X153543Y123459D01*
X153642Y123461D01*
X156239Y123461D01*
X160985Y123461D02*
X160985Y111777D01*
X160985Y118268D02*
X167476Y118268D01*
X167476Y123461D02*
X167476Y111777D01*
X172796Y120865D02*
X176041Y123461D01*
X176041Y111777D01*
X172796Y111777D02*
X179287Y111777D01*
D11*
X231700Y103500D02*
X301700Y103500D01*
X231700Y103500D02*
X227700Y103500D01*
X227700Y29500D01*
X231700Y29500D01*
X301700Y29500D01*
X301700Y103500D01*
X231700Y103500D02*
X231700Y29500D01*
D10*
X239683Y111777D02*
X239782Y111779D01*
X239882Y111785D01*
X239981Y111794D01*
X240079Y111807D01*
X240177Y111824D01*
X240275Y111845D01*
X240371Y111870D01*
X240466Y111898D01*
X240560Y111930D01*
X240653Y111965D01*
X240745Y112004D01*
X240835Y112047D01*
X240923Y112092D01*
X241010Y112142D01*
X241094Y112194D01*
X241177Y112250D01*
X241257Y112308D01*
X241335Y112370D01*
X241410Y112435D01*
X241483Y112503D01*
X241553Y112573D01*
X241621Y112646D01*
X241686Y112721D01*
X241748Y112799D01*
X241806Y112879D01*
X241862Y112962D01*
X241914Y113046D01*
X241964Y113133D01*
X242009Y113221D01*
X242052Y113311D01*
X242091Y113403D01*
X242126Y113496D01*
X242158Y113590D01*
X242186Y113685D01*
X242211Y113781D01*
X242232Y113879D01*
X242249Y113977D01*
X242262Y114075D01*
X242271Y114174D01*
X242277Y114274D01*
X242279Y114373D01*
X239683Y111777D02*
X239539Y111779D01*
X239394Y111785D01*
X239250Y111794D01*
X239107Y111807D01*
X238963Y111824D01*
X238820Y111845D01*
X238678Y111870D01*
X238537Y111898D01*
X238396Y111930D01*
X238256Y111966D01*
X238117Y112005D01*
X237979Y112048D01*
X237843Y112095D01*
X237707Y112145D01*
X237573Y112199D01*
X237441Y112256D01*
X237310Y112317D01*
X237181Y112381D01*
X237053Y112449D01*
X236927Y112519D01*
X236803Y112594D01*
X236682Y112671D01*
X236562Y112752D01*
X236444Y112835D01*
X236329Y112922D01*
X236216Y113012D01*
X236105Y113105D01*
X235997Y113200D01*
X235891Y113299D01*
X235788Y113400D01*
X236113Y120865D02*
X236115Y120964D01*
X236121Y121064D01*
X236130Y121163D01*
X236143Y121261D01*
X236160Y121359D01*
X236181Y121457D01*
X236206Y121553D01*
X236234Y121648D01*
X236266Y121742D01*
X236301Y121835D01*
X236340Y121927D01*
X236383Y122017D01*
X236428Y122105D01*
X236478Y122192D01*
X236530Y122276D01*
X236586Y122359D01*
X236644Y122439D01*
X236706Y122517D01*
X236771Y122592D01*
X236839Y122665D01*
X236909Y122735D01*
X236982Y122803D01*
X237057Y122868D01*
X237135Y122930D01*
X237215Y122988D01*
X237298Y123044D01*
X237382Y123096D01*
X237469Y123146D01*
X237557Y123191D01*
X237647Y123234D01*
X237739Y123273D01*
X237832Y123308D01*
X237926Y123340D01*
X238021Y123368D01*
X238118Y123393D01*
X238215Y123414D01*
X238313Y123431D01*
X238411Y123444D01*
X238510Y123453D01*
X238610Y123459D01*
X238709Y123461D01*
X238845Y123459D01*
X238981Y123453D01*
X239117Y123444D01*
X239253Y123431D01*
X239388Y123413D01*
X239522Y123393D01*
X239656Y123368D01*
X239790Y123340D01*
X239922Y123307D01*
X240053Y123272D01*
X240184Y123232D01*
X240313Y123189D01*
X240441Y123143D01*
X240567Y123092D01*
X240693Y123039D01*
X240816Y122981D01*
X240938Y122921D01*
X241058Y122857D01*
X241177Y122789D01*
X241293Y122719D01*
X241407Y122645D01*
X241520Y122568D01*
X241630Y122487D01*
X237411Y118593D02*
X237325Y118646D01*
X237241Y118703D01*
X237159Y118762D01*
X237079Y118825D01*
X237002Y118891D01*
X236927Y118959D01*
X236855Y119031D01*
X236786Y119105D01*
X236720Y119182D01*
X236657Y119261D01*
X236597Y119343D01*
X236540Y119427D01*
X236486Y119513D01*
X236436Y119601D01*
X236389Y119691D01*
X236345Y119782D01*
X236306Y119876D01*
X236269Y119970D01*
X236237Y120066D01*
X236208Y120164D01*
X236183Y120262D01*
X236162Y120361D01*
X236144Y120461D01*
X236131Y120561D01*
X236121Y120662D01*
X236115Y120764D01*
X236113Y120865D01*
X240981Y116645D02*
X241067Y116592D01*
X241151Y116535D01*
X241233Y116476D01*
X241313Y116413D01*
X241390Y116347D01*
X241465Y116279D01*
X241537Y116207D01*
X241606Y116133D01*
X241672Y116056D01*
X241735Y115977D01*
X241795Y115895D01*
X241852Y115811D01*
X241906Y115725D01*
X241956Y115637D01*
X242003Y115547D01*
X242047Y115456D01*
X242086Y115362D01*
X242123Y115268D01*
X242155Y115172D01*
X242184Y115074D01*
X242209Y114976D01*
X242230Y114877D01*
X242248Y114777D01*
X242261Y114677D01*
X242271Y114576D01*
X242277Y114474D01*
X242279Y114373D01*
X240981Y116645D02*
X237411Y118593D01*
X246414Y123461D02*
X249010Y111777D01*
X251607Y119566D01*
X254203Y111777D01*
X256799Y123461D01*
X262275Y123461D02*
X262275Y111777D01*
X263573Y111777D02*
X260976Y111777D01*
X260976Y123461D02*
X263573Y123461D01*
X270657Y123461D02*
X270657Y111777D01*
X267411Y123461D02*
X273902Y123461D01*
X280642Y111777D02*
X283239Y111777D01*
X280642Y111777D02*
X280543Y111779D01*
X280443Y111785D01*
X280344Y111794D01*
X280246Y111807D01*
X280148Y111824D01*
X280050Y111845D01*
X279954Y111870D01*
X279859Y111898D01*
X279765Y111930D01*
X279672Y111965D01*
X279580Y112004D01*
X279490Y112047D01*
X279402Y112092D01*
X279315Y112142D01*
X279231Y112194D01*
X279148Y112250D01*
X279068Y112308D01*
X278990Y112370D01*
X278915Y112435D01*
X278842Y112503D01*
X278772Y112573D01*
X278704Y112646D01*
X278639Y112721D01*
X278577Y112799D01*
X278519Y112879D01*
X278463Y112962D01*
X278411Y113046D01*
X278361Y113133D01*
X278316Y113221D01*
X278273Y113311D01*
X278234Y113403D01*
X278199Y113496D01*
X278167Y113590D01*
X278139Y113685D01*
X278114Y113781D01*
X278093Y113879D01*
X278076Y113977D01*
X278063Y114075D01*
X278054Y114174D01*
X278048Y114274D01*
X278046Y114373D01*
X278046Y120865D01*
X278048Y120964D01*
X278054Y121064D01*
X278063Y121163D01*
X278076Y121261D01*
X278093Y121359D01*
X278114Y121457D01*
X278139Y121553D01*
X278167Y121648D01*
X278199Y121742D01*
X278234Y121835D01*
X278273Y121927D01*
X278316Y122017D01*
X278361Y122105D01*
X278411Y122192D01*
X278463Y122276D01*
X278519Y122359D01*
X278577Y122439D01*
X278639Y122517D01*
X278704Y122592D01*
X278772Y122665D01*
X278842Y122735D01*
X278915Y122803D01*
X278990Y122868D01*
X279068Y122930D01*
X279148Y122988D01*
X279231Y123044D01*
X279315Y123096D01*
X279402Y123146D01*
X279490Y123191D01*
X279580Y123234D01*
X279672Y123273D01*
X279764Y123308D01*
X279859Y123340D01*
X279954Y123368D01*
X280050Y123393D01*
X280148Y123414D01*
X280246Y123431D01*
X280344Y123444D01*
X280443Y123453D01*
X280543Y123459D01*
X280642Y123461D01*
X283239Y123461D01*
X287985Y123461D02*
X287985Y111777D01*
X287985Y118268D02*
X294476Y118268D01*
X294476Y123461D02*
X294476Y111777D01*
X303366Y123461D02*
X303473Y123459D01*
X303579Y123453D01*
X303685Y123443D01*
X303791Y123430D01*
X303897Y123412D01*
X304001Y123391D01*
X304105Y123366D01*
X304208Y123337D01*
X304309Y123305D01*
X304409Y123268D01*
X304508Y123228D01*
X304606Y123185D01*
X304702Y123138D01*
X304796Y123087D01*
X304888Y123033D01*
X304978Y122976D01*
X305066Y122916D01*
X305151Y122852D01*
X305234Y122785D01*
X305315Y122715D01*
X305393Y122643D01*
X305469Y122567D01*
X305541Y122489D01*
X305611Y122408D01*
X305678Y122325D01*
X305742Y122240D01*
X305802Y122152D01*
X305859Y122062D01*
X305913Y121970D01*
X305964Y121876D01*
X306011Y121780D01*
X306054Y121682D01*
X306094Y121583D01*
X306131Y121483D01*
X306163Y121382D01*
X306192Y121279D01*
X306217Y121175D01*
X306238Y121071D01*
X306256Y120965D01*
X306269Y120859D01*
X306279Y120753D01*
X306285Y120647D01*
X306287Y120540D01*
X303366Y123461D02*
X303245Y123459D01*
X303124Y123453D01*
X303004Y123443D01*
X302883Y123430D01*
X302764Y123412D01*
X302644Y123391D01*
X302526Y123366D01*
X302409Y123337D01*
X302292Y123304D01*
X302177Y123268D01*
X302063Y123227D01*
X301950Y123184D01*
X301838Y123136D01*
X301729Y123085D01*
X301621Y123030D01*
X301514Y122972D01*
X301410Y122911D01*
X301308Y122846D01*
X301208Y122778D01*
X301110Y122707D01*
X301014Y122633D01*
X300921Y122556D01*
X300831Y122475D01*
X300743Y122392D01*
X300658Y122306D01*
X300575Y122217D01*
X300496Y122126D01*
X300419Y122032D01*
X300346Y121936D01*
X300276Y121838D01*
X300209Y121737D01*
X300145Y121634D01*
X300085Y121529D01*
X300028Y121422D01*
X299974Y121314D01*
X299924Y121204D01*
X299878Y121092D01*
X299835Y120979D01*
X299796Y120864D01*
X305314Y118268D02*
X305393Y118345D01*
X305469Y118426D01*
X305542Y118509D01*
X305612Y118594D01*
X305679Y118682D01*
X305743Y118772D01*
X305803Y118864D01*
X305860Y118959D01*
X305914Y119055D01*
X305965Y119153D01*
X306012Y119253D01*
X306056Y119355D01*
X306096Y119458D01*
X306132Y119562D01*
X306164Y119668D01*
X306193Y119774D01*
X306218Y119882D01*
X306240Y119990D01*
X306257Y120100D01*
X306271Y120209D01*
X306280Y120319D01*
X306286Y120430D01*
X306288Y120540D01*
X305313Y118268D02*
X299796Y111777D01*
X306287Y111777D01*
D14*
X207300Y220000D02*
X207300Y288000D01*
X275300Y288000D01*
X275300Y220000D01*
X207300Y220000D01*
X265140Y226568D02*
X265142Y226687D01*
X265148Y226807D01*
X265158Y226926D01*
X265172Y227044D01*
X265190Y227162D01*
X265211Y227280D01*
X265237Y227396D01*
X265266Y227512D01*
X265300Y227627D01*
X265337Y227740D01*
X265378Y227852D01*
X265422Y227963D01*
X265470Y228073D01*
X265522Y228180D01*
X265577Y228286D01*
X265636Y228390D01*
X265699Y228492D01*
X265764Y228591D01*
X265833Y228689D01*
X265905Y228784D01*
X265980Y228877D01*
X266059Y228967D01*
X266140Y229055D01*
X266224Y229139D01*
X266311Y229221D01*
X266400Y229300D01*
X266492Y229376D01*
X266587Y229449D01*
X266684Y229519D01*
X266783Y229585D01*
X266885Y229648D01*
X266988Y229708D01*
X267093Y229764D01*
X267200Y229817D01*
X267309Y229866D01*
X267420Y229912D01*
X267532Y229953D01*
X267645Y229991D01*
X267759Y230026D01*
X267875Y230056D01*
X267991Y230083D01*
X268108Y230105D01*
X268226Y230124D01*
X268345Y230139D01*
X268464Y230150D01*
X268583Y230157D01*
X268702Y230160D01*
X268822Y230159D01*
X268941Y230154D01*
X269060Y230145D01*
X269179Y230132D01*
X269297Y230115D01*
X269414Y230095D01*
X269531Y230070D01*
X269647Y230041D01*
X269762Y230009D01*
X269876Y229973D01*
X269989Y229933D01*
X270100Y229889D01*
X270209Y229842D01*
X270317Y229791D01*
X270424Y229737D01*
X270528Y229679D01*
X270630Y229617D01*
X270731Y229553D01*
X270829Y229484D01*
X270925Y229413D01*
X271018Y229339D01*
X271109Y229261D01*
X271197Y229181D01*
X271282Y229097D01*
X271365Y229011D01*
X271445Y228922D01*
X271522Y228831D01*
X271595Y228737D01*
X271666Y228640D01*
X271733Y228542D01*
X271797Y228441D01*
X271858Y228338D01*
X271915Y228233D01*
X271968Y228127D01*
X272018Y228018D01*
X272065Y227908D01*
X272107Y227797D01*
X272146Y227684D01*
X272182Y227570D01*
X272213Y227454D01*
X272240Y227338D01*
X272264Y227221D01*
X272284Y227103D01*
X272300Y226985D01*
X272312Y226866D01*
X272320Y226747D01*
X272324Y226628D01*
X272324Y226508D01*
X272320Y226389D01*
X272312Y226270D01*
X272300Y226151D01*
X272284Y226033D01*
X272264Y225915D01*
X272240Y225798D01*
X272213Y225682D01*
X272182Y225566D01*
X272146Y225452D01*
X272107Y225339D01*
X272065Y225228D01*
X272018Y225118D01*
X271968Y225009D01*
X271915Y224903D01*
X271858Y224798D01*
X271797Y224695D01*
X271733Y224594D01*
X271666Y224496D01*
X271595Y224399D01*
X271522Y224305D01*
X271445Y224214D01*
X271365Y224125D01*
X271282Y224039D01*
X271197Y223955D01*
X271109Y223875D01*
X271018Y223797D01*
X270925Y223723D01*
X270829Y223652D01*
X270731Y223583D01*
X270630Y223519D01*
X270528Y223457D01*
X270424Y223399D01*
X270317Y223345D01*
X270209Y223294D01*
X270100Y223247D01*
X269989Y223203D01*
X269876Y223163D01*
X269762Y223127D01*
X269647Y223095D01*
X269531Y223066D01*
X269414Y223041D01*
X269297Y223021D01*
X269179Y223004D01*
X269060Y222991D01*
X268941Y222982D01*
X268822Y222977D01*
X268702Y222976D01*
X268583Y222979D01*
X268464Y222986D01*
X268345Y222997D01*
X268226Y223012D01*
X268108Y223031D01*
X267991Y223053D01*
X267875Y223080D01*
X267759Y223110D01*
X267645Y223145D01*
X267532Y223183D01*
X267420Y223224D01*
X267309Y223270D01*
X267200Y223319D01*
X267093Y223372D01*
X266988Y223428D01*
X266885Y223488D01*
X266783Y223551D01*
X266684Y223617D01*
X266587Y223687D01*
X266492Y223760D01*
X266400Y223836D01*
X266311Y223915D01*
X266224Y223997D01*
X266140Y224081D01*
X266059Y224169D01*
X265980Y224259D01*
X265905Y224352D01*
X265833Y224447D01*
X265764Y224545D01*
X265699Y224644D01*
X265636Y224746D01*
X265577Y224850D01*
X265522Y224956D01*
X265470Y225063D01*
X265422Y225173D01*
X265378Y225284D01*
X265337Y225396D01*
X265300Y225509D01*
X265266Y225624D01*
X265237Y225740D01*
X265211Y225856D01*
X265190Y225974D01*
X265172Y226092D01*
X265158Y226210D01*
X265148Y226329D01*
X265142Y226449D01*
X265140Y226568D01*
D15*
X286300Y216500D03*
D11*
X352300Y247000D02*
X352300Y261000D01*
X384300Y261000D02*
X384300Y247000D01*
X370300Y229000D02*
X366300Y229000D01*
X366300Y279000D02*
X370300Y279000D01*
D16*
X378500Y221900D02*
X378502Y221963D01*
X378508Y222025D01*
X378518Y222087D01*
X378531Y222149D01*
X378549Y222209D01*
X378570Y222268D01*
X378595Y222326D01*
X378624Y222382D01*
X378656Y222436D01*
X378691Y222488D01*
X378729Y222537D01*
X378771Y222585D01*
X378815Y222629D01*
X378863Y222671D01*
X378912Y222709D01*
X378964Y222744D01*
X379018Y222776D01*
X379074Y222805D01*
X379132Y222830D01*
X379191Y222851D01*
X379251Y222869D01*
X379313Y222882D01*
X379375Y222892D01*
X379437Y222898D01*
X379500Y222900D01*
X379563Y222898D01*
X379625Y222892D01*
X379687Y222882D01*
X379749Y222869D01*
X379809Y222851D01*
X379868Y222830D01*
X379926Y222805D01*
X379982Y222776D01*
X380036Y222744D01*
X380088Y222709D01*
X380137Y222671D01*
X380185Y222629D01*
X380229Y222585D01*
X380271Y222537D01*
X380309Y222488D01*
X380344Y222436D01*
X380376Y222382D01*
X380405Y222326D01*
X380430Y222268D01*
X380451Y222209D01*
X380469Y222149D01*
X380482Y222087D01*
X380492Y222025D01*
X380498Y221963D01*
X380500Y221900D01*
X380498Y221837D01*
X380492Y221775D01*
X380482Y221713D01*
X380469Y221651D01*
X380451Y221591D01*
X380430Y221532D01*
X380405Y221474D01*
X380376Y221418D01*
X380344Y221364D01*
X380309Y221312D01*
X380271Y221263D01*
X380229Y221215D01*
X380185Y221171D01*
X380137Y221129D01*
X380088Y221091D01*
X380036Y221056D01*
X379982Y221024D01*
X379926Y220995D01*
X379868Y220970D01*
X379809Y220949D01*
X379749Y220931D01*
X379687Y220918D01*
X379625Y220908D01*
X379563Y220902D01*
X379500Y220900D01*
X379437Y220902D01*
X379375Y220908D01*
X379313Y220918D01*
X379251Y220931D01*
X379191Y220949D01*
X379132Y220970D01*
X379074Y220995D01*
X379018Y221024D01*
X378964Y221056D01*
X378912Y221091D01*
X378863Y221129D01*
X378815Y221171D01*
X378771Y221215D01*
X378729Y221263D01*
X378691Y221312D01*
X378656Y221364D01*
X378624Y221418D01*
X378595Y221474D01*
X378570Y221532D01*
X378549Y221591D01*
X378531Y221651D01*
X378518Y221713D01*
X378508Y221775D01*
X378502Y221837D01*
X378500Y221900D01*
M02*
