G04 EAGLE Gerber RS-274X export*
G75*
%MOMM*%
%FSLAX34Y34*%
%LPD*%
%INSilkscreen Bottom*%
%IPPOS*%
%AMOC8*
5,1,8,0,0,1.08239X$1,22.5*%
G01*
%ADD10C,0.101600*%
%ADD11C,0.076200*%


D10*
X161854Y270078D02*
X164451Y270078D01*
X164550Y270080D01*
X164650Y270086D01*
X164749Y270095D01*
X164847Y270108D01*
X164945Y270125D01*
X165043Y270146D01*
X165139Y270171D01*
X165234Y270199D01*
X165328Y270231D01*
X165421Y270266D01*
X165513Y270305D01*
X165603Y270348D01*
X165691Y270393D01*
X165778Y270443D01*
X165862Y270495D01*
X165945Y270551D01*
X166025Y270609D01*
X166103Y270671D01*
X166178Y270736D01*
X166251Y270804D01*
X166321Y270874D01*
X166389Y270947D01*
X166454Y271022D01*
X166516Y271100D01*
X166574Y271180D01*
X166630Y271263D01*
X166682Y271347D01*
X166732Y271434D01*
X166777Y271522D01*
X166820Y271612D01*
X166859Y271704D01*
X166894Y271797D01*
X166926Y271891D01*
X166954Y271986D01*
X166979Y272082D01*
X167000Y272180D01*
X167017Y272278D01*
X167030Y272376D01*
X167039Y272475D01*
X167045Y272575D01*
X167047Y272674D01*
X167047Y279166D01*
X167045Y279265D01*
X167039Y279365D01*
X167030Y279464D01*
X167017Y279562D01*
X167000Y279660D01*
X166979Y279758D01*
X166954Y279854D01*
X166926Y279949D01*
X166894Y280043D01*
X166859Y280136D01*
X166820Y280228D01*
X166777Y280318D01*
X166732Y280406D01*
X166682Y280493D01*
X166630Y280577D01*
X166574Y280660D01*
X166516Y280740D01*
X166454Y280818D01*
X166389Y280893D01*
X166321Y280966D01*
X166251Y281036D01*
X166178Y281104D01*
X166103Y281169D01*
X166025Y281231D01*
X165945Y281289D01*
X165862Y281345D01*
X165778Y281397D01*
X165691Y281447D01*
X165603Y281492D01*
X165513Y281535D01*
X165421Y281574D01*
X165328Y281609D01*
X165234Y281641D01*
X165139Y281669D01*
X165043Y281694D01*
X164945Y281715D01*
X164847Y281732D01*
X164749Y281745D01*
X164650Y281754D01*
X164550Y281760D01*
X164451Y281762D01*
X161854Y281762D01*
X157489Y279166D02*
X154243Y281762D01*
X154243Y270078D01*
X150998Y270078D02*
X157489Y270078D01*
X172569Y207848D02*
X175166Y207848D01*
X175265Y207850D01*
X175365Y207856D01*
X175464Y207865D01*
X175562Y207878D01*
X175660Y207895D01*
X175758Y207916D01*
X175854Y207941D01*
X175949Y207969D01*
X176043Y208001D01*
X176136Y208036D01*
X176228Y208075D01*
X176318Y208118D01*
X176406Y208163D01*
X176493Y208213D01*
X176577Y208265D01*
X176660Y208321D01*
X176740Y208379D01*
X176818Y208441D01*
X176893Y208506D01*
X176966Y208574D01*
X177036Y208644D01*
X177104Y208717D01*
X177169Y208792D01*
X177231Y208870D01*
X177289Y208950D01*
X177345Y209033D01*
X177397Y209117D01*
X177447Y209204D01*
X177492Y209292D01*
X177535Y209382D01*
X177574Y209474D01*
X177609Y209567D01*
X177641Y209661D01*
X177669Y209756D01*
X177694Y209852D01*
X177715Y209950D01*
X177732Y210048D01*
X177745Y210146D01*
X177754Y210245D01*
X177760Y210345D01*
X177762Y210444D01*
X177762Y216936D01*
X177760Y217035D01*
X177754Y217135D01*
X177745Y217234D01*
X177732Y217332D01*
X177715Y217430D01*
X177694Y217528D01*
X177669Y217624D01*
X177641Y217719D01*
X177609Y217813D01*
X177574Y217906D01*
X177535Y217998D01*
X177492Y218088D01*
X177447Y218176D01*
X177397Y218263D01*
X177345Y218347D01*
X177289Y218430D01*
X177231Y218510D01*
X177169Y218588D01*
X177104Y218663D01*
X177036Y218736D01*
X176966Y218806D01*
X176893Y218874D01*
X176818Y218939D01*
X176740Y219001D01*
X176660Y219059D01*
X176577Y219115D01*
X176493Y219167D01*
X176406Y219217D01*
X176318Y219262D01*
X176228Y219305D01*
X176136Y219344D01*
X176043Y219379D01*
X175949Y219411D01*
X175854Y219439D01*
X175758Y219464D01*
X175660Y219485D01*
X175562Y219502D01*
X175464Y219515D01*
X175365Y219524D01*
X175265Y219530D01*
X175166Y219532D01*
X172569Y219532D01*
X168204Y216936D02*
X164959Y219532D01*
X164959Y207848D01*
X168204Y207848D02*
X161713Y207848D01*
X156775Y213690D02*
X156772Y213920D01*
X156764Y214150D01*
X156750Y214379D01*
X156731Y214608D01*
X156706Y214837D01*
X156676Y215065D01*
X156641Y215292D01*
X156600Y215518D01*
X156554Y215743D01*
X156502Y215967D01*
X156445Y216190D01*
X156383Y216411D01*
X156315Y216631D01*
X156242Y216849D01*
X156164Y217065D01*
X156081Y217279D01*
X155993Y217492D01*
X155900Y217702D01*
X155801Y217909D01*
X155768Y217999D01*
X155732Y218088D01*
X155692Y218176D01*
X155648Y218261D01*
X155601Y218345D01*
X155551Y218427D01*
X155497Y218507D01*
X155441Y218584D01*
X155381Y218660D01*
X155318Y218733D01*
X155253Y218803D01*
X155184Y218871D01*
X155113Y218935D01*
X155040Y218997D01*
X154964Y219056D01*
X154886Y219112D01*
X154805Y219165D01*
X154723Y219214D01*
X154639Y219260D01*
X154552Y219303D01*
X154465Y219342D01*
X154375Y219378D01*
X154285Y219410D01*
X154193Y219438D01*
X154100Y219463D01*
X154006Y219484D01*
X153912Y219501D01*
X153817Y219515D01*
X153721Y219524D01*
X153625Y219530D01*
X153529Y219532D01*
X153433Y219530D01*
X153337Y219524D01*
X153241Y219515D01*
X153146Y219501D01*
X153052Y219484D01*
X152958Y219463D01*
X152865Y219438D01*
X152773Y219410D01*
X152683Y219378D01*
X152593Y219342D01*
X152506Y219303D01*
X152419Y219260D01*
X152335Y219214D01*
X152253Y219165D01*
X152172Y219112D01*
X152094Y219056D01*
X152018Y218997D01*
X151945Y218935D01*
X151874Y218871D01*
X151805Y218803D01*
X151740Y218733D01*
X151677Y218660D01*
X151617Y218585D01*
X151561Y218507D01*
X151507Y218427D01*
X151457Y218345D01*
X151410Y218261D01*
X151367Y218176D01*
X151326Y218088D01*
X151290Y217999D01*
X151257Y217909D01*
X151158Y217701D01*
X151065Y217491D01*
X150977Y217279D01*
X150894Y217065D01*
X150816Y216848D01*
X150743Y216630D01*
X150675Y216411D01*
X150613Y216189D01*
X150556Y215967D01*
X150504Y215743D01*
X150458Y215518D01*
X150417Y215292D01*
X150382Y215064D01*
X150352Y214837D01*
X150327Y214608D01*
X150308Y214379D01*
X150294Y214150D01*
X150286Y213920D01*
X150283Y213690D01*
X156774Y213690D02*
X156771Y213460D01*
X156763Y213230D01*
X156749Y213001D01*
X156730Y212772D01*
X156705Y212543D01*
X156675Y212315D01*
X156640Y212088D01*
X156599Y211862D01*
X156553Y211637D01*
X156501Y211413D01*
X156444Y211190D01*
X156382Y210969D01*
X156314Y210749D01*
X156241Y210531D01*
X156163Y210315D01*
X156080Y210101D01*
X155992Y209889D01*
X155899Y209678D01*
X155800Y209471D01*
X155801Y209471D02*
X155768Y209381D01*
X155732Y209292D01*
X155691Y209204D01*
X155648Y209119D01*
X155601Y209035D01*
X155551Y208953D01*
X155497Y208873D01*
X155441Y208796D01*
X155381Y208720D01*
X155318Y208647D01*
X155253Y208577D01*
X155184Y208509D01*
X155113Y208445D01*
X155040Y208383D01*
X154964Y208324D01*
X154886Y208268D01*
X154805Y208215D01*
X154723Y208166D01*
X154639Y208120D01*
X154552Y208077D01*
X154465Y208038D01*
X154375Y208002D01*
X154285Y207970D01*
X154193Y207942D01*
X154100Y207917D01*
X154006Y207896D01*
X153912Y207879D01*
X153817Y207865D01*
X153721Y207856D01*
X153625Y207850D01*
X153529Y207848D01*
X151257Y209471D02*
X151158Y209678D01*
X151065Y209889D01*
X150977Y210101D01*
X150894Y210315D01*
X150816Y210531D01*
X150743Y210749D01*
X150675Y210969D01*
X150613Y211190D01*
X150556Y211413D01*
X150504Y211637D01*
X150458Y211862D01*
X150417Y212088D01*
X150382Y212315D01*
X150352Y212543D01*
X150327Y212772D01*
X150308Y213001D01*
X150294Y213230D01*
X150286Y213460D01*
X150283Y213690D01*
X151257Y209471D02*
X151290Y209381D01*
X151326Y209292D01*
X151367Y209204D01*
X151410Y209119D01*
X151457Y209035D01*
X151507Y208953D01*
X151561Y208873D01*
X151617Y208795D01*
X151677Y208720D01*
X151740Y208647D01*
X151805Y208577D01*
X151874Y208509D01*
X151945Y208445D01*
X152018Y208383D01*
X152094Y208324D01*
X152172Y208268D01*
X152253Y208215D01*
X152335Y208166D01*
X152419Y208120D01*
X152506Y208077D01*
X152593Y208038D01*
X152683Y208002D01*
X152773Y207970D01*
X152865Y207942D01*
X152958Y207917D01*
X153052Y207896D01*
X153146Y207879D01*
X153241Y207865D01*
X153337Y207856D01*
X153433Y207850D01*
X153529Y207848D01*
X156125Y210444D02*
X150932Y216936D01*
D11*
X307215Y166221D02*
X309303Y166221D01*
X309392Y166223D01*
X309480Y166229D01*
X309568Y166238D01*
X309656Y166251D01*
X309743Y166268D01*
X309829Y166288D01*
X309914Y166313D01*
X309999Y166340D01*
X310082Y166372D01*
X310163Y166406D01*
X310243Y166445D01*
X310321Y166486D01*
X310398Y166531D01*
X310472Y166579D01*
X310545Y166630D01*
X310615Y166684D01*
X310682Y166742D01*
X310748Y166802D01*
X310810Y166864D01*
X310870Y166930D01*
X310928Y166997D01*
X310982Y167067D01*
X311033Y167140D01*
X311081Y167214D01*
X311126Y167291D01*
X311167Y167369D01*
X311206Y167449D01*
X311240Y167530D01*
X311272Y167613D01*
X311299Y167698D01*
X311324Y167783D01*
X311344Y167869D01*
X311361Y167956D01*
X311374Y168044D01*
X311383Y168132D01*
X311389Y168220D01*
X311391Y168309D01*
X311392Y168309D02*
X311392Y173531D01*
X311391Y173531D02*
X311389Y173620D01*
X311383Y173708D01*
X311374Y173796D01*
X311361Y173884D01*
X311344Y173971D01*
X311324Y174057D01*
X311299Y174142D01*
X311272Y174227D01*
X311240Y174310D01*
X311206Y174391D01*
X311167Y174471D01*
X311126Y174549D01*
X311081Y174626D01*
X311033Y174700D01*
X310982Y174773D01*
X310928Y174843D01*
X310870Y174910D01*
X310810Y174976D01*
X310748Y175038D01*
X310682Y175098D01*
X310615Y175156D01*
X310545Y175210D01*
X310472Y175261D01*
X310398Y175309D01*
X310321Y175354D01*
X310243Y175395D01*
X310163Y175434D01*
X310082Y175468D01*
X309999Y175500D01*
X309914Y175527D01*
X309829Y175552D01*
X309743Y175572D01*
X309656Y175589D01*
X309568Y175602D01*
X309480Y175611D01*
X309392Y175617D01*
X309303Y175619D01*
X307215Y175619D01*
X303746Y173531D02*
X301136Y175619D01*
X301136Y166221D01*
X303746Y166221D02*
X298525Y166221D01*
X294602Y173531D02*
X291992Y175619D01*
X291992Y166221D01*
X294602Y166221D02*
X289381Y166221D01*
D10*
X295148Y236229D02*
X295148Y238826D01*
X295148Y236229D02*
X295150Y236130D01*
X295156Y236030D01*
X295165Y235931D01*
X295178Y235833D01*
X295195Y235735D01*
X295216Y235637D01*
X295241Y235541D01*
X295269Y235446D01*
X295301Y235352D01*
X295336Y235259D01*
X295375Y235167D01*
X295418Y235077D01*
X295463Y234989D01*
X295513Y234902D01*
X295565Y234818D01*
X295621Y234735D01*
X295679Y234655D01*
X295741Y234577D01*
X295806Y234502D01*
X295874Y234429D01*
X295944Y234359D01*
X296017Y234291D01*
X296092Y234226D01*
X296170Y234164D01*
X296250Y234106D01*
X296333Y234050D01*
X296417Y233998D01*
X296504Y233948D01*
X296592Y233903D01*
X296682Y233860D01*
X296774Y233821D01*
X296867Y233786D01*
X296961Y233754D01*
X297056Y233726D01*
X297152Y233701D01*
X297250Y233680D01*
X297348Y233663D01*
X297446Y233650D01*
X297545Y233641D01*
X297645Y233635D01*
X297744Y233633D01*
X304236Y233633D01*
X304335Y233635D01*
X304435Y233641D01*
X304534Y233650D01*
X304632Y233663D01*
X304730Y233680D01*
X304828Y233701D01*
X304924Y233726D01*
X305019Y233754D01*
X305113Y233786D01*
X305206Y233821D01*
X305298Y233860D01*
X305388Y233903D01*
X305476Y233948D01*
X305563Y233998D01*
X305647Y234050D01*
X305730Y234106D01*
X305810Y234164D01*
X305888Y234226D01*
X305963Y234291D01*
X306036Y234359D01*
X306106Y234429D01*
X306174Y234502D01*
X306239Y234577D01*
X306301Y234655D01*
X306359Y234735D01*
X306415Y234818D01*
X306467Y234902D01*
X306517Y234989D01*
X306562Y235077D01*
X306605Y235167D01*
X306644Y235259D01*
X306679Y235351D01*
X306711Y235446D01*
X306739Y235541D01*
X306764Y235637D01*
X306785Y235735D01*
X306802Y235833D01*
X306815Y235931D01*
X306824Y236030D01*
X306830Y236130D01*
X306832Y236229D01*
X306832Y238826D01*
X300341Y245787D02*
X300341Y249682D01*
X300341Y245787D02*
X300343Y245688D01*
X300349Y245588D01*
X300358Y245489D01*
X300371Y245391D01*
X300388Y245293D01*
X300409Y245195D01*
X300434Y245099D01*
X300462Y245004D01*
X300494Y244910D01*
X300529Y244817D01*
X300568Y244725D01*
X300611Y244635D01*
X300656Y244547D01*
X300706Y244460D01*
X300758Y244376D01*
X300814Y244293D01*
X300872Y244213D01*
X300934Y244135D01*
X300999Y244060D01*
X301067Y243987D01*
X301137Y243917D01*
X301210Y243849D01*
X301285Y243784D01*
X301363Y243722D01*
X301443Y243664D01*
X301526Y243608D01*
X301610Y243556D01*
X301697Y243506D01*
X301785Y243461D01*
X301875Y243418D01*
X301967Y243379D01*
X302060Y243344D01*
X302154Y243312D01*
X302249Y243284D01*
X302345Y243259D01*
X302443Y243238D01*
X302541Y243221D01*
X302639Y243208D01*
X302738Y243199D01*
X302838Y243193D01*
X302937Y243191D01*
X303586Y243191D01*
X303586Y243190D02*
X303699Y243192D01*
X303812Y243198D01*
X303925Y243208D01*
X304038Y243222D01*
X304150Y243239D01*
X304261Y243261D01*
X304371Y243286D01*
X304481Y243316D01*
X304589Y243349D01*
X304696Y243386D01*
X304802Y243426D01*
X304906Y243471D01*
X305009Y243519D01*
X305110Y243570D01*
X305209Y243625D01*
X305306Y243683D01*
X305401Y243745D01*
X305494Y243810D01*
X305584Y243878D01*
X305672Y243949D01*
X305758Y244024D01*
X305841Y244101D01*
X305921Y244181D01*
X305998Y244264D01*
X306073Y244350D01*
X306144Y244438D01*
X306212Y244528D01*
X306277Y244621D01*
X306339Y244716D01*
X306397Y244813D01*
X306452Y244912D01*
X306503Y245013D01*
X306551Y245116D01*
X306596Y245220D01*
X306636Y245326D01*
X306673Y245433D01*
X306706Y245541D01*
X306736Y245651D01*
X306761Y245761D01*
X306783Y245872D01*
X306800Y245984D01*
X306814Y246097D01*
X306824Y246210D01*
X306830Y246323D01*
X306832Y246436D01*
X306830Y246549D01*
X306824Y246662D01*
X306814Y246775D01*
X306800Y246888D01*
X306783Y247000D01*
X306761Y247111D01*
X306736Y247221D01*
X306706Y247331D01*
X306673Y247439D01*
X306636Y247546D01*
X306596Y247652D01*
X306551Y247756D01*
X306503Y247859D01*
X306452Y247960D01*
X306397Y248059D01*
X306339Y248156D01*
X306277Y248251D01*
X306212Y248344D01*
X306144Y248434D01*
X306073Y248522D01*
X305998Y248608D01*
X305921Y248691D01*
X305841Y248771D01*
X305758Y248848D01*
X305672Y248923D01*
X305584Y248994D01*
X305494Y249062D01*
X305401Y249127D01*
X305306Y249189D01*
X305209Y249247D01*
X305110Y249302D01*
X305009Y249353D01*
X304906Y249401D01*
X304802Y249446D01*
X304696Y249486D01*
X304589Y249523D01*
X304481Y249556D01*
X304371Y249586D01*
X304261Y249611D01*
X304150Y249633D01*
X304038Y249650D01*
X303925Y249664D01*
X303812Y249674D01*
X303699Y249680D01*
X303586Y249682D01*
X300341Y249682D01*
X300198Y249680D01*
X300055Y249674D01*
X299912Y249664D01*
X299770Y249650D01*
X299628Y249633D01*
X299486Y249611D01*
X299345Y249586D01*
X299205Y249556D01*
X299066Y249523D01*
X298928Y249486D01*
X298791Y249445D01*
X298655Y249401D01*
X298520Y249352D01*
X298387Y249300D01*
X298255Y249245D01*
X298125Y249185D01*
X297996Y249122D01*
X297869Y249056D01*
X297745Y248986D01*
X297622Y248913D01*
X297501Y248836D01*
X297382Y248756D01*
X297266Y248673D01*
X297151Y248587D01*
X297040Y248498D01*
X296930Y248405D01*
X296824Y248310D01*
X296720Y248211D01*
X296619Y248110D01*
X296520Y248006D01*
X296425Y247900D01*
X296332Y247790D01*
X296243Y247679D01*
X296157Y247564D01*
X296074Y247448D01*
X295994Y247329D01*
X295917Y247208D01*
X295844Y247086D01*
X295774Y246961D01*
X295708Y246834D01*
X295645Y246705D01*
X295585Y246575D01*
X295530Y246443D01*
X295478Y246310D01*
X295429Y246175D01*
X295385Y246039D01*
X295344Y245902D01*
X295307Y245764D01*
X295274Y245625D01*
X295244Y245485D01*
X295219Y245344D01*
X295197Y245202D01*
X295180Y245060D01*
X295166Y244918D01*
X295156Y244775D01*
X295150Y244632D01*
X295148Y244489D01*
X243332Y424875D02*
X231648Y424875D01*
X243332Y424875D02*
X243332Y428120D01*
X243330Y428233D01*
X243324Y428346D01*
X243314Y428459D01*
X243300Y428572D01*
X243283Y428684D01*
X243261Y428795D01*
X243236Y428905D01*
X243206Y429015D01*
X243173Y429123D01*
X243136Y429230D01*
X243096Y429336D01*
X243051Y429440D01*
X243003Y429543D01*
X242952Y429644D01*
X242897Y429743D01*
X242839Y429840D01*
X242777Y429935D01*
X242712Y430028D01*
X242644Y430118D01*
X242573Y430206D01*
X242498Y430292D01*
X242421Y430375D01*
X242341Y430455D01*
X242258Y430532D01*
X242172Y430607D01*
X242084Y430678D01*
X241994Y430746D01*
X241901Y430811D01*
X241806Y430873D01*
X241709Y430931D01*
X241610Y430986D01*
X241509Y431037D01*
X241406Y431085D01*
X241302Y431130D01*
X241196Y431170D01*
X241089Y431207D01*
X240981Y431240D01*
X240871Y431270D01*
X240761Y431295D01*
X240650Y431317D01*
X240538Y431334D01*
X240425Y431348D01*
X240312Y431358D01*
X240199Y431364D01*
X240086Y431366D01*
X239973Y431364D01*
X239860Y431358D01*
X239747Y431348D01*
X239634Y431334D01*
X239522Y431317D01*
X239411Y431295D01*
X239301Y431270D01*
X239191Y431240D01*
X239083Y431207D01*
X238976Y431170D01*
X238870Y431130D01*
X238766Y431085D01*
X238663Y431037D01*
X238562Y430986D01*
X238463Y430931D01*
X238366Y430873D01*
X238271Y430811D01*
X238178Y430746D01*
X238088Y430678D01*
X238000Y430607D01*
X237914Y430532D01*
X237831Y430455D01*
X237751Y430375D01*
X237674Y430292D01*
X237599Y430206D01*
X237528Y430118D01*
X237460Y430028D01*
X237395Y429935D01*
X237333Y429840D01*
X237275Y429743D01*
X237220Y429644D01*
X237169Y429543D01*
X237121Y429440D01*
X237076Y429336D01*
X237036Y429230D01*
X236999Y429123D01*
X236966Y429015D01*
X236936Y428905D01*
X236911Y428795D01*
X236889Y428684D01*
X236872Y428572D01*
X236858Y428459D01*
X236848Y428346D01*
X236842Y428233D01*
X236840Y428120D01*
X236841Y428120D02*
X236841Y424875D01*
X236841Y428769D02*
X231648Y431366D01*
X240736Y436231D02*
X243332Y439476D01*
X231648Y439476D01*
X231648Y436231D02*
X231648Y442722D01*
X237490Y447661D02*
X237720Y447664D01*
X237950Y447672D01*
X238179Y447686D01*
X238408Y447705D01*
X238637Y447730D01*
X238864Y447760D01*
X239092Y447795D01*
X239318Y447836D01*
X239543Y447882D01*
X239767Y447934D01*
X239989Y447991D01*
X240211Y448053D01*
X240430Y448121D01*
X240648Y448194D01*
X240865Y448272D01*
X241079Y448355D01*
X241291Y448443D01*
X241501Y448536D01*
X241709Y448635D01*
X241709Y448634D02*
X241799Y448667D01*
X241888Y448703D01*
X241976Y448743D01*
X242061Y448787D01*
X242145Y448834D01*
X242227Y448884D01*
X242307Y448938D01*
X242384Y448994D01*
X242460Y449054D01*
X242533Y449117D01*
X242603Y449182D01*
X242671Y449251D01*
X242735Y449322D01*
X242797Y449395D01*
X242856Y449471D01*
X242912Y449549D01*
X242965Y449630D01*
X243014Y449712D01*
X243060Y449796D01*
X243103Y449883D01*
X243142Y449970D01*
X243178Y450060D01*
X243210Y450150D01*
X243238Y450242D01*
X243263Y450335D01*
X243284Y450429D01*
X243301Y450523D01*
X243315Y450618D01*
X243324Y450714D01*
X243330Y450810D01*
X243332Y450906D01*
X243330Y451002D01*
X243324Y451098D01*
X243315Y451194D01*
X243301Y451289D01*
X243284Y451383D01*
X243263Y451477D01*
X243238Y451570D01*
X243210Y451662D01*
X243178Y451752D01*
X243142Y451842D01*
X243103Y451929D01*
X243060Y452016D01*
X243014Y452100D01*
X242965Y452182D01*
X242912Y452263D01*
X242856Y452341D01*
X242797Y452417D01*
X242735Y452490D01*
X242671Y452561D01*
X242603Y452630D01*
X242533Y452695D01*
X242460Y452758D01*
X242384Y452818D01*
X242307Y452874D01*
X242227Y452928D01*
X242145Y452978D01*
X242061Y453025D01*
X241976Y453069D01*
X241888Y453109D01*
X241799Y453145D01*
X241709Y453178D01*
X241709Y453179D02*
X241502Y453278D01*
X241292Y453371D01*
X241079Y453459D01*
X240865Y453542D01*
X240649Y453620D01*
X240431Y453693D01*
X240211Y453761D01*
X239990Y453823D01*
X239767Y453880D01*
X239543Y453932D01*
X239318Y453978D01*
X239092Y454019D01*
X238865Y454054D01*
X238637Y454084D01*
X238408Y454109D01*
X238179Y454128D01*
X237950Y454142D01*
X237720Y454150D01*
X237490Y454153D01*
X237490Y447661D02*
X237260Y447664D01*
X237030Y447672D01*
X236801Y447686D01*
X236572Y447705D01*
X236343Y447730D01*
X236115Y447760D01*
X235888Y447795D01*
X235662Y447836D01*
X235437Y447882D01*
X235213Y447934D01*
X234990Y447991D01*
X234769Y448053D01*
X234549Y448121D01*
X234331Y448194D01*
X234115Y448272D01*
X233901Y448355D01*
X233689Y448443D01*
X233478Y448536D01*
X233271Y448635D01*
X233271Y448634D02*
X233181Y448667D01*
X233092Y448703D01*
X233004Y448744D01*
X232919Y448787D01*
X232835Y448834D01*
X232753Y448884D01*
X232673Y448938D01*
X232596Y448994D01*
X232520Y449054D01*
X232447Y449117D01*
X232377Y449182D01*
X232309Y449251D01*
X232245Y449322D01*
X232183Y449395D01*
X232124Y449471D01*
X232068Y449549D01*
X232015Y449630D01*
X231966Y449712D01*
X231920Y449796D01*
X231877Y449883D01*
X231838Y449970D01*
X231802Y450060D01*
X231770Y450150D01*
X231742Y450242D01*
X231717Y450335D01*
X231696Y450429D01*
X231679Y450523D01*
X231665Y450618D01*
X231656Y450714D01*
X231650Y450810D01*
X231648Y450906D01*
X233271Y453178D02*
X233478Y453277D01*
X233689Y453370D01*
X233901Y453458D01*
X234115Y453541D01*
X234331Y453619D01*
X234549Y453692D01*
X234769Y453760D01*
X234990Y453822D01*
X235213Y453879D01*
X235437Y453931D01*
X235662Y453977D01*
X235888Y454018D01*
X236115Y454053D01*
X236343Y454083D01*
X236572Y454108D01*
X236801Y454127D01*
X237030Y454141D01*
X237260Y454149D01*
X237490Y454152D01*
X233271Y453178D02*
X233181Y453145D01*
X233092Y453109D01*
X233004Y453069D01*
X232919Y453025D01*
X232835Y452978D01*
X232753Y452928D01*
X232673Y452874D01*
X232596Y452818D01*
X232520Y452758D01*
X232447Y452695D01*
X232377Y452630D01*
X232309Y452561D01*
X232245Y452490D01*
X232183Y452417D01*
X232124Y452341D01*
X232068Y452263D01*
X232015Y452182D01*
X231966Y452100D01*
X231920Y452016D01*
X231877Y451929D01*
X231838Y451842D01*
X231802Y451752D01*
X231770Y451662D01*
X231742Y451570D01*
X231717Y451477D01*
X231696Y451383D01*
X231679Y451289D01*
X231665Y451194D01*
X231656Y451098D01*
X231650Y451002D01*
X231648Y450906D01*
X234244Y448310D02*
X240736Y453503D01*
X118025Y214732D02*
X118025Y203048D01*
X118025Y214732D02*
X114780Y214732D01*
X114667Y214730D01*
X114554Y214724D01*
X114441Y214714D01*
X114328Y214700D01*
X114216Y214683D01*
X114105Y214661D01*
X113995Y214636D01*
X113885Y214606D01*
X113777Y214573D01*
X113670Y214536D01*
X113564Y214496D01*
X113460Y214451D01*
X113357Y214403D01*
X113256Y214352D01*
X113157Y214297D01*
X113060Y214239D01*
X112965Y214177D01*
X112872Y214112D01*
X112782Y214044D01*
X112694Y213973D01*
X112608Y213898D01*
X112525Y213821D01*
X112445Y213741D01*
X112368Y213658D01*
X112293Y213572D01*
X112222Y213484D01*
X112154Y213394D01*
X112089Y213301D01*
X112027Y213206D01*
X111969Y213109D01*
X111914Y213010D01*
X111863Y212909D01*
X111815Y212806D01*
X111770Y212702D01*
X111730Y212596D01*
X111693Y212489D01*
X111660Y212381D01*
X111630Y212271D01*
X111605Y212161D01*
X111583Y212050D01*
X111566Y211938D01*
X111552Y211825D01*
X111542Y211712D01*
X111536Y211599D01*
X111534Y211486D01*
X111536Y211373D01*
X111542Y211260D01*
X111552Y211147D01*
X111566Y211034D01*
X111583Y210922D01*
X111605Y210811D01*
X111630Y210701D01*
X111660Y210591D01*
X111693Y210483D01*
X111730Y210376D01*
X111770Y210270D01*
X111815Y210166D01*
X111863Y210063D01*
X111914Y209962D01*
X111969Y209863D01*
X112027Y209766D01*
X112089Y209671D01*
X112154Y209578D01*
X112222Y209488D01*
X112293Y209400D01*
X112368Y209314D01*
X112445Y209231D01*
X112525Y209151D01*
X112608Y209074D01*
X112694Y208999D01*
X112782Y208928D01*
X112872Y208860D01*
X112965Y208795D01*
X113060Y208733D01*
X113157Y208675D01*
X113256Y208620D01*
X113357Y208569D01*
X113460Y208521D01*
X113564Y208476D01*
X113670Y208436D01*
X113777Y208399D01*
X113885Y208366D01*
X113995Y208336D01*
X114105Y208311D01*
X114216Y208289D01*
X114328Y208272D01*
X114441Y208258D01*
X114554Y208248D01*
X114667Y208242D01*
X114780Y208240D01*
X114780Y208241D02*
X118025Y208241D01*
X114131Y208241D02*
X111534Y203048D01*
X106669Y212136D02*
X103424Y214732D01*
X103424Y203048D01*
X106669Y203048D02*
X100178Y203048D01*
X95239Y212136D02*
X91994Y214732D01*
X91994Y203048D01*
X95239Y203048D02*
X88748Y203048D01*
X446752Y369468D02*
X446752Y381152D01*
X443506Y381152D01*
X443393Y381150D01*
X443280Y381144D01*
X443167Y381134D01*
X443054Y381120D01*
X442942Y381103D01*
X442831Y381081D01*
X442721Y381056D01*
X442611Y381026D01*
X442503Y380993D01*
X442396Y380956D01*
X442290Y380916D01*
X442186Y380871D01*
X442083Y380823D01*
X441982Y380772D01*
X441883Y380717D01*
X441786Y380659D01*
X441691Y380597D01*
X441598Y380532D01*
X441508Y380464D01*
X441420Y380393D01*
X441334Y380318D01*
X441251Y380241D01*
X441171Y380161D01*
X441094Y380078D01*
X441019Y379992D01*
X440948Y379904D01*
X440880Y379814D01*
X440815Y379721D01*
X440753Y379626D01*
X440695Y379529D01*
X440640Y379430D01*
X440589Y379329D01*
X440541Y379226D01*
X440496Y379122D01*
X440456Y379016D01*
X440419Y378909D01*
X440386Y378801D01*
X440356Y378691D01*
X440331Y378581D01*
X440309Y378470D01*
X440292Y378358D01*
X440278Y378245D01*
X440268Y378132D01*
X440262Y378019D01*
X440260Y377906D01*
X440262Y377793D01*
X440268Y377680D01*
X440278Y377567D01*
X440292Y377454D01*
X440309Y377342D01*
X440331Y377231D01*
X440356Y377121D01*
X440386Y377011D01*
X440419Y376903D01*
X440456Y376796D01*
X440496Y376690D01*
X440541Y376586D01*
X440589Y376483D01*
X440640Y376382D01*
X440695Y376283D01*
X440753Y376186D01*
X440815Y376091D01*
X440880Y375998D01*
X440948Y375908D01*
X441019Y375820D01*
X441094Y375734D01*
X441171Y375651D01*
X441251Y375571D01*
X441334Y375494D01*
X441420Y375419D01*
X441508Y375348D01*
X441598Y375280D01*
X441691Y375215D01*
X441786Y375153D01*
X441883Y375095D01*
X441982Y375040D01*
X442083Y374989D01*
X442186Y374941D01*
X442290Y374896D01*
X442396Y374856D01*
X442503Y374819D01*
X442611Y374786D01*
X442721Y374756D01*
X442831Y374731D01*
X442942Y374709D01*
X443054Y374692D01*
X443167Y374678D01*
X443280Y374668D01*
X443393Y374662D01*
X443506Y374660D01*
X443506Y374661D02*
X446752Y374661D01*
X442857Y374661D02*
X440261Y369468D01*
X435396Y378556D02*
X432150Y381152D01*
X432150Y369468D01*
X428905Y369468D02*
X435396Y369468D01*
X420396Y381152D02*
X420289Y381150D01*
X420183Y381144D01*
X420077Y381134D01*
X419971Y381121D01*
X419865Y381103D01*
X419761Y381082D01*
X419657Y381057D01*
X419554Y381028D01*
X419453Y380996D01*
X419353Y380959D01*
X419254Y380919D01*
X419156Y380876D01*
X419060Y380829D01*
X418966Y380778D01*
X418874Y380724D01*
X418784Y380667D01*
X418696Y380607D01*
X418611Y380543D01*
X418528Y380476D01*
X418447Y380406D01*
X418369Y380334D01*
X418293Y380258D01*
X418221Y380180D01*
X418151Y380099D01*
X418084Y380016D01*
X418020Y379931D01*
X417960Y379843D01*
X417903Y379753D01*
X417849Y379661D01*
X417798Y379567D01*
X417751Y379471D01*
X417708Y379373D01*
X417668Y379274D01*
X417631Y379174D01*
X417599Y379073D01*
X417570Y378970D01*
X417545Y378866D01*
X417524Y378762D01*
X417506Y378656D01*
X417493Y378550D01*
X417483Y378444D01*
X417477Y378338D01*
X417475Y378231D01*
X420396Y381152D02*
X420517Y381150D01*
X420638Y381144D01*
X420758Y381134D01*
X420879Y381121D01*
X420998Y381103D01*
X421118Y381082D01*
X421236Y381057D01*
X421353Y381028D01*
X421470Y380995D01*
X421585Y380959D01*
X421699Y380918D01*
X421812Y380875D01*
X421924Y380827D01*
X422033Y380776D01*
X422141Y380721D01*
X422248Y380663D01*
X422352Y380602D01*
X422454Y380537D01*
X422554Y380469D01*
X422652Y380398D01*
X422748Y380324D01*
X422841Y380247D01*
X422931Y380166D01*
X423019Y380083D01*
X423104Y379997D01*
X423187Y379908D01*
X423266Y379817D01*
X423343Y379723D01*
X423416Y379627D01*
X423486Y379529D01*
X423553Y379428D01*
X423617Y379325D01*
X423678Y379220D01*
X423735Y379113D01*
X423788Y379005D01*
X423838Y378895D01*
X423884Y378783D01*
X423927Y378670D01*
X423966Y378555D01*
X418449Y375959D02*
X418370Y376037D01*
X418294Y376117D01*
X418221Y376200D01*
X418151Y376286D01*
X418084Y376373D01*
X418020Y376464D01*
X417960Y376556D01*
X417902Y376650D01*
X417848Y376747D01*
X417798Y376845D01*
X417751Y376945D01*
X417707Y377046D01*
X417667Y377149D01*
X417631Y377254D01*
X417599Y377359D01*
X417570Y377466D01*
X417545Y377573D01*
X417523Y377682D01*
X417506Y377791D01*
X417492Y377900D01*
X417483Y378010D01*
X417477Y378121D01*
X417475Y378231D01*
X418448Y375959D02*
X423966Y369468D01*
X417475Y369468D01*
X446752Y404368D02*
X446752Y416052D01*
X443506Y416052D01*
X443393Y416050D01*
X443280Y416044D01*
X443167Y416034D01*
X443054Y416020D01*
X442942Y416003D01*
X442831Y415981D01*
X442721Y415956D01*
X442611Y415926D01*
X442503Y415893D01*
X442396Y415856D01*
X442290Y415816D01*
X442186Y415771D01*
X442083Y415723D01*
X441982Y415672D01*
X441883Y415617D01*
X441786Y415559D01*
X441691Y415497D01*
X441598Y415432D01*
X441508Y415364D01*
X441420Y415293D01*
X441334Y415218D01*
X441251Y415141D01*
X441171Y415061D01*
X441094Y414978D01*
X441019Y414892D01*
X440948Y414804D01*
X440880Y414714D01*
X440815Y414621D01*
X440753Y414526D01*
X440695Y414429D01*
X440640Y414330D01*
X440589Y414229D01*
X440541Y414126D01*
X440496Y414022D01*
X440456Y413916D01*
X440419Y413809D01*
X440386Y413701D01*
X440356Y413591D01*
X440331Y413481D01*
X440309Y413370D01*
X440292Y413258D01*
X440278Y413145D01*
X440268Y413032D01*
X440262Y412919D01*
X440260Y412806D01*
X440262Y412693D01*
X440268Y412580D01*
X440278Y412467D01*
X440292Y412354D01*
X440309Y412242D01*
X440331Y412131D01*
X440356Y412021D01*
X440386Y411911D01*
X440419Y411803D01*
X440456Y411696D01*
X440496Y411590D01*
X440541Y411486D01*
X440589Y411383D01*
X440640Y411282D01*
X440695Y411183D01*
X440753Y411086D01*
X440815Y410991D01*
X440880Y410898D01*
X440948Y410808D01*
X441019Y410720D01*
X441094Y410634D01*
X441171Y410551D01*
X441251Y410471D01*
X441334Y410394D01*
X441420Y410319D01*
X441508Y410248D01*
X441598Y410180D01*
X441691Y410115D01*
X441786Y410053D01*
X441883Y409995D01*
X441982Y409940D01*
X442083Y409889D01*
X442186Y409841D01*
X442290Y409796D01*
X442396Y409756D01*
X442503Y409719D01*
X442611Y409686D01*
X442721Y409656D01*
X442831Y409631D01*
X442942Y409609D01*
X443054Y409592D01*
X443167Y409578D01*
X443280Y409568D01*
X443393Y409562D01*
X443506Y409560D01*
X443506Y409561D02*
X446752Y409561D01*
X442857Y409561D02*
X440261Y404368D01*
X435396Y413456D02*
X432150Y416052D01*
X432150Y404368D01*
X428905Y404368D02*
X435396Y404368D01*
X423966Y404368D02*
X420720Y404368D01*
X420607Y404370D01*
X420494Y404376D01*
X420381Y404386D01*
X420268Y404400D01*
X420156Y404417D01*
X420045Y404439D01*
X419935Y404464D01*
X419825Y404494D01*
X419717Y404527D01*
X419610Y404564D01*
X419504Y404604D01*
X419400Y404649D01*
X419297Y404697D01*
X419196Y404748D01*
X419097Y404803D01*
X419000Y404861D01*
X418905Y404923D01*
X418812Y404988D01*
X418722Y405056D01*
X418634Y405127D01*
X418548Y405202D01*
X418465Y405279D01*
X418385Y405359D01*
X418308Y405442D01*
X418233Y405528D01*
X418162Y405616D01*
X418094Y405706D01*
X418029Y405799D01*
X417967Y405894D01*
X417909Y405991D01*
X417854Y406090D01*
X417803Y406191D01*
X417755Y406294D01*
X417710Y406398D01*
X417670Y406504D01*
X417633Y406611D01*
X417600Y406719D01*
X417570Y406829D01*
X417545Y406939D01*
X417523Y407050D01*
X417506Y407162D01*
X417492Y407275D01*
X417482Y407388D01*
X417476Y407501D01*
X417474Y407614D01*
X417476Y407727D01*
X417482Y407840D01*
X417492Y407953D01*
X417506Y408066D01*
X417523Y408178D01*
X417545Y408289D01*
X417570Y408399D01*
X417600Y408509D01*
X417633Y408617D01*
X417670Y408724D01*
X417710Y408830D01*
X417755Y408934D01*
X417803Y409037D01*
X417854Y409138D01*
X417909Y409237D01*
X417967Y409334D01*
X418029Y409429D01*
X418094Y409522D01*
X418162Y409612D01*
X418233Y409700D01*
X418308Y409786D01*
X418385Y409869D01*
X418465Y409949D01*
X418548Y410026D01*
X418634Y410101D01*
X418722Y410172D01*
X418812Y410240D01*
X418905Y410305D01*
X419000Y410367D01*
X419097Y410425D01*
X419196Y410480D01*
X419297Y410531D01*
X419400Y410579D01*
X419504Y410624D01*
X419610Y410664D01*
X419717Y410701D01*
X419825Y410734D01*
X419935Y410764D01*
X420045Y410789D01*
X420156Y410811D01*
X420268Y410828D01*
X420381Y410842D01*
X420494Y410852D01*
X420607Y410858D01*
X420720Y410860D01*
X420071Y416052D02*
X423966Y416052D01*
X420071Y416052D02*
X419970Y416050D01*
X419870Y416044D01*
X419770Y416034D01*
X419670Y416021D01*
X419571Y416003D01*
X419472Y415982D01*
X419375Y415957D01*
X419278Y415928D01*
X419183Y415895D01*
X419089Y415859D01*
X418997Y415819D01*
X418906Y415776D01*
X418817Y415729D01*
X418730Y415679D01*
X418644Y415625D01*
X418561Y415568D01*
X418481Y415508D01*
X418402Y415445D01*
X418326Y415378D01*
X418253Y415309D01*
X418183Y415237D01*
X418115Y415163D01*
X418050Y415086D01*
X417989Y415006D01*
X417930Y414924D01*
X417875Y414840D01*
X417823Y414754D01*
X417774Y414666D01*
X417729Y414576D01*
X417687Y414484D01*
X417649Y414391D01*
X417615Y414296D01*
X417584Y414201D01*
X417557Y414104D01*
X417534Y414006D01*
X417514Y413907D01*
X417499Y413807D01*
X417487Y413707D01*
X417479Y413607D01*
X417475Y413506D01*
X417475Y413406D01*
X417479Y413305D01*
X417487Y413205D01*
X417499Y413105D01*
X417514Y413005D01*
X417534Y412906D01*
X417557Y412808D01*
X417584Y412711D01*
X417615Y412616D01*
X417649Y412521D01*
X417687Y412428D01*
X417729Y412336D01*
X417774Y412246D01*
X417823Y412158D01*
X417875Y412072D01*
X417930Y411988D01*
X417989Y411906D01*
X418050Y411826D01*
X418115Y411749D01*
X418183Y411675D01*
X418253Y411603D01*
X418326Y411534D01*
X418402Y411467D01*
X418481Y411404D01*
X418561Y411344D01*
X418644Y411287D01*
X418730Y411233D01*
X418817Y411183D01*
X418906Y411136D01*
X418997Y411093D01*
X419089Y411053D01*
X419183Y411017D01*
X419278Y410984D01*
X419375Y410955D01*
X419472Y410930D01*
X419571Y410909D01*
X419670Y410891D01*
X419770Y410878D01*
X419870Y410868D01*
X419970Y410862D01*
X420071Y410860D01*
X420071Y410859D02*
X422667Y410859D01*
X278232Y424875D02*
X266548Y424875D01*
X278232Y424875D02*
X278232Y428120D01*
X278230Y428233D01*
X278224Y428346D01*
X278214Y428459D01*
X278200Y428572D01*
X278183Y428684D01*
X278161Y428795D01*
X278136Y428905D01*
X278106Y429015D01*
X278073Y429123D01*
X278036Y429230D01*
X277996Y429336D01*
X277951Y429440D01*
X277903Y429543D01*
X277852Y429644D01*
X277797Y429743D01*
X277739Y429840D01*
X277677Y429935D01*
X277612Y430028D01*
X277544Y430118D01*
X277473Y430206D01*
X277398Y430292D01*
X277321Y430375D01*
X277241Y430455D01*
X277158Y430532D01*
X277072Y430607D01*
X276984Y430678D01*
X276894Y430746D01*
X276801Y430811D01*
X276706Y430873D01*
X276609Y430931D01*
X276510Y430986D01*
X276409Y431037D01*
X276306Y431085D01*
X276202Y431130D01*
X276096Y431170D01*
X275989Y431207D01*
X275881Y431240D01*
X275771Y431270D01*
X275661Y431295D01*
X275550Y431317D01*
X275438Y431334D01*
X275325Y431348D01*
X275212Y431358D01*
X275099Y431364D01*
X274986Y431366D01*
X274873Y431364D01*
X274760Y431358D01*
X274647Y431348D01*
X274534Y431334D01*
X274422Y431317D01*
X274311Y431295D01*
X274201Y431270D01*
X274091Y431240D01*
X273983Y431207D01*
X273876Y431170D01*
X273770Y431130D01*
X273666Y431085D01*
X273563Y431037D01*
X273462Y430986D01*
X273363Y430931D01*
X273266Y430873D01*
X273171Y430811D01*
X273078Y430746D01*
X272988Y430678D01*
X272900Y430607D01*
X272814Y430532D01*
X272731Y430455D01*
X272651Y430375D01*
X272574Y430292D01*
X272499Y430206D01*
X272428Y430118D01*
X272360Y430028D01*
X272295Y429935D01*
X272233Y429840D01*
X272175Y429743D01*
X272120Y429644D01*
X272069Y429543D01*
X272021Y429440D01*
X271976Y429336D01*
X271936Y429230D01*
X271899Y429123D01*
X271866Y429015D01*
X271836Y428905D01*
X271811Y428795D01*
X271789Y428684D01*
X271772Y428572D01*
X271758Y428459D01*
X271748Y428346D01*
X271742Y428233D01*
X271740Y428120D01*
X271741Y428120D02*
X271741Y424875D01*
X271741Y428769D02*
X266548Y431366D01*
X275636Y436231D02*
X278232Y439476D01*
X266548Y439476D01*
X266548Y436231D02*
X266548Y442722D01*
X269144Y447661D02*
X278232Y450257D01*
X269144Y447661D02*
X269144Y454152D01*
X271741Y452205D02*
X266548Y452205D01*
X118025Y179932D02*
X118025Y168248D01*
X118025Y179932D02*
X114780Y179932D01*
X114667Y179930D01*
X114554Y179924D01*
X114441Y179914D01*
X114328Y179900D01*
X114216Y179883D01*
X114105Y179861D01*
X113995Y179836D01*
X113885Y179806D01*
X113777Y179773D01*
X113670Y179736D01*
X113564Y179696D01*
X113460Y179651D01*
X113357Y179603D01*
X113256Y179552D01*
X113157Y179497D01*
X113060Y179439D01*
X112965Y179377D01*
X112872Y179312D01*
X112782Y179244D01*
X112694Y179173D01*
X112608Y179098D01*
X112525Y179021D01*
X112445Y178941D01*
X112368Y178858D01*
X112293Y178772D01*
X112222Y178684D01*
X112154Y178594D01*
X112089Y178501D01*
X112027Y178406D01*
X111969Y178309D01*
X111914Y178210D01*
X111863Y178109D01*
X111815Y178006D01*
X111770Y177902D01*
X111730Y177796D01*
X111693Y177689D01*
X111660Y177581D01*
X111630Y177471D01*
X111605Y177361D01*
X111583Y177250D01*
X111566Y177138D01*
X111552Y177025D01*
X111542Y176912D01*
X111536Y176799D01*
X111534Y176686D01*
X111536Y176573D01*
X111542Y176460D01*
X111552Y176347D01*
X111566Y176234D01*
X111583Y176122D01*
X111605Y176011D01*
X111630Y175901D01*
X111660Y175791D01*
X111693Y175683D01*
X111730Y175576D01*
X111770Y175470D01*
X111815Y175366D01*
X111863Y175263D01*
X111914Y175162D01*
X111969Y175063D01*
X112027Y174966D01*
X112089Y174871D01*
X112154Y174778D01*
X112222Y174688D01*
X112293Y174600D01*
X112368Y174514D01*
X112445Y174431D01*
X112525Y174351D01*
X112608Y174274D01*
X112694Y174199D01*
X112782Y174128D01*
X112872Y174060D01*
X112965Y173995D01*
X113060Y173933D01*
X113157Y173875D01*
X113256Y173820D01*
X113357Y173769D01*
X113460Y173721D01*
X113564Y173676D01*
X113670Y173636D01*
X113777Y173599D01*
X113885Y173566D01*
X113995Y173536D01*
X114105Y173511D01*
X114216Y173489D01*
X114328Y173472D01*
X114441Y173458D01*
X114554Y173448D01*
X114667Y173442D01*
X114780Y173440D01*
X114780Y173441D02*
X118025Y173441D01*
X114131Y173441D02*
X111534Y168248D01*
X106669Y177336D02*
X103424Y179932D01*
X103424Y168248D01*
X106669Y168248D02*
X100178Y168248D01*
X95239Y168248D02*
X91344Y168248D01*
X91245Y168250D01*
X91145Y168256D01*
X91046Y168265D01*
X90948Y168278D01*
X90850Y168295D01*
X90752Y168316D01*
X90656Y168341D01*
X90561Y168369D01*
X90467Y168401D01*
X90374Y168436D01*
X90282Y168475D01*
X90192Y168518D01*
X90104Y168563D01*
X90017Y168613D01*
X89933Y168665D01*
X89850Y168721D01*
X89770Y168779D01*
X89692Y168841D01*
X89617Y168906D01*
X89544Y168974D01*
X89474Y169044D01*
X89406Y169117D01*
X89341Y169192D01*
X89279Y169270D01*
X89221Y169350D01*
X89165Y169433D01*
X89113Y169517D01*
X89063Y169604D01*
X89018Y169692D01*
X88975Y169782D01*
X88936Y169874D01*
X88901Y169967D01*
X88869Y170061D01*
X88841Y170156D01*
X88816Y170252D01*
X88795Y170350D01*
X88778Y170448D01*
X88765Y170546D01*
X88756Y170645D01*
X88750Y170745D01*
X88748Y170844D01*
X88748Y172143D01*
X88750Y172242D01*
X88756Y172342D01*
X88765Y172441D01*
X88778Y172539D01*
X88795Y172637D01*
X88816Y172735D01*
X88841Y172831D01*
X88869Y172926D01*
X88901Y173020D01*
X88936Y173113D01*
X88975Y173205D01*
X89018Y173295D01*
X89063Y173383D01*
X89113Y173470D01*
X89165Y173554D01*
X89221Y173637D01*
X89279Y173717D01*
X89341Y173795D01*
X89406Y173870D01*
X89474Y173943D01*
X89544Y174013D01*
X89617Y174081D01*
X89692Y174146D01*
X89770Y174208D01*
X89850Y174266D01*
X89933Y174322D01*
X90017Y174374D01*
X90104Y174424D01*
X90192Y174469D01*
X90282Y174512D01*
X90374Y174551D01*
X90467Y174586D01*
X90561Y174618D01*
X90656Y174646D01*
X90752Y174671D01*
X90850Y174692D01*
X90948Y174709D01*
X91046Y174722D01*
X91145Y174731D01*
X91245Y174737D01*
X91344Y174739D01*
X95239Y174739D01*
X95239Y179932D01*
X88748Y179932D01*
X115625Y237748D02*
X115625Y249432D01*
X112380Y249432D01*
X112267Y249430D01*
X112154Y249424D01*
X112041Y249414D01*
X111928Y249400D01*
X111816Y249383D01*
X111705Y249361D01*
X111595Y249336D01*
X111485Y249306D01*
X111377Y249273D01*
X111270Y249236D01*
X111164Y249196D01*
X111060Y249151D01*
X110957Y249103D01*
X110856Y249052D01*
X110757Y248997D01*
X110660Y248939D01*
X110565Y248877D01*
X110472Y248812D01*
X110382Y248744D01*
X110294Y248673D01*
X110208Y248598D01*
X110125Y248521D01*
X110045Y248441D01*
X109968Y248358D01*
X109893Y248272D01*
X109822Y248184D01*
X109754Y248094D01*
X109689Y248001D01*
X109627Y247906D01*
X109569Y247809D01*
X109514Y247710D01*
X109463Y247609D01*
X109415Y247506D01*
X109370Y247402D01*
X109330Y247296D01*
X109293Y247189D01*
X109260Y247081D01*
X109230Y246971D01*
X109205Y246861D01*
X109183Y246750D01*
X109166Y246638D01*
X109152Y246525D01*
X109142Y246412D01*
X109136Y246299D01*
X109134Y246186D01*
X109136Y246073D01*
X109142Y245960D01*
X109152Y245847D01*
X109166Y245734D01*
X109183Y245622D01*
X109205Y245511D01*
X109230Y245401D01*
X109260Y245291D01*
X109293Y245183D01*
X109330Y245076D01*
X109370Y244970D01*
X109415Y244866D01*
X109463Y244763D01*
X109514Y244662D01*
X109569Y244563D01*
X109627Y244466D01*
X109689Y244371D01*
X109754Y244278D01*
X109822Y244188D01*
X109893Y244100D01*
X109968Y244014D01*
X110045Y243931D01*
X110125Y243851D01*
X110208Y243774D01*
X110294Y243699D01*
X110382Y243628D01*
X110472Y243560D01*
X110565Y243495D01*
X110660Y243433D01*
X110757Y243375D01*
X110856Y243320D01*
X110957Y243269D01*
X111060Y243221D01*
X111164Y243176D01*
X111270Y243136D01*
X111377Y243099D01*
X111485Y243066D01*
X111595Y243036D01*
X111705Y243011D01*
X111816Y242989D01*
X111928Y242972D01*
X112041Y242958D01*
X112154Y242948D01*
X112267Y242942D01*
X112380Y242940D01*
X112380Y242941D02*
X115625Y242941D01*
X111731Y242941D02*
X109134Y237748D01*
X104269Y246836D02*
X101024Y249432D01*
X101024Y237748D01*
X104269Y237748D02*
X97778Y237748D01*
X92839Y244239D02*
X88944Y244239D01*
X88845Y244237D01*
X88745Y244231D01*
X88646Y244222D01*
X88548Y244209D01*
X88450Y244192D01*
X88352Y244171D01*
X88256Y244146D01*
X88161Y244118D01*
X88067Y244086D01*
X87974Y244051D01*
X87882Y244012D01*
X87792Y243969D01*
X87704Y243924D01*
X87617Y243874D01*
X87533Y243822D01*
X87450Y243766D01*
X87370Y243708D01*
X87292Y243646D01*
X87217Y243581D01*
X87144Y243513D01*
X87074Y243443D01*
X87006Y243370D01*
X86941Y243295D01*
X86879Y243217D01*
X86821Y243137D01*
X86765Y243054D01*
X86713Y242970D01*
X86663Y242883D01*
X86618Y242795D01*
X86575Y242705D01*
X86536Y242613D01*
X86501Y242520D01*
X86469Y242426D01*
X86441Y242331D01*
X86416Y242235D01*
X86395Y242137D01*
X86378Y242039D01*
X86365Y241941D01*
X86356Y241842D01*
X86350Y241742D01*
X86348Y241643D01*
X86348Y240994D01*
X86350Y240881D01*
X86356Y240768D01*
X86366Y240655D01*
X86380Y240542D01*
X86397Y240430D01*
X86419Y240319D01*
X86444Y240209D01*
X86474Y240099D01*
X86507Y239991D01*
X86544Y239884D01*
X86584Y239778D01*
X86629Y239674D01*
X86677Y239571D01*
X86728Y239470D01*
X86783Y239371D01*
X86841Y239274D01*
X86903Y239179D01*
X86968Y239086D01*
X87036Y238996D01*
X87107Y238908D01*
X87182Y238822D01*
X87259Y238739D01*
X87339Y238659D01*
X87422Y238582D01*
X87508Y238507D01*
X87596Y238436D01*
X87686Y238368D01*
X87779Y238303D01*
X87874Y238241D01*
X87971Y238183D01*
X88070Y238128D01*
X88171Y238077D01*
X88274Y238029D01*
X88378Y237984D01*
X88484Y237944D01*
X88591Y237907D01*
X88699Y237874D01*
X88809Y237844D01*
X88919Y237819D01*
X89030Y237797D01*
X89142Y237780D01*
X89255Y237766D01*
X89368Y237756D01*
X89481Y237750D01*
X89594Y237748D01*
X89707Y237750D01*
X89820Y237756D01*
X89933Y237766D01*
X90046Y237780D01*
X90158Y237797D01*
X90269Y237819D01*
X90379Y237844D01*
X90489Y237874D01*
X90597Y237907D01*
X90704Y237944D01*
X90810Y237984D01*
X90914Y238029D01*
X91017Y238077D01*
X91118Y238128D01*
X91217Y238183D01*
X91314Y238241D01*
X91409Y238303D01*
X91502Y238368D01*
X91592Y238436D01*
X91680Y238507D01*
X91766Y238582D01*
X91849Y238659D01*
X91929Y238739D01*
X92006Y238822D01*
X92081Y238908D01*
X92152Y238996D01*
X92220Y239086D01*
X92285Y239179D01*
X92347Y239274D01*
X92405Y239371D01*
X92460Y239470D01*
X92511Y239571D01*
X92559Y239674D01*
X92604Y239778D01*
X92644Y239884D01*
X92681Y239991D01*
X92714Y240099D01*
X92744Y240209D01*
X92769Y240319D01*
X92791Y240430D01*
X92808Y240542D01*
X92822Y240655D01*
X92832Y240768D01*
X92838Y240881D01*
X92840Y240994D01*
X92839Y240994D02*
X92839Y244239D01*
X92837Y244382D01*
X92831Y244525D01*
X92821Y244668D01*
X92807Y244810D01*
X92790Y244952D01*
X92768Y245094D01*
X92743Y245235D01*
X92713Y245375D01*
X92680Y245514D01*
X92643Y245652D01*
X92602Y245789D01*
X92558Y245925D01*
X92509Y246060D01*
X92457Y246193D01*
X92402Y246325D01*
X92342Y246455D01*
X92279Y246584D01*
X92213Y246711D01*
X92143Y246836D01*
X92070Y246958D01*
X91993Y247079D01*
X91913Y247198D01*
X91830Y247314D01*
X91744Y247429D01*
X91655Y247540D01*
X91562Y247650D01*
X91467Y247756D01*
X91368Y247860D01*
X91267Y247961D01*
X91163Y248060D01*
X91057Y248155D01*
X90947Y248248D01*
X90836Y248337D01*
X90721Y248423D01*
X90605Y248506D01*
X90486Y248586D01*
X90365Y248663D01*
X90243Y248736D01*
X90118Y248806D01*
X89991Y248872D01*
X89862Y248935D01*
X89732Y248995D01*
X89600Y249050D01*
X89467Y249102D01*
X89332Y249151D01*
X89196Y249195D01*
X89059Y249236D01*
X88921Y249273D01*
X88782Y249306D01*
X88642Y249336D01*
X88501Y249361D01*
X88359Y249383D01*
X88217Y249400D01*
X88075Y249414D01*
X87932Y249424D01*
X87789Y249430D01*
X87646Y249432D01*
X133168Y99448D02*
X144852Y99448D01*
X144852Y102694D01*
X144850Y102807D01*
X144844Y102920D01*
X144834Y103033D01*
X144820Y103146D01*
X144803Y103258D01*
X144781Y103369D01*
X144756Y103479D01*
X144726Y103589D01*
X144693Y103697D01*
X144656Y103804D01*
X144616Y103910D01*
X144571Y104014D01*
X144523Y104117D01*
X144472Y104218D01*
X144417Y104317D01*
X144359Y104414D01*
X144297Y104509D01*
X144232Y104602D01*
X144164Y104692D01*
X144093Y104780D01*
X144018Y104866D01*
X143941Y104949D01*
X143861Y105029D01*
X143778Y105106D01*
X143692Y105181D01*
X143604Y105252D01*
X143514Y105320D01*
X143421Y105385D01*
X143326Y105447D01*
X143229Y105505D01*
X143130Y105560D01*
X143029Y105611D01*
X142926Y105659D01*
X142822Y105704D01*
X142716Y105744D01*
X142609Y105781D01*
X142501Y105814D01*
X142391Y105844D01*
X142281Y105869D01*
X142170Y105891D01*
X142058Y105908D01*
X141945Y105922D01*
X141832Y105932D01*
X141719Y105938D01*
X141606Y105940D01*
X141493Y105938D01*
X141380Y105932D01*
X141267Y105922D01*
X141154Y105908D01*
X141042Y105891D01*
X140931Y105869D01*
X140821Y105844D01*
X140711Y105814D01*
X140603Y105781D01*
X140496Y105744D01*
X140390Y105704D01*
X140286Y105659D01*
X140183Y105611D01*
X140082Y105560D01*
X139983Y105505D01*
X139886Y105447D01*
X139791Y105385D01*
X139698Y105320D01*
X139608Y105252D01*
X139520Y105181D01*
X139434Y105106D01*
X139351Y105029D01*
X139271Y104949D01*
X139194Y104866D01*
X139119Y104780D01*
X139048Y104692D01*
X138980Y104602D01*
X138915Y104509D01*
X138853Y104414D01*
X138795Y104317D01*
X138740Y104218D01*
X138689Y104117D01*
X138641Y104014D01*
X138596Y103910D01*
X138556Y103804D01*
X138519Y103697D01*
X138486Y103589D01*
X138456Y103479D01*
X138431Y103369D01*
X138409Y103258D01*
X138392Y103146D01*
X138378Y103033D01*
X138368Y102920D01*
X138362Y102807D01*
X138360Y102694D01*
X138361Y102694D02*
X138361Y99448D01*
X138361Y103343D02*
X133168Y105939D01*
X133168Y110804D02*
X133168Y114050D01*
X133170Y114163D01*
X133176Y114276D01*
X133186Y114389D01*
X133200Y114502D01*
X133217Y114614D01*
X133239Y114725D01*
X133264Y114835D01*
X133294Y114945D01*
X133327Y115053D01*
X133364Y115160D01*
X133404Y115266D01*
X133449Y115370D01*
X133497Y115473D01*
X133548Y115574D01*
X133603Y115673D01*
X133661Y115770D01*
X133723Y115865D01*
X133788Y115958D01*
X133856Y116048D01*
X133927Y116136D01*
X134002Y116222D01*
X134079Y116305D01*
X134159Y116385D01*
X134242Y116462D01*
X134328Y116537D01*
X134416Y116608D01*
X134506Y116676D01*
X134599Y116741D01*
X134694Y116803D01*
X134791Y116861D01*
X134890Y116916D01*
X134991Y116967D01*
X135094Y117015D01*
X135198Y117060D01*
X135304Y117100D01*
X135411Y117137D01*
X135519Y117170D01*
X135629Y117200D01*
X135739Y117225D01*
X135850Y117247D01*
X135962Y117264D01*
X136075Y117278D01*
X136188Y117288D01*
X136301Y117294D01*
X136414Y117296D01*
X136527Y117294D01*
X136640Y117288D01*
X136753Y117278D01*
X136866Y117264D01*
X136978Y117247D01*
X137089Y117225D01*
X137199Y117200D01*
X137309Y117170D01*
X137417Y117137D01*
X137524Y117100D01*
X137630Y117060D01*
X137734Y117015D01*
X137837Y116967D01*
X137938Y116916D01*
X138037Y116861D01*
X138134Y116803D01*
X138229Y116741D01*
X138322Y116676D01*
X138412Y116608D01*
X138500Y116537D01*
X138586Y116462D01*
X138669Y116385D01*
X138749Y116305D01*
X138826Y116222D01*
X138901Y116136D01*
X138972Y116048D01*
X139040Y115958D01*
X139105Y115865D01*
X139167Y115770D01*
X139225Y115673D01*
X139280Y115574D01*
X139331Y115473D01*
X139379Y115370D01*
X139424Y115266D01*
X139464Y115160D01*
X139501Y115053D01*
X139534Y114945D01*
X139564Y114835D01*
X139589Y114725D01*
X139611Y114614D01*
X139628Y114502D01*
X139642Y114389D01*
X139652Y114276D01*
X139658Y114163D01*
X139660Y114050D01*
X144852Y114699D02*
X144852Y110804D01*
X144852Y114699D02*
X144850Y114800D01*
X144844Y114900D01*
X144834Y115000D01*
X144821Y115100D01*
X144803Y115199D01*
X144782Y115298D01*
X144757Y115395D01*
X144728Y115492D01*
X144695Y115587D01*
X144659Y115681D01*
X144619Y115773D01*
X144576Y115864D01*
X144529Y115953D01*
X144479Y116040D01*
X144425Y116126D01*
X144368Y116209D01*
X144308Y116289D01*
X144245Y116368D01*
X144178Y116444D01*
X144109Y116517D01*
X144037Y116587D01*
X143963Y116655D01*
X143886Y116720D01*
X143806Y116781D01*
X143724Y116840D01*
X143640Y116895D01*
X143554Y116947D01*
X143466Y116996D01*
X143376Y117041D01*
X143284Y117083D01*
X143191Y117121D01*
X143096Y117155D01*
X143001Y117186D01*
X142904Y117213D01*
X142806Y117236D01*
X142707Y117256D01*
X142607Y117271D01*
X142507Y117283D01*
X142407Y117291D01*
X142306Y117295D01*
X142206Y117295D01*
X142105Y117291D01*
X142005Y117283D01*
X141905Y117271D01*
X141805Y117256D01*
X141706Y117236D01*
X141608Y117213D01*
X141511Y117186D01*
X141416Y117155D01*
X141321Y117121D01*
X141228Y117083D01*
X141136Y117041D01*
X141046Y116996D01*
X140958Y116947D01*
X140872Y116895D01*
X140788Y116840D01*
X140706Y116781D01*
X140626Y116720D01*
X140549Y116655D01*
X140475Y116587D01*
X140403Y116517D01*
X140334Y116444D01*
X140267Y116368D01*
X140204Y116289D01*
X140144Y116209D01*
X140087Y116126D01*
X140033Y116040D01*
X139983Y115953D01*
X139936Y115864D01*
X139893Y115773D01*
X139853Y115681D01*
X139817Y115587D01*
X139784Y115492D01*
X139755Y115395D01*
X139730Y115298D01*
X139709Y115199D01*
X139691Y115100D01*
X139678Y115000D01*
X139668Y114900D01*
X139662Y114800D01*
X139660Y114699D01*
X139659Y114699D02*
X139659Y112103D01*
X259768Y99548D02*
X271452Y99548D01*
X271452Y102794D01*
X271450Y102907D01*
X271444Y103020D01*
X271434Y103133D01*
X271420Y103246D01*
X271403Y103358D01*
X271381Y103469D01*
X271356Y103579D01*
X271326Y103689D01*
X271293Y103797D01*
X271256Y103904D01*
X271216Y104010D01*
X271171Y104114D01*
X271123Y104217D01*
X271072Y104318D01*
X271017Y104417D01*
X270959Y104514D01*
X270897Y104609D01*
X270832Y104702D01*
X270764Y104792D01*
X270693Y104880D01*
X270618Y104966D01*
X270541Y105049D01*
X270461Y105129D01*
X270378Y105206D01*
X270292Y105281D01*
X270204Y105352D01*
X270114Y105420D01*
X270021Y105485D01*
X269926Y105547D01*
X269829Y105605D01*
X269730Y105660D01*
X269629Y105711D01*
X269526Y105759D01*
X269422Y105804D01*
X269316Y105844D01*
X269209Y105881D01*
X269101Y105914D01*
X268991Y105944D01*
X268881Y105969D01*
X268770Y105991D01*
X268658Y106008D01*
X268545Y106022D01*
X268432Y106032D01*
X268319Y106038D01*
X268206Y106040D01*
X268093Y106038D01*
X267980Y106032D01*
X267867Y106022D01*
X267754Y106008D01*
X267642Y105991D01*
X267531Y105969D01*
X267421Y105944D01*
X267311Y105914D01*
X267203Y105881D01*
X267096Y105844D01*
X266990Y105804D01*
X266886Y105759D01*
X266783Y105711D01*
X266682Y105660D01*
X266583Y105605D01*
X266486Y105547D01*
X266391Y105485D01*
X266298Y105420D01*
X266208Y105352D01*
X266120Y105281D01*
X266034Y105206D01*
X265951Y105129D01*
X265871Y105049D01*
X265794Y104966D01*
X265719Y104880D01*
X265648Y104792D01*
X265580Y104702D01*
X265515Y104609D01*
X265453Y104514D01*
X265395Y104417D01*
X265340Y104318D01*
X265289Y104217D01*
X265241Y104114D01*
X265196Y104010D01*
X265156Y103904D01*
X265119Y103797D01*
X265086Y103689D01*
X265056Y103579D01*
X265031Y103469D01*
X265009Y103358D01*
X264992Y103246D01*
X264978Y103133D01*
X264968Y103020D01*
X264962Y102907D01*
X264960Y102794D01*
X264961Y102794D02*
X264961Y99548D01*
X264961Y103443D02*
X259768Y106039D01*
X270154Y110904D02*
X271452Y110904D01*
X271452Y117395D01*
X259768Y114150D01*
X446752Y115368D02*
X446752Y127052D01*
X443506Y127052D01*
X443393Y127050D01*
X443280Y127044D01*
X443167Y127034D01*
X443054Y127020D01*
X442942Y127003D01*
X442831Y126981D01*
X442721Y126956D01*
X442611Y126926D01*
X442503Y126893D01*
X442396Y126856D01*
X442290Y126816D01*
X442186Y126771D01*
X442083Y126723D01*
X441982Y126672D01*
X441883Y126617D01*
X441786Y126559D01*
X441691Y126497D01*
X441598Y126432D01*
X441508Y126364D01*
X441420Y126293D01*
X441334Y126218D01*
X441251Y126141D01*
X441171Y126061D01*
X441094Y125978D01*
X441019Y125892D01*
X440948Y125804D01*
X440880Y125714D01*
X440815Y125621D01*
X440753Y125526D01*
X440695Y125429D01*
X440640Y125330D01*
X440589Y125229D01*
X440541Y125126D01*
X440496Y125022D01*
X440456Y124916D01*
X440419Y124809D01*
X440386Y124701D01*
X440356Y124591D01*
X440331Y124481D01*
X440309Y124370D01*
X440292Y124258D01*
X440278Y124145D01*
X440268Y124032D01*
X440262Y123919D01*
X440260Y123806D01*
X440262Y123693D01*
X440268Y123580D01*
X440278Y123467D01*
X440292Y123354D01*
X440309Y123242D01*
X440331Y123131D01*
X440356Y123021D01*
X440386Y122911D01*
X440419Y122803D01*
X440456Y122696D01*
X440496Y122590D01*
X440541Y122486D01*
X440589Y122383D01*
X440640Y122282D01*
X440695Y122183D01*
X440753Y122086D01*
X440815Y121991D01*
X440880Y121898D01*
X440948Y121808D01*
X441019Y121720D01*
X441094Y121634D01*
X441171Y121551D01*
X441251Y121471D01*
X441334Y121394D01*
X441420Y121319D01*
X441508Y121248D01*
X441598Y121180D01*
X441691Y121115D01*
X441786Y121053D01*
X441883Y120995D01*
X441982Y120940D01*
X442083Y120889D01*
X442186Y120841D01*
X442290Y120796D01*
X442396Y120756D01*
X442503Y120719D01*
X442611Y120686D01*
X442721Y120656D01*
X442831Y120631D01*
X442942Y120609D01*
X443054Y120592D01*
X443167Y120578D01*
X443280Y120568D01*
X443393Y120562D01*
X443506Y120560D01*
X443506Y120561D02*
X446752Y120561D01*
X442857Y120561D02*
X440261Y115368D01*
X435396Y118614D02*
X435394Y118727D01*
X435388Y118840D01*
X435378Y118953D01*
X435364Y119066D01*
X435347Y119178D01*
X435325Y119289D01*
X435300Y119399D01*
X435270Y119509D01*
X435237Y119617D01*
X435200Y119724D01*
X435160Y119830D01*
X435115Y119934D01*
X435067Y120037D01*
X435016Y120138D01*
X434961Y120237D01*
X434903Y120334D01*
X434841Y120429D01*
X434776Y120522D01*
X434708Y120612D01*
X434637Y120700D01*
X434562Y120786D01*
X434485Y120869D01*
X434405Y120949D01*
X434322Y121026D01*
X434236Y121101D01*
X434148Y121172D01*
X434058Y121240D01*
X433965Y121305D01*
X433870Y121367D01*
X433773Y121425D01*
X433674Y121480D01*
X433573Y121531D01*
X433470Y121579D01*
X433366Y121624D01*
X433260Y121664D01*
X433153Y121701D01*
X433045Y121734D01*
X432935Y121764D01*
X432825Y121789D01*
X432714Y121811D01*
X432602Y121828D01*
X432489Y121842D01*
X432376Y121852D01*
X432263Y121858D01*
X432150Y121860D01*
X432037Y121858D01*
X431924Y121852D01*
X431811Y121842D01*
X431698Y121828D01*
X431586Y121811D01*
X431475Y121789D01*
X431365Y121764D01*
X431255Y121734D01*
X431147Y121701D01*
X431040Y121664D01*
X430934Y121624D01*
X430830Y121579D01*
X430727Y121531D01*
X430626Y121480D01*
X430527Y121425D01*
X430430Y121367D01*
X430335Y121305D01*
X430242Y121240D01*
X430152Y121172D01*
X430064Y121101D01*
X429978Y121026D01*
X429895Y120949D01*
X429815Y120869D01*
X429738Y120786D01*
X429663Y120700D01*
X429592Y120612D01*
X429524Y120522D01*
X429459Y120429D01*
X429397Y120334D01*
X429339Y120237D01*
X429284Y120138D01*
X429233Y120037D01*
X429185Y119934D01*
X429140Y119830D01*
X429100Y119724D01*
X429063Y119617D01*
X429030Y119509D01*
X429000Y119399D01*
X428975Y119289D01*
X428953Y119178D01*
X428936Y119066D01*
X428922Y118953D01*
X428912Y118840D01*
X428906Y118727D01*
X428904Y118614D01*
X428906Y118501D01*
X428912Y118388D01*
X428922Y118275D01*
X428936Y118162D01*
X428953Y118050D01*
X428975Y117939D01*
X429000Y117829D01*
X429030Y117719D01*
X429063Y117611D01*
X429100Y117504D01*
X429140Y117398D01*
X429185Y117294D01*
X429233Y117191D01*
X429284Y117090D01*
X429339Y116991D01*
X429397Y116894D01*
X429459Y116799D01*
X429524Y116706D01*
X429592Y116616D01*
X429663Y116528D01*
X429738Y116442D01*
X429815Y116359D01*
X429895Y116279D01*
X429978Y116202D01*
X430064Y116127D01*
X430152Y116056D01*
X430242Y115988D01*
X430335Y115923D01*
X430430Y115861D01*
X430527Y115803D01*
X430626Y115748D01*
X430727Y115697D01*
X430830Y115649D01*
X430934Y115604D01*
X431040Y115564D01*
X431147Y115527D01*
X431255Y115494D01*
X431365Y115464D01*
X431475Y115439D01*
X431586Y115417D01*
X431698Y115400D01*
X431811Y115386D01*
X431924Y115376D01*
X432037Y115370D01*
X432150Y115368D01*
X432263Y115370D01*
X432376Y115376D01*
X432489Y115386D01*
X432602Y115400D01*
X432714Y115417D01*
X432825Y115439D01*
X432935Y115464D01*
X433045Y115494D01*
X433153Y115527D01*
X433260Y115564D01*
X433366Y115604D01*
X433470Y115649D01*
X433573Y115697D01*
X433674Y115748D01*
X433773Y115803D01*
X433870Y115861D01*
X433965Y115923D01*
X434058Y115988D01*
X434148Y116056D01*
X434236Y116127D01*
X434322Y116202D01*
X434405Y116279D01*
X434485Y116359D01*
X434562Y116442D01*
X434637Y116528D01*
X434708Y116616D01*
X434776Y116706D01*
X434841Y116799D01*
X434903Y116894D01*
X434961Y116991D01*
X435016Y117090D01*
X435067Y117191D01*
X435115Y117294D01*
X435160Y117398D01*
X435200Y117504D01*
X435237Y117611D01*
X435270Y117719D01*
X435300Y117829D01*
X435325Y117939D01*
X435347Y118050D01*
X435364Y118162D01*
X435378Y118275D01*
X435388Y118388D01*
X435394Y118501D01*
X435396Y118614D01*
X434746Y124456D02*
X434744Y124557D01*
X434738Y124657D01*
X434728Y124757D01*
X434715Y124857D01*
X434697Y124956D01*
X434676Y125055D01*
X434651Y125152D01*
X434622Y125249D01*
X434589Y125344D01*
X434553Y125438D01*
X434513Y125530D01*
X434470Y125621D01*
X434423Y125710D01*
X434373Y125797D01*
X434319Y125883D01*
X434262Y125966D01*
X434202Y126046D01*
X434139Y126125D01*
X434072Y126201D01*
X434003Y126274D01*
X433931Y126344D01*
X433857Y126412D01*
X433780Y126477D01*
X433700Y126538D01*
X433618Y126597D01*
X433534Y126652D01*
X433448Y126704D01*
X433360Y126753D01*
X433270Y126798D01*
X433178Y126840D01*
X433085Y126878D01*
X432990Y126912D01*
X432895Y126943D01*
X432798Y126970D01*
X432700Y126993D01*
X432601Y127013D01*
X432501Y127028D01*
X432401Y127040D01*
X432301Y127048D01*
X432200Y127052D01*
X432100Y127052D01*
X431999Y127048D01*
X431899Y127040D01*
X431799Y127028D01*
X431699Y127013D01*
X431600Y126993D01*
X431502Y126970D01*
X431405Y126943D01*
X431310Y126912D01*
X431215Y126878D01*
X431122Y126840D01*
X431030Y126798D01*
X430940Y126753D01*
X430852Y126704D01*
X430766Y126652D01*
X430682Y126597D01*
X430600Y126538D01*
X430520Y126477D01*
X430443Y126412D01*
X430369Y126344D01*
X430297Y126274D01*
X430228Y126201D01*
X430161Y126125D01*
X430098Y126046D01*
X430038Y125966D01*
X429981Y125883D01*
X429927Y125797D01*
X429877Y125710D01*
X429830Y125621D01*
X429787Y125530D01*
X429747Y125438D01*
X429711Y125344D01*
X429678Y125249D01*
X429649Y125152D01*
X429624Y125055D01*
X429603Y124956D01*
X429585Y124857D01*
X429572Y124757D01*
X429562Y124657D01*
X429556Y124557D01*
X429554Y124456D01*
X429556Y124355D01*
X429562Y124255D01*
X429572Y124155D01*
X429585Y124055D01*
X429603Y123956D01*
X429624Y123857D01*
X429649Y123760D01*
X429678Y123663D01*
X429711Y123568D01*
X429747Y123474D01*
X429787Y123382D01*
X429830Y123291D01*
X429877Y123202D01*
X429927Y123115D01*
X429981Y123029D01*
X430038Y122946D01*
X430098Y122866D01*
X430161Y122787D01*
X430228Y122711D01*
X430297Y122638D01*
X430369Y122568D01*
X430443Y122500D01*
X430520Y122435D01*
X430600Y122374D01*
X430682Y122315D01*
X430766Y122260D01*
X430852Y122208D01*
X430940Y122159D01*
X431030Y122114D01*
X431122Y122072D01*
X431215Y122034D01*
X431310Y122000D01*
X431405Y121969D01*
X431502Y121942D01*
X431600Y121919D01*
X431699Y121899D01*
X431799Y121884D01*
X431899Y121872D01*
X431999Y121864D01*
X432100Y121860D01*
X432200Y121860D01*
X432301Y121864D01*
X432401Y121872D01*
X432501Y121884D01*
X432601Y121899D01*
X432700Y121919D01*
X432798Y121942D01*
X432895Y121969D01*
X432990Y122000D01*
X433085Y122034D01*
X433178Y122072D01*
X433270Y122114D01*
X433360Y122159D01*
X433448Y122208D01*
X433534Y122260D01*
X433618Y122315D01*
X433700Y122374D01*
X433780Y122435D01*
X433857Y122500D01*
X433931Y122568D01*
X434003Y122638D01*
X434072Y122711D01*
X434139Y122787D01*
X434202Y122866D01*
X434262Y122946D01*
X434319Y123029D01*
X434373Y123115D01*
X434423Y123202D01*
X434470Y123291D01*
X434513Y123382D01*
X434553Y123474D01*
X434589Y123568D01*
X434622Y123663D01*
X434651Y123760D01*
X434676Y123857D01*
X434697Y123956D01*
X434715Y124055D01*
X434728Y124155D01*
X434738Y124255D01*
X434744Y124355D01*
X434746Y124456D01*
X446752Y150368D02*
X446752Y162052D01*
X443506Y162052D01*
X443393Y162050D01*
X443280Y162044D01*
X443167Y162034D01*
X443054Y162020D01*
X442942Y162003D01*
X442831Y161981D01*
X442721Y161956D01*
X442611Y161926D01*
X442503Y161893D01*
X442396Y161856D01*
X442290Y161816D01*
X442186Y161771D01*
X442083Y161723D01*
X441982Y161672D01*
X441883Y161617D01*
X441786Y161559D01*
X441691Y161497D01*
X441598Y161432D01*
X441508Y161364D01*
X441420Y161293D01*
X441334Y161218D01*
X441251Y161141D01*
X441171Y161061D01*
X441094Y160978D01*
X441019Y160892D01*
X440948Y160804D01*
X440880Y160714D01*
X440815Y160621D01*
X440753Y160526D01*
X440695Y160429D01*
X440640Y160330D01*
X440589Y160229D01*
X440541Y160126D01*
X440496Y160022D01*
X440456Y159916D01*
X440419Y159809D01*
X440386Y159701D01*
X440356Y159591D01*
X440331Y159481D01*
X440309Y159370D01*
X440292Y159258D01*
X440278Y159145D01*
X440268Y159032D01*
X440262Y158919D01*
X440260Y158806D01*
X440262Y158693D01*
X440268Y158580D01*
X440278Y158467D01*
X440292Y158354D01*
X440309Y158242D01*
X440331Y158131D01*
X440356Y158021D01*
X440386Y157911D01*
X440419Y157803D01*
X440456Y157696D01*
X440496Y157590D01*
X440541Y157486D01*
X440589Y157383D01*
X440640Y157282D01*
X440695Y157183D01*
X440753Y157086D01*
X440815Y156991D01*
X440880Y156898D01*
X440948Y156808D01*
X441019Y156720D01*
X441094Y156634D01*
X441171Y156551D01*
X441251Y156471D01*
X441334Y156394D01*
X441420Y156319D01*
X441508Y156248D01*
X441598Y156180D01*
X441691Y156115D01*
X441786Y156053D01*
X441883Y155995D01*
X441982Y155940D01*
X442083Y155889D01*
X442186Y155841D01*
X442290Y155796D01*
X442396Y155756D01*
X442503Y155719D01*
X442611Y155686D01*
X442721Y155656D01*
X442831Y155631D01*
X442942Y155609D01*
X443054Y155592D01*
X443167Y155578D01*
X443280Y155568D01*
X443393Y155562D01*
X443506Y155560D01*
X443506Y155561D02*
X446752Y155561D01*
X442857Y155561D02*
X440261Y150368D01*
X432799Y155561D02*
X428905Y155561D01*
X432799Y155561D02*
X432898Y155563D01*
X432998Y155569D01*
X433097Y155578D01*
X433195Y155591D01*
X433293Y155608D01*
X433391Y155629D01*
X433487Y155654D01*
X433582Y155682D01*
X433676Y155714D01*
X433769Y155749D01*
X433861Y155788D01*
X433951Y155831D01*
X434039Y155876D01*
X434126Y155926D01*
X434210Y155978D01*
X434293Y156034D01*
X434373Y156092D01*
X434451Y156154D01*
X434526Y156219D01*
X434599Y156287D01*
X434669Y156357D01*
X434737Y156430D01*
X434802Y156505D01*
X434864Y156583D01*
X434922Y156663D01*
X434978Y156746D01*
X435030Y156830D01*
X435080Y156917D01*
X435125Y157005D01*
X435168Y157095D01*
X435207Y157187D01*
X435242Y157280D01*
X435274Y157374D01*
X435302Y157469D01*
X435327Y157565D01*
X435348Y157663D01*
X435365Y157761D01*
X435378Y157859D01*
X435387Y157958D01*
X435393Y158058D01*
X435395Y158157D01*
X435396Y158157D02*
X435396Y158806D01*
X435394Y158919D01*
X435388Y159032D01*
X435378Y159145D01*
X435364Y159258D01*
X435347Y159370D01*
X435325Y159481D01*
X435300Y159591D01*
X435270Y159701D01*
X435237Y159809D01*
X435200Y159916D01*
X435160Y160022D01*
X435115Y160126D01*
X435067Y160229D01*
X435016Y160330D01*
X434961Y160429D01*
X434903Y160526D01*
X434841Y160621D01*
X434776Y160714D01*
X434708Y160804D01*
X434637Y160892D01*
X434562Y160978D01*
X434485Y161061D01*
X434405Y161141D01*
X434322Y161218D01*
X434236Y161293D01*
X434148Y161364D01*
X434058Y161432D01*
X433965Y161497D01*
X433870Y161559D01*
X433773Y161617D01*
X433674Y161672D01*
X433573Y161723D01*
X433470Y161771D01*
X433366Y161816D01*
X433260Y161856D01*
X433153Y161893D01*
X433045Y161926D01*
X432935Y161956D01*
X432825Y161981D01*
X432714Y162003D01*
X432602Y162020D01*
X432489Y162034D01*
X432376Y162044D01*
X432263Y162050D01*
X432150Y162052D01*
X432037Y162050D01*
X431924Y162044D01*
X431811Y162034D01*
X431698Y162020D01*
X431586Y162003D01*
X431475Y161981D01*
X431365Y161956D01*
X431255Y161926D01*
X431147Y161893D01*
X431040Y161856D01*
X430934Y161816D01*
X430830Y161771D01*
X430727Y161723D01*
X430626Y161672D01*
X430527Y161617D01*
X430430Y161559D01*
X430335Y161497D01*
X430242Y161432D01*
X430152Y161364D01*
X430064Y161293D01*
X429978Y161218D01*
X429895Y161141D01*
X429815Y161061D01*
X429738Y160978D01*
X429663Y160892D01*
X429592Y160804D01*
X429524Y160714D01*
X429459Y160621D01*
X429397Y160526D01*
X429339Y160429D01*
X429284Y160330D01*
X429233Y160229D01*
X429185Y160126D01*
X429140Y160022D01*
X429100Y159916D01*
X429063Y159809D01*
X429030Y159701D01*
X429000Y159591D01*
X428975Y159481D01*
X428953Y159370D01*
X428936Y159258D01*
X428922Y159145D01*
X428912Y159032D01*
X428906Y158919D01*
X428904Y158806D01*
X428905Y158806D02*
X428905Y155561D01*
X428904Y155561D02*
X428906Y155418D01*
X428912Y155275D01*
X428922Y155132D01*
X428936Y154990D01*
X428953Y154848D01*
X428975Y154706D01*
X429000Y154565D01*
X429030Y154425D01*
X429063Y154286D01*
X429100Y154148D01*
X429141Y154011D01*
X429185Y153875D01*
X429234Y153740D01*
X429286Y153607D01*
X429341Y153475D01*
X429401Y153345D01*
X429464Y153216D01*
X429530Y153089D01*
X429600Y152965D01*
X429673Y152842D01*
X429750Y152721D01*
X429830Y152602D01*
X429913Y152486D01*
X429999Y152371D01*
X430088Y152260D01*
X430181Y152150D01*
X430276Y152044D01*
X430375Y151940D01*
X430476Y151839D01*
X430580Y151740D01*
X430686Y151645D01*
X430796Y151552D01*
X430907Y151463D01*
X431022Y151377D01*
X431138Y151294D01*
X431257Y151214D01*
X431378Y151137D01*
X431500Y151064D01*
X431625Y150994D01*
X431752Y150928D01*
X431881Y150865D01*
X432011Y150805D01*
X432143Y150750D01*
X432276Y150698D01*
X432411Y150649D01*
X432547Y150605D01*
X432684Y150564D01*
X432822Y150527D01*
X432961Y150494D01*
X433101Y150464D01*
X433242Y150439D01*
X433384Y150417D01*
X433526Y150400D01*
X433668Y150386D01*
X433811Y150376D01*
X433954Y150370D01*
X434097Y150368D01*
M02*
