G04 EAGLE Gerber RS-274X export*
G75*
%MOMM*%
%FSLAX34Y34*%
%LPD*%
%INSoldermask Bottom*%
%IPPOS*%
%AMOC8*
5,1,8,0,0,1.08239X$1,22.5*%
G01*
%ADD10C,3.703200*%
%ADD11R,1.503200X1.703200*%
%ADD12R,1.703200X2.203200*%
%ADD13R,1.703200X1.503200*%
%ADD14R,1.733200X1.733200*%
%ADD15C,1.733200*%
%ADD16C,2.153200*%
%ADD17R,1.803200X1.503200*%
%ADD18R,1.503200X1.803200*%
%ADD19C,0.959600*%


D10*
X38100Y38100D03*
X495300Y38100D03*
X495300Y495300D03*
X38100Y495300D03*
D11*
X167165Y259410D03*
X150165Y259410D03*
X150165Y230200D03*
X167165Y230200D03*
D12*
X290000Y187000D03*
X320000Y187000D03*
D13*
X317500Y249800D03*
X317500Y232800D03*
D14*
X215900Y355600D03*
D15*
X215900Y381000D03*
X241300Y355600D03*
X241300Y381000D03*
X266700Y355600D03*
X266700Y381000D03*
D16*
X411200Y63500D03*
X376200Y63500D03*
X495300Y139700D03*
X495300Y104700D03*
X495300Y174700D03*
X495300Y393700D03*
X495300Y358700D03*
X495300Y428700D03*
X254000Y495300D03*
X289000Y495300D03*
X219000Y495300D03*
X50800Y190500D03*
X50800Y225500D03*
X50800Y155500D03*
D17*
X254000Y454000D03*
X254000Y435000D03*
D18*
X88900Y225400D03*
X107900Y225400D03*
X446600Y358800D03*
X427600Y358800D03*
X446600Y393700D03*
X427600Y393700D03*
D17*
X288900Y454000D03*
X288900Y435000D03*
D18*
X88900Y190600D03*
X107900Y190600D03*
X107900Y260200D03*
X88900Y260200D03*
D17*
X122500Y99600D03*
X122500Y118600D03*
X249100Y99700D03*
X249100Y118700D03*
D18*
X446600Y104700D03*
X427600Y104700D03*
X446600Y139700D03*
X427600Y139700D03*
D16*
X495300Y266700D03*
X495300Y231700D03*
X495300Y301700D03*
X381000Y495300D03*
X416000Y495300D03*
X346000Y495300D03*
X127000Y495300D03*
X162000Y495300D03*
X92000Y495300D03*
X50800Y317500D03*
X50800Y352500D03*
X50800Y282500D03*
X157200Y63500D03*
X122200Y63500D03*
X284200Y63500D03*
X249200Y63500D03*
D19*
X290000Y204000D03*
X154000Y244000D03*
X426000Y219000D03*
X269000Y242000D03*
X269000Y258000D03*
X213000Y250000D03*
X245300Y225900D03*
X182000Y258000D03*
X182000Y291000D03*
X270000Y129000D03*
X277000Y151000D03*
X270000Y141000D03*
X277000Y163000D03*
X246288Y282100D03*
X237200Y282100D03*
X227000Y276000D03*
X217000Y276000D03*
X202000Y295000D03*
X288000Y416000D03*
X123000Y260000D03*
M02*
