G04 EAGLE Gerber RS-274X export*
G75*
%MOMM*%
%FSLAX34Y34*%
%LPD*%
%INSolderpaste Top*%
%IPPOS*%
%AMOC8*
5,1,8,0,0,1.08239X$1,22.5*%
G01*
%ADD10R,1.500000X1.300000*%
%ADD11R,1.300000X1.600000*%
%ADD12R,1.200000X1.200000*%
%ADD13R,1.500000X0.550000*%
%ADD14R,0.550000X1.500000*%
%ADD15R,1.250000X1.600000*%


D10*
X402590Y218830D03*
X402590Y235830D03*
X334190Y289670D03*
X334190Y272670D03*
D11*
X231800Y165100D03*
X250800Y165100D03*
D12*
X139700Y243500D03*
X139700Y264500D03*
D13*
X284300Y226000D03*
X284300Y234000D03*
X284300Y242000D03*
X284300Y250000D03*
X284300Y258000D03*
X284300Y266000D03*
X284300Y274000D03*
X284300Y282000D03*
D14*
X269300Y297000D03*
X261300Y297000D03*
X253300Y297000D03*
X245300Y297000D03*
X237300Y297000D03*
X229300Y297000D03*
X221300Y297000D03*
X213300Y297000D03*
D13*
X198300Y282000D03*
X198300Y274000D03*
X198300Y266000D03*
X198300Y258000D03*
X198300Y250000D03*
X198300Y242000D03*
X198300Y234000D03*
X198300Y226000D03*
D14*
X213300Y211000D03*
X221300Y211000D03*
X229300Y211000D03*
X237300Y211000D03*
X245300Y211000D03*
X253300Y211000D03*
X261300Y211000D03*
X269300Y211000D03*
D15*
X379300Y235500D03*
X379300Y272500D03*
X357300Y272500D03*
X357300Y235500D03*
M02*
